<?xml version="1.0" encoding="utf-8" standalone="no"?>
<!DOCTYPE svg PUBLIC "-//W3C//DTD SVG 1.1//EN"
  "http://www.w3.org/Graphics/SVG/1.1/DTD/svg11.dtd">
<!-- Created with matplotlib (https://matplotlib.org/) -->
<svg height="345.6pt" version="1.1" viewBox="0 0 460.8 345.6" width="460.8pt" xmlns="http://www.w3.org/2000/svg" xmlns:xlink="http://www.w3.org/1999/xlink">
 <defs>
  <style type="text/css">
*{stroke-linecap:butt;stroke-linejoin:round;}
  </style>
 </defs>
 <g id="figure_1">
  <g id="patch_1">
   <path d="M 0 345.6 
L 460.8 345.6 
L 460.8 0 
L 0 0 
z
" style="fill:#ffffff;"/>
  </g>
  <g id="axes_1">
   <g id="patch_2">
    <path d="M 57.6 307.584 
L 414.72 307.584 
L 414.72 41.472 
L 57.6 41.472 
z
" style="fill:#ffffff;"/>
   </g>
   <g id="PolyCollection_1">
    <defs>
     <path d="M 414.72 -38.016 
L 414.72 -73.475125 
L 331.064742 -88.732902 
L 330.100501 -94.305151 
L 327.801905 -104.325534 
L 326.896102 -119.49317 
L 326.857143 -119.913707 
L 314.526539 -124.293795 
L 314.526539 -124.593231 
L 314.526539 -124.837212 
L 313.104526 -125.610255 
L 313.104526 -126.308208 
L 312.714934 -126.30842 
L 308.332018 -127.860197 
L 308.332018 -128.074747 
L 307.825547 -132.486953 
L 307.659971 -132.447733 
L 307.562572 -132.600381 
L 307.562572 -132.736746 
L 299.235032 -134.500309 
L 299.235032 -135.448212 
L 262.389318 -146.055443 
L 261.951026 -146.448567 
L 261.512734 -146.31538 
L 261.473775 -146.39866 
L 261.376377 -146.404456 
L 260.441355 -147.102317 
L 260.421875 -147.895756 
L 260.421875 -148.200863 
L 260.421875 -149.03061 
L 260.061502 -149.034192 
L 243.085007 -153.990514 
L 231.660206 -159.789034 
L 229.683024 -160.222761 
L 229.527187 -160.16543 
L 229.36161 -160.197914 
L 229.36161 -160.22464 
L 226.361748 -162.009531 
L 225.446205 -162.873962 
L 225.426726 -163.005972 
L 225.426726 -163.034598 
L 224.004713 -163.081635 
L 223.069691 -162.956287 
L 222.504782 -162.754158 
L 220.965891 -163.780005 
L 220.186706 -163.730614 
L 220.060088 -163.681256 
L 219.845812 -163.769709 
L 219.806853 -163.754494 
L 219.43674 -164.087282 
L 218.014728 -164.287495 
L 217.566696 -164.267094 
L 217.011527 -164.438617 
L 212.570172 -168.146497 
L 212.1611 -168.667313 
L 207.398331 -171.767062 
L 207.076917 -172.300263 
L 207.018478 -172.400869 
L 203.921217 -173.981044 
L 203.921217 -174.000468 
L 203.76538 -173.93331 
L 202.801139 -173.627913 
L 202.508945 -173.500902 
L 202.469985 -173.561883 
L 201.914816 -173.853239 
L 201.827158 -173.814941 
L 201.476524 -174.026161 
L 201.359647 -174.28697 
L 200.249308 -174.940351 
L 200.13243 -174.888752 
L 200.13243 -174.969619 
L 200.073991 -174.943805 
L 190.840648 -184.577515 
L 189.029043 -187.168574 
L 188.366735 -186.9887 
L 188.288817 -187.056536 
L 184.412371 -187.32771 
L 183.711105 -187.448656 
L 183.000098 -188.185819 
L 182.571546 -188.684982 
L 182.045596 -188.763306 
L 181.694963 -188.86525 
L 181.675484 -188.883858 
L 181.509907 -189.262068 
L 181.178753 -189.683141 
L 179.727521 -189.553083 
L 179.678822 -189.970889 
L 179.630123 -189.946611 
L 169.296181 -201.299703 
L 167.270299 -201.030646 
L 167.270299 -201.067903 
L 158.251232 -205.979122 
L 157.131154 -206.104224 
L 155.261109 -206.032058 
L 154.043633 -205.599498 
L 153.527423 -206.049023 
L 153.527423 -206.275559 
L 153.517683 -206.269817 
L 153.400805 -206.337124 
L 153.361846 -206.678656 
L 153.274188 -206.867134 
L 148.394541 -210.277588 
L 145.190142 -211.760925 
L 144.878468 -211.818391 
L 142.511694 -212.941969 
L 139.774806 -212.625936 
L 135.703564 -212.151495 
L 135.703564 -212.166416 
L 135.508768 -212.090065 
L 135.031517 -211.934688 
L 134.992558 -211.907222 
L 132.937457 -218.727504 
L 131.75894 -219.020799 
L 130.950535 -218.708667 
L 130.551203 -220.068901 
L 128.301306 -219.914454 
L 121.658753 -221.794928 
L 121.649013 -222.051053 
L 121.123063 -223.011599 
L 121.035405 -223.775028 
L 120.460756 -224.718632 
L 119.379637 -225.838166 
L 105.851036 -225.103135 
L 104.964713 -225.152155 
L 104.769917 -225.092653 
L 101.146706 -223.107513 
L 101.107747 -223.062826 
L 99.695474 -223.357401 
L 99.471458 -224.485033 
L 99.266922 -226.870959 
L 98.185803 -228.267212 
L 98.059185 -228.77334 
L 98.039705 -228.750617 
L 97.202081 -228.917638 
L 85.77728 -231.728528 
L 83.400766 -232.388484 
L 83.16701 -232.542316 
L 83.147531 -232.507843 
L 82.728719 -235.14449 
L 82.543662 -234.820075 
L 82.436524 -234.630542 
L 82.16381 -234.142321 
L 57.6 -291.456 
L 57.6 -38.016 
L 57.6 -38.016 
L 82.16381 -38.016 
L 82.436524 -38.016 
L 82.543662 -38.016 
L 82.728719 -38.016 
L 83.147531 -38.016 
L 83.16701 -38.016 
L 83.400766 -38.016 
L 85.77728 -38.016 
L 97.202081 -38.016 
L 98.039705 -38.016 
L 98.059185 -38.016 
L 98.185803 -38.016 
L 99.266922 -38.016 
L 99.471458 -38.016 
L 99.695474 -38.016 
L 101.107747 -38.016 
L 101.146706 -38.016 
L 104.769917 -38.016 
L 104.964713 -38.016 
L 105.851036 -38.016 
L 119.379637 -38.016 
L 120.460756 -38.016 
L 121.035405 -38.016 
L 121.123063 -38.016 
L 121.649013 -38.016 
L 121.658753 -38.016 
L 128.301306 -38.016 
L 130.551203 -38.016 
L 130.950535 -38.016 
L 131.75894 -38.016 
L 132.937457 -38.016 
L 134.992558 -38.016 
L 135.031517 -38.016 
L 135.508768 -38.016 
L 135.703564 -38.016 
L 135.703564 -38.016 
L 139.774806 -38.016 
L 142.511694 -38.016 
L 144.878468 -38.016 
L 145.190142 -38.016 
L 148.394541 -38.016 
L 153.274188 -38.016 
L 153.361846 -38.016 
L 153.400805 -38.016 
L 153.517683 -38.016 
L 153.527423 -38.016 
L 153.527423 -38.016 
L 154.043633 -38.016 
L 155.261109 -38.016 
L 157.131154 -38.016 
L 158.251232 -38.016 
L 167.270299 -38.016 
L 167.270299 -38.016 
L 169.296181 -38.016 
L 179.630123 -38.016 
L 179.678822 -38.016 
L 179.727521 -38.016 
L 181.178753 -38.016 
L 181.509907 -38.016 
L 181.675484 -38.016 
L 181.694963 -38.016 
L 182.045596 -38.016 
L 182.571546 -38.016 
L 183.000098 -38.016 
L 183.711105 -38.016 
L 184.412371 -38.016 
L 188.288817 -38.016 
L 188.366735 -38.016 
L 189.029043 -38.016 
L 190.840648 -38.016 
L 200.073991 -38.016 
L 200.13243 -38.016 
L 200.13243 -38.016 
L 200.249308 -38.016 
L 201.359647 -38.016 
L 201.476524 -38.016 
L 201.827158 -38.016 
L 201.914816 -38.016 
L 202.469985 -38.016 
L 202.508945 -38.016 
L 202.801139 -38.016 
L 203.76538 -38.016 
L 203.921217 -38.016 
L 203.921217 -38.016 
L 207.018478 -38.016 
L 207.076917 -38.016 
L 207.398331 -38.016 
L 212.1611 -38.016 
L 212.570172 -38.016 
L 217.011527 -38.016 
L 217.566696 -38.016 
L 218.014728 -38.016 
L 219.43674 -38.016 
L 219.806853 -38.016 
L 219.845812 -38.016 
L 220.060088 -38.016 
L 220.186706 -38.016 
L 220.965891 -38.016 
L 222.504782 -38.016 
L 223.069691 -38.016 
L 224.004713 -38.016 
L 225.426726 -38.016 
L 225.426726 -38.016 
L 225.446205 -38.016 
L 226.361748 -38.016 
L 229.36161 -38.016 
L 229.36161 -38.016 
L 229.527187 -38.016 
L 229.683024 -38.016 
L 231.660206 -38.016 
L 243.085007 -38.016 
L 260.061502 -38.016 
L 260.421875 -38.016 
L 260.421875 -38.016 
L 260.421875 -38.016 
L 260.441355 -38.016 
L 261.376377 -38.016 
L 261.473775 -38.016 
L 261.512734 -38.016 
L 261.951026 -38.016 
L 262.389318 -38.016 
L 299.235032 -38.016 
L 299.235032 -38.016 
L 307.562572 -38.016 
L 307.562572 -38.016 
L 307.659971 -38.016 
L 307.825547 -38.016 
L 308.332018 -38.016 
L 308.332018 -38.016 
L 312.714934 -38.016 
L 313.104526 -38.016 
L 313.104526 -38.016 
L 314.526539 -38.016 
L 314.526539 -38.016 
L 314.526539 -38.016 
L 326.857143 -38.016 
L 326.896102 -38.016 
L 327.801905 -38.016 
L 330.100501 -38.016 
L 331.064742 -38.016 
L 414.72 -38.016 
z
" id="m043c5a0db3" style="stroke:#0000ff;stroke-opacity:0.2;"/>
    </defs>
    <g clip-path="url(#p189d192040)">
     <use style="fill:#0000ff;fill-opacity:0.2;stroke:#0000ff;stroke-opacity:0.2;" x="0" xlink:href="#m043c5a0db3" y="345.6"/>
    </g>
   </g>
   <g id="matplotlib.axis_1">
    <g id="xtick_1">
     <g id="line2d_1">
      <defs>
       <path d="M 0 0 
L 0 3.5 
" id="mf8ef837b54" style="stroke:#000000;stroke-width:0.8;"/>
      </defs>
      <g>
       <use style="stroke:#000000;stroke-width:0.8;" x="57.6" xlink:href="#mf8ef837b54" y="307.584"/>
      </g>
     </g>
     <g id="text_1">
      <!-- 0.0 -->
      <defs>
       <path d="M 31.78125 66.40625 
Q 24.171875 66.40625 20.328125 58.90625 
Q 16.5 51.421875 16.5 36.375 
Q 16.5 21.390625 20.328125 13.890625 
Q 24.171875 6.390625 31.78125 6.390625 
Q 39.453125 6.390625 43.28125 13.890625 
Q 47.125 21.390625 47.125 36.375 
Q 47.125 51.421875 43.28125 58.90625 
Q 39.453125 66.40625 31.78125 66.40625 
z
M 31.78125 74.21875 
Q 44.046875 74.21875 50.515625 64.515625 
Q 56.984375 54.828125 56.984375 36.375 
Q 56.984375 17.96875 50.515625 8.265625 
Q 44.046875 -1.421875 31.78125 -1.421875 
Q 19.53125 -1.421875 13.0625 8.265625 
Q 6.59375 17.96875 6.59375 36.375 
Q 6.59375 54.828125 13.0625 64.515625 
Q 19.53125 74.21875 31.78125 74.21875 
z
" id="DejaVuSans-48"/>
       <path d="M 10.6875 12.40625 
L 21 12.40625 
L 21 0 
L 10.6875 0 
z
" id="DejaVuSans-46"/>
      </defs>
      <g transform="translate(49.648438 322.182437)scale(0.1 -0.1)">
       <use xlink:href="#DejaVuSans-48"/>
       <use x="63.623047" xlink:href="#DejaVuSans-46"/>
       <use x="95.410156" xlink:href="#DejaVuSans-48"/>
      </g>
     </g>
    </g>
    <g id="xtick_2">
     <g id="line2d_2">
      <g>
       <use style="stroke:#000000;stroke-width:0.8;" x="129.024" xlink:href="#mf8ef837b54" y="307.584"/>
      </g>
     </g>
     <g id="text_2">
      <!-- 0.2 -->
      <defs>
       <path d="M 19.1875 8.296875 
L 53.609375 8.296875 
L 53.609375 0 
L 7.328125 0 
L 7.328125 8.296875 
Q 12.9375 14.109375 22.625 23.890625 
Q 32.328125 33.6875 34.8125 36.53125 
Q 39.546875 41.84375 41.421875 45.53125 
Q 43.3125 49.21875 43.3125 52.78125 
Q 43.3125 58.59375 39.234375 62.25 
Q 35.15625 65.921875 28.609375 65.921875 
Q 23.96875 65.921875 18.8125 64.3125 
Q 13.671875 62.703125 7.8125 59.421875 
L 7.8125 69.390625 
Q 13.765625 71.78125 18.9375 73 
Q 24.125 74.21875 28.421875 74.21875 
Q 39.75 74.21875 46.484375 68.546875 
Q 53.21875 62.890625 53.21875 53.421875 
Q 53.21875 48.921875 51.53125 44.890625 
Q 49.859375 40.875 45.40625 35.40625 
Q 44.1875 33.984375 37.640625 27.21875 
Q 31.109375 20.453125 19.1875 8.296875 
z
" id="DejaVuSans-50"/>
      </defs>
      <g transform="translate(121.072438 322.182437)scale(0.1 -0.1)">
       <use xlink:href="#DejaVuSans-48"/>
       <use x="63.623047" xlink:href="#DejaVuSans-46"/>
       <use x="95.410156" xlink:href="#DejaVuSans-50"/>
      </g>
     </g>
    </g>
    <g id="xtick_3">
     <g id="line2d_3">
      <g>
       <use style="stroke:#000000;stroke-width:0.8;" x="200.448" xlink:href="#mf8ef837b54" y="307.584"/>
      </g>
     </g>
     <g id="text_3">
      <!-- 0.4 -->
      <defs>
       <path d="M 37.796875 64.3125 
L 12.890625 25.390625 
L 37.796875 25.390625 
z
M 35.203125 72.90625 
L 47.609375 72.90625 
L 47.609375 25.390625 
L 58.015625 25.390625 
L 58.015625 17.1875 
L 47.609375 17.1875 
L 47.609375 0 
L 37.796875 0 
L 37.796875 17.1875 
L 4.890625 17.1875 
L 4.890625 26.703125 
z
" id="DejaVuSans-52"/>
      </defs>
      <g transform="translate(192.496438 322.182437)scale(0.1 -0.1)">
       <use xlink:href="#DejaVuSans-48"/>
       <use x="63.623047" xlink:href="#DejaVuSans-46"/>
       <use x="95.410156" xlink:href="#DejaVuSans-52"/>
      </g>
     </g>
    </g>
    <g id="xtick_4">
     <g id="line2d_4">
      <g>
       <use style="stroke:#000000;stroke-width:0.8;" x="271.872" xlink:href="#mf8ef837b54" y="307.584"/>
      </g>
     </g>
     <g id="text_4">
      <!-- 0.6 -->
      <defs>
       <path d="M 33.015625 40.375 
Q 26.375 40.375 22.484375 35.828125 
Q 18.609375 31.296875 18.609375 23.390625 
Q 18.609375 15.53125 22.484375 10.953125 
Q 26.375 6.390625 33.015625 6.390625 
Q 39.65625 6.390625 43.53125 10.953125 
Q 47.40625 15.53125 47.40625 23.390625 
Q 47.40625 31.296875 43.53125 35.828125 
Q 39.65625 40.375 33.015625 40.375 
z
M 52.59375 71.296875 
L 52.59375 62.3125 
Q 48.875 64.0625 45.09375 64.984375 
Q 41.3125 65.921875 37.59375 65.921875 
Q 27.828125 65.921875 22.671875 59.328125 
Q 17.53125 52.734375 16.796875 39.40625 
Q 19.671875 43.65625 24.015625 45.921875 
Q 28.375 48.1875 33.59375 48.1875 
Q 44.578125 48.1875 50.953125 41.515625 
Q 57.328125 34.859375 57.328125 23.390625 
Q 57.328125 12.15625 50.6875 5.359375 
Q 44.046875 -1.421875 33.015625 -1.421875 
Q 20.359375 -1.421875 13.671875 8.265625 
Q 6.984375 17.96875 6.984375 36.375 
Q 6.984375 53.65625 15.1875 63.9375 
Q 23.390625 74.21875 37.203125 74.21875 
Q 40.921875 74.21875 44.703125 73.484375 
Q 48.484375 72.75 52.59375 71.296875 
z
" id="DejaVuSans-54"/>
      </defs>
      <g transform="translate(263.920438 322.182437)scale(0.1 -0.1)">
       <use xlink:href="#DejaVuSans-48"/>
       <use x="63.623047" xlink:href="#DejaVuSans-46"/>
       <use x="95.410156" xlink:href="#DejaVuSans-54"/>
      </g>
     </g>
    </g>
    <g id="xtick_5">
     <g id="line2d_5">
      <g>
       <use style="stroke:#000000;stroke-width:0.8;" x="343.296" xlink:href="#mf8ef837b54" y="307.584"/>
      </g>
     </g>
     <g id="text_5">
      <!-- 0.8 -->
      <defs>
       <path d="M 31.78125 34.625 
Q 24.75 34.625 20.71875 30.859375 
Q 16.703125 27.09375 16.703125 20.515625 
Q 16.703125 13.921875 20.71875 10.15625 
Q 24.75 6.390625 31.78125 6.390625 
Q 38.8125 6.390625 42.859375 10.171875 
Q 46.921875 13.96875 46.921875 20.515625 
Q 46.921875 27.09375 42.890625 30.859375 
Q 38.875 34.625 31.78125 34.625 
z
M 21.921875 38.8125 
Q 15.578125 40.375 12.03125 44.71875 
Q 8.5 49.078125 8.5 55.328125 
Q 8.5 64.0625 14.71875 69.140625 
Q 20.953125 74.21875 31.78125 74.21875 
Q 42.671875 74.21875 48.875 69.140625 
Q 55.078125 64.0625 55.078125 55.328125 
Q 55.078125 49.078125 51.53125 44.71875 
Q 48 40.375 41.703125 38.8125 
Q 48.828125 37.15625 52.796875 32.3125 
Q 56.78125 27.484375 56.78125 20.515625 
Q 56.78125 9.90625 50.3125 4.234375 
Q 43.84375 -1.421875 31.78125 -1.421875 
Q 19.734375 -1.421875 13.25 4.234375 
Q 6.78125 9.90625 6.78125 20.515625 
Q 6.78125 27.484375 10.78125 32.3125 
Q 14.796875 37.15625 21.921875 38.8125 
z
M 18.3125 54.390625 
Q 18.3125 48.734375 21.84375 45.5625 
Q 25.390625 42.390625 31.78125 42.390625 
Q 38.140625 42.390625 41.71875 45.5625 
Q 45.3125 48.734375 45.3125 54.390625 
Q 45.3125 60.0625 41.71875 63.234375 
Q 38.140625 66.40625 31.78125 66.40625 
Q 25.390625 66.40625 21.84375 63.234375 
Q 18.3125 60.0625 18.3125 54.390625 
z
" id="DejaVuSans-56"/>
      </defs>
      <g transform="translate(335.344438 322.182437)scale(0.1 -0.1)">
       <use xlink:href="#DejaVuSans-48"/>
       <use x="63.623047" xlink:href="#DejaVuSans-46"/>
       <use x="95.410156" xlink:href="#DejaVuSans-56"/>
      </g>
     </g>
    </g>
    <g id="xtick_6">
     <g id="line2d_6">
      <g>
       <use style="stroke:#000000;stroke-width:0.8;" x="414.72" xlink:href="#mf8ef837b54" y="307.584"/>
      </g>
     </g>
     <g id="text_6">
      <!-- 1.0 -->
      <defs>
       <path d="M 12.40625 8.296875 
L 28.515625 8.296875 
L 28.515625 63.921875 
L 10.984375 60.40625 
L 10.984375 69.390625 
L 28.421875 72.90625 
L 38.28125 72.90625 
L 38.28125 8.296875 
L 54.390625 8.296875 
L 54.390625 0 
L 12.40625 0 
z
" id="DejaVuSans-49"/>
      </defs>
      <g transform="translate(406.768438 322.182437)scale(0.1 -0.1)">
       <use xlink:href="#DejaVuSans-49"/>
       <use x="63.623047" xlink:href="#DejaVuSans-46"/>
       <use x="95.410156" xlink:href="#DejaVuSans-48"/>
      </g>
     </g>
    </g>
    <g id="text_7">
     <!-- Recall -->
     <defs>
      <path d="M 44.390625 34.1875 
Q 47.5625 33.109375 50.5625 29.59375 
Q 53.5625 26.078125 56.59375 19.921875 
L 66.609375 0 
L 56 0 
L 46.6875 18.703125 
Q 43.0625 26.03125 39.671875 28.421875 
Q 36.28125 30.8125 30.421875 30.8125 
L 19.671875 30.8125 
L 19.671875 0 
L 9.8125 0 
L 9.8125 72.90625 
L 32.078125 72.90625 
Q 44.578125 72.90625 50.734375 67.671875 
Q 56.890625 62.453125 56.890625 51.90625 
Q 56.890625 45.015625 53.6875 40.46875 
Q 50.484375 35.9375 44.390625 34.1875 
z
M 19.671875 64.796875 
L 19.671875 38.921875 
L 32.078125 38.921875 
Q 39.203125 38.921875 42.84375 42.21875 
Q 46.484375 45.515625 46.484375 51.90625 
Q 46.484375 58.296875 42.84375 61.546875 
Q 39.203125 64.796875 32.078125 64.796875 
z
" id="DejaVuSans-82"/>
      <path d="M 56.203125 29.59375 
L 56.203125 25.203125 
L 14.890625 25.203125 
Q 15.484375 15.921875 20.484375 11.0625 
Q 25.484375 6.203125 34.421875 6.203125 
Q 39.59375 6.203125 44.453125 7.46875 
Q 49.3125 8.734375 54.109375 11.28125 
L 54.109375 2.78125 
Q 49.265625 0.734375 44.1875 -0.34375 
Q 39.109375 -1.421875 33.890625 -1.421875 
Q 20.796875 -1.421875 13.15625 6.1875 
Q 5.515625 13.8125 5.515625 26.8125 
Q 5.515625 40.234375 12.765625 48.109375 
Q 20.015625 56 32.328125 56 
Q 43.359375 56 49.78125 48.890625 
Q 56.203125 41.796875 56.203125 29.59375 
z
M 47.21875 32.234375 
Q 47.125 39.59375 43.09375 43.984375 
Q 39.0625 48.390625 32.421875 48.390625 
Q 24.90625 48.390625 20.390625 44.140625 
Q 15.875 39.890625 15.1875 32.171875 
z
" id="DejaVuSans-101"/>
      <path d="M 48.78125 52.59375 
L 48.78125 44.1875 
Q 44.96875 46.296875 41.140625 47.34375 
Q 37.3125 48.390625 33.40625 48.390625 
Q 24.65625 48.390625 19.8125 42.84375 
Q 14.984375 37.3125 14.984375 27.296875 
Q 14.984375 17.28125 19.8125 11.734375 
Q 24.65625 6.203125 33.40625 6.203125 
Q 37.3125 6.203125 41.140625 7.25 
Q 44.96875 8.296875 48.78125 10.40625 
L 48.78125 2.09375 
Q 45.015625 0.34375 40.984375 -0.53125 
Q 36.96875 -1.421875 32.421875 -1.421875 
Q 20.0625 -1.421875 12.78125 6.34375 
Q 5.515625 14.109375 5.515625 27.296875 
Q 5.515625 40.671875 12.859375 48.328125 
Q 20.21875 56 33.015625 56 
Q 37.15625 56 41.109375 55.140625 
Q 45.0625 54.296875 48.78125 52.59375 
z
" id="DejaVuSans-99"/>
      <path d="M 34.28125 27.484375 
Q 23.390625 27.484375 19.1875 25 
Q 14.984375 22.515625 14.984375 16.5 
Q 14.984375 11.71875 18.140625 8.90625 
Q 21.296875 6.109375 26.703125 6.109375 
Q 34.1875 6.109375 38.703125 11.40625 
Q 43.21875 16.703125 43.21875 25.484375 
L 43.21875 27.484375 
z
M 52.203125 31.203125 
L 52.203125 0 
L 43.21875 0 
L 43.21875 8.296875 
Q 40.140625 3.328125 35.546875 0.953125 
Q 30.953125 -1.421875 24.3125 -1.421875 
Q 15.921875 -1.421875 10.953125 3.296875 
Q 6 8.015625 6 15.921875 
Q 6 25.140625 12.171875 29.828125 
Q 18.359375 34.515625 30.609375 34.515625 
L 43.21875 34.515625 
L 43.21875 35.40625 
Q 43.21875 41.609375 39.140625 45 
Q 35.0625 48.390625 27.6875 48.390625 
Q 23 48.390625 18.546875 47.265625 
Q 14.109375 46.140625 10.015625 43.890625 
L 10.015625 52.203125 
Q 14.9375 54.109375 19.578125 55.046875 
Q 24.21875 56 28.609375 56 
Q 40.484375 56 46.34375 49.84375 
Q 52.203125 43.703125 52.203125 31.203125 
z
" id="DejaVuSans-97"/>
      <path d="M 9.421875 75.984375 
L 18.40625 75.984375 
L 18.40625 0 
L 9.421875 0 
z
" id="DejaVuSans-108"/>
     </defs>
     <g transform="translate(221.020938 335.860562)scale(0.1 -0.1)">
      <use xlink:href="#DejaVuSans-82"/>
      <use x="69.419922" xlink:href="#DejaVuSans-101"/>
      <use x="130.943359" xlink:href="#DejaVuSans-99"/>
      <use x="185.923828" xlink:href="#DejaVuSans-97"/>
      <use x="247.203125" xlink:href="#DejaVuSans-108"/>
      <use x="274.986328" xlink:href="#DejaVuSans-108"/>
     </g>
    </g>
   </g>
   <g id="matplotlib.axis_2">
    <g id="ytick_1">
     <g id="line2d_7">
      <defs>
       <path d="M 0 0 
L -3.5 0 
" id="md110062e87" style="stroke:#000000;stroke-width:0.8;"/>
      </defs>
      <g>
       <use style="stroke:#000000;stroke-width:0.8;" x="57.6" xlink:href="#md110062e87" y="307.584"/>
      </g>
     </g>
     <g id="text_8">
      <!-- 0.0 -->
      <g transform="translate(34.696875 311.383219)scale(0.1 -0.1)">
       <use xlink:href="#DejaVuSans-48"/>
       <use x="63.623047" xlink:href="#DejaVuSans-46"/>
       <use x="95.410156" xlink:href="#DejaVuSans-48"/>
      </g>
     </g>
    </g>
    <g id="ytick_2">
     <g id="line2d_8">
      <g>
       <use style="stroke:#000000;stroke-width:0.8;" x="57.6" xlink:href="#md110062e87" y="256.896"/>
      </g>
     </g>
     <g id="text_9">
      <!-- 0.2 -->
      <g transform="translate(34.696875 260.695219)scale(0.1 -0.1)">
       <use xlink:href="#DejaVuSans-48"/>
       <use x="63.623047" xlink:href="#DejaVuSans-46"/>
       <use x="95.410156" xlink:href="#DejaVuSans-50"/>
      </g>
     </g>
    </g>
    <g id="ytick_3">
     <g id="line2d_9">
      <g>
       <use style="stroke:#000000;stroke-width:0.8;" x="57.6" xlink:href="#md110062e87" y="206.208"/>
      </g>
     </g>
     <g id="text_10">
      <!-- 0.4 -->
      <g transform="translate(34.696875 210.007219)scale(0.1 -0.1)">
       <use xlink:href="#DejaVuSans-48"/>
       <use x="63.623047" xlink:href="#DejaVuSans-46"/>
       <use x="95.410156" xlink:href="#DejaVuSans-52"/>
      </g>
     </g>
    </g>
    <g id="ytick_4">
     <g id="line2d_10">
      <g>
       <use style="stroke:#000000;stroke-width:0.8;" x="57.6" xlink:href="#md110062e87" y="155.52"/>
      </g>
     </g>
     <g id="text_11">
      <!-- 0.6 -->
      <g transform="translate(34.696875 159.319219)scale(0.1 -0.1)">
       <use xlink:href="#DejaVuSans-48"/>
       <use x="63.623047" xlink:href="#DejaVuSans-46"/>
       <use x="95.410156" xlink:href="#DejaVuSans-54"/>
      </g>
     </g>
    </g>
    <g id="ytick_5">
     <g id="line2d_11">
      <g>
       <use style="stroke:#000000;stroke-width:0.8;" x="57.6" xlink:href="#md110062e87" y="104.832"/>
      </g>
     </g>
     <g id="text_12">
      <!-- 0.8 -->
      <g transform="translate(34.696875 108.631219)scale(0.1 -0.1)">
       <use xlink:href="#DejaVuSans-48"/>
       <use x="63.623047" xlink:href="#DejaVuSans-46"/>
       <use x="95.410156" xlink:href="#DejaVuSans-56"/>
      </g>
     </g>
    </g>
    <g id="ytick_6">
     <g id="line2d_12">
      <g>
       <use style="stroke:#000000;stroke-width:0.8;" x="57.6" xlink:href="#md110062e87" y="54.144"/>
      </g>
     </g>
     <g id="text_13">
      <!-- 1.0 -->
      <g transform="translate(34.696875 57.943219)scale(0.1 -0.1)">
       <use xlink:href="#DejaVuSans-49"/>
       <use x="63.623047" xlink:href="#DejaVuSans-46"/>
       <use x="95.410156" xlink:href="#DejaVuSans-48"/>
      </g>
     </g>
    </g>
    <g id="text_14">
     <!-- Precision -->
     <defs>
      <path d="M 19.671875 64.796875 
L 19.671875 37.40625 
L 32.078125 37.40625 
Q 38.96875 37.40625 42.71875 40.96875 
Q 46.484375 44.53125 46.484375 51.125 
Q 46.484375 57.671875 42.71875 61.234375 
Q 38.96875 64.796875 32.078125 64.796875 
z
M 9.8125 72.90625 
L 32.078125 72.90625 
Q 44.34375 72.90625 50.609375 67.359375 
Q 56.890625 61.8125 56.890625 51.125 
Q 56.890625 40.328125 50.609375 34.8125 
Q 44.34375 29.296875 32.078125 29.296875 
L 19.671875 29.296875 
L 19.671875 0 
L 9.8125 0 
z
" id="DejaVuSans-80"/>
      <path d="M 41.109375 46.296875 
Q 39.59375 47.171875 37.8125 47.578125 
Q 36.03125 48 33.890625 48 
Q 26.265625 48 22.1875 43.046875 
Q 18.109375 38.09375 18.109375 28.8125 
L 18.109375 0 
L 9.078125 0 
L 9.078125 54.6875 
L 18.109375 54.6875 
L 18.109375 46.1875 
Q 20.953125 51.171875 25.484375 53.578125 
Q 30.03125 56 36.53125 56 
Q 37.453125 56 38.578125 55.875 
Q 39.703125 55.765625 41.0625 55.515625 
z
" id="DejaVuSans-114"/>
      <path d="M 9.421875 54.6875 
L 18.40625 54.6875 
L 18.40625 0 
L 9.421875 0 
z
M 9.421875 75.984375 
L 18.40625 75.984375 
L 18.40625 64.59375 
L 9.421875 64.59375 
z
" id="DejaVuSans-105"/>
      <path d="M 44.28125 53.078125 
L 44.28125 44.578125 
Q 40.484375 46.53125 36.375 47.5 
Q 32.28125 48.484375 27.875 48.484375 
Q 21.1875 48.484375 17.84375 46.4375 
Q 14.5 44.390625 14.5 40.28125 
Q 14.5 37.15625 16.890625 35.375 
Q 19.28125 33.59375 26.515625 31.984375 
L 29.59375 31.296875 
Q 39.15625 29.25 43.1875 25.515625 
Q 47.21875 21.78125 47.21875 15.09375 
Q 47.21875 7.46875 41.1875 3.015625 
Q 35.15625 -1.421875 24.609375 -1.421875 
Q 20.21875 -1.421875 15.453125 -0.5625 
Q 10.6875 0.296875 5.421875 2 
L 5.421875 11.28125 
Q 10.40625 8.6875 15.234375 7.390625 
Q 20.0625 6.109375 24.8125 6.109375 
Q 31.15625 6.109375 34.5625 8.28125 
Q 37.984375 10.453125 37.984375 14.40625 
Q 37.984375 18.0625 35.515625 20.015625 
Q 33.0625 21.96875 24.703125 23.78125 
L 21.578125 24.515625 
Q 13.234375 26.265625 9.515625 29.90625 
Q 5.8125 33.546875 5.8125 39.890625 
Q 5.8125 47.609375 11.28125 51.796875 
Q 16.75 56 26.8125 56 
Q 31.78125 56 36.171875 55.265625 
Q 40.578125 54.546875 44.28125 53.078125 
z
" id="DejaVuSans-115"/>
      <path d="M 30.609375 48.390625 
Q 23.390625 48.390625 19.1875 42.75 
Q 14.984375 37.109375 14.984375 27.296875 
Q 14.984375 17.484375 19.15625 11.84375 
Q 23.34375 6.203125 30.609375 6.203125 
Q 37.796875 6.203125 41.984375 11.859375 
Q 46.1875 17.53125 46.1875 27.296875 
Q 46.1875 37.015625 41.984375 42.703125 
Q 37.796875 48.390625 30.609375 48.390625 
z
M 30.609375 56 
Q 42.328125 56 49.015625 48.375 
Q 55.71875 40.765625 55.71875 27.296875 
Q 55.71875 13.875 49.015625 6.21875 
Q 42.328125 -1.421875 30.609375 -1.421875 
Q 18.84375 -1.421875 12.171875 6.21875 
Q 5.515625 13.875 5.515625 27.296875 
Q 5.515625 40.765625 12.171875 48.375 
Q 18.84375 56 30.609375 56 
z
" id="DejaVuSans-111"/>
      <path d="M 54.890625 33.015625 
L 54.890625 0 
L 45.90625 0 
L 45.90625 32.71875 
Q 45.90625 40.484375 42.875 44.328125 
Q 39.84375 48.1875 33.796875 48.1875 
Q 26.515625 48.1875 22.3125 43.546875 
Q 18.109375 38.921875 18.109375 30.90625 
L 18.109375 0 
L 9.078125 0 
L 9.078125 54.6875 
L 18.109375 54.6875 
L 18.109375 46.1875 
Q 21.34375 51.125 25.703125 53.5625 
Q 30.078125 56 35.796875 56 
Q 45.21875 56 50.046875 50.171875 
Q 54.890625 44.34375 54.890625 33.015625 
z
" id="DejaVuSans-110"/>
     </defs>
     <g transform="translate(28.617187 197.032688)rotate(-90)scale(0.1 -0.1)">
      <use xlink:href="#DejaVuSans-80"/>
      <use x="60.287109" xlink:href="#DejaVuSans-114"/>
      <use x="101.369141" xlink:href="#DejaVuSans-101"/>
      <use x="162.892578" xlink:href="#DejaVuSans-99"/>
      <use x="217.873047" xlink:href="#DejaVuSans-105"/>
      <use x="245.65625" xlink:href="#DejaVuSans-115"/>
      <use x="297.755859" xlink:href="#DejaVuSans-105"/>
      <use x="325.539062" xlink:href="#DejaVuSans-111"/>
      <use x="386.720703" xlink:href="#DejaVuSans-110"/>
     </g>
    </g>
   </g>
   <g id="line2d_13">
    <path clip-path="url(#p189d192040)" d="M 414.72 272.124875 
L 331.064742 272.124875 
L 331.064742 256.867098 
L 330.100501 256.867098 
L 330.100501 251.294849 
L 327.801905 251.294849 
L 327.801905 241.274466 
L 326.896102 241.274466 
L 326.857143 225.686293 
L 314.526539 225.686293 
L 314.526539 220.762788 
L 313.104526 220.762788 
L 313.104526 219.291792 
L 308.332018 219.29158 
L 308.332018 217.525253 
L 307.825547 217.525253 
L 307.825547 213.113047 
L 307.562572 213.152267 
L 307.562572 212.863254 
L 299.235032 212.863254 
L 299.235032 210.151788 
L 262.389318 210.151788 
L 262.389318 199.544557 
L 261.951026 199.544557 
L 261.951026 199.151433 
L 261.512734 199.151433 
L 261.512734 199.28462 
L 261.473775 199.20134 
L 260.441355 199.195544 
L 260.421875 196.56939 
L 243.085007 196.565808 
L 243.085007 191.609486 
L 231.660206 191.609486 
L 231.660206 185.810966 
L 229.683024 185.810966 
L 229.683024 185.377239 
L 226.361748 185.37536 
L 226.361748 183.590469 
L 225.446205 183.590469 
L 225.426726 182.565402 
L 222.504782 182.643713 
L 222.504782 182.845842 
L 220.965891 182.845842 
L 220.965891 181.819995 
L 219.43674 181.845506 
L 219.43674 181.512718 
L 218.014728 181.512718 
L 218.014728 181.312505 
L 217.011527 181.332906 
L 217.011527 181.161383 
L 212.570172 181.161383 
L 212.570172 177.453503 
L 212.1611 177.453503 
L 212.1611 176.932687 
L 207.398331 176.932687 
L 207.398331 173.832938 
L 207.076917 173.832938 
L 207.018478 173.199131 
L 203.921217 173.199131 
L 203.921217 171.599532 
L 202.801139 171.66669 
L 202.801139 171.972087 
L 202.508945 171.972087 
L 202.508945 172.099098 
L 202.469985 172.038117 
L 201.914816 172.038117 
L 201.914816 171.746761 
L 201.827158 171.785059 
L 201.476524 171.785059 
L 201.476524 171.573839 
L 201.359647 171.573839 
L 201.359647 171.31303 
L 200.249308 171.31303 
L 200.249308 170.659649 
L 190.840648 170.656195 
L 190.840648 161.022485 
L 189.029043 161.022485 
L 189.029043 158.431426 
L 188.366735 158.431426 
L 188.366735 158.6113 
L 188.288817 158.543464 
L 184.412371 158.543464 
L 184.412371 158.27229 
L 183.711105 158.27229 
L 183.711105 158.151344 
L 183.000098 158.151344 
L 183.000098 157.414181 
L 182.571546 157.414181 
L 182.571546 156.915018 
L 181.694963 156.836694 
L 181.675484 156.716142 
L 181.509907 156.716142 
L 181.509907 156.337932 
L 181.178753 156.337932 
L 181.178753 155.916859 
L 179.727521 155.916859 
L 179.727521 156.046917 
L 179.678822 155.629111 
L 179.630123 155.653389 
L 169.296181 155.653389 
L 169.296181 144.300297 
L 167.270299 144.300297 
L 167.270299 144.569354 
L 167.270299 144.532097 
L 158.251232 144.532097 
L 158.251232 139.620878 
L 157.131154 139.620878 
L 157.131154 139.495776 
L 154.043633 139.567942 
L 154.043633 140.000502 
L 153.527423 140.000502 
L 153.527423 139.324441 
L 153.517683 139.330183 
L 153.361846 139.262876 
L 153.274188 138.732866 
L 148.394541 138.732866 
L 148.394541 135.322412 
L 145.190142 135.322412 
L 145.190142 133.839075 
L 142.511694 133.781609 
L 142.511694 132.658031 
L 139.774806 132.658031 
L 139.774806 132.974064 
L 135.703564 132.974064 
L 135.703564 133.448505 
L 135.703564 133.433584 
L 135.031517 133.509935 
L 134.992558 133.692778 
L 132.937457 133.692778 
L 132.937457 126.872496 
L 131.75894 126.872496 
L 131.75894 126.579201 
L 130.950535 126.579201 
L 130.950535 126.891333 
L 130.551203 126.891333 
L 130.551203 125.531099 
L 128.301306 125.531099 
L 128.301306 125.685546 
L 121.658753 125.685546 
L 121.649013 123.548947 
L 121.123063 123.548947 
L 121.035405 121.824972 
L 120.460756 121.824972 
L 120.460756 120.881368 
L 119.379637 120.881368 
L 119.379637 119.761834 
L 105.851036 119.761834 
L 105.851036 120.496865 
L 101.146706 120.507347 
L 101.107747 122.537174 
L 99.695474 122.537174 
L 99.695474 122.242599 
L 99.471458 122.242599 
L 99.471458 121.114967 
L 99.266922 121.114967 
L 99.266922 118.729041 
L 98.185803 118.729041 
L 98.185803 117.332788 
L 98.059185 117.332788 
L 98.059185 116.82666 
L 98.039705 116.849383 
L 97.202081 116.849383 
L 97.202081 116.682362 
L 85.77728 116.682362 
L 85.77728 113.871472 
L 83.400766 113.871472 
L 83.400766 113.211516 
L 83.16701 113.211516 
L 83.16701 113.057684 
L 83.147531 113.092157 
L 82.728719 113.092157 
L 82.728719 110.45551 
L 82.543662 110.45551 
L 82.436524 110.969458 
L 82.16381 110.969458 
L 82.16381 111.457679 
L 57.6 111.457679 
L 57.6 54.144 
L 57.6 54.144 
" style="fill:none;stroke:#0000ff;stroke-linecap:square;stroke-opacity:0.2;stroke-width:1.5;"/>
   </g>
   <g id="patch_3">
    <path d="M 57.6 307.584 
L 57.6 41.472 
" style="fill:none;stroke:#000000;stroke-linecap:square;stroke-linejoin:miter;stroke-width:0.8;"/>
   </g>
   <g id="patch_4">
    <path d="M 414.72 307.584 
L 414.72 41.472 
" style="fill:none;stroke:#000000;stroke-linecap:square;stroke-linejoin:miter;stroke-width:0.8;"/>
   </g>
   <g id="patch_5">
    <path d="M 57.6 307.584 
L 414.72 307.584 
" style="fill:none;stroke:#000000;stroke-linecap:square;stroke-linejoin:miter;stroke-width:0.8;"/>
   </g>
   <g id="patch_6">
    <path d="M 57.6 41.472 
L 414.72 41.472 
" style="fill:none;stroke:#000000;stroke-linecap:square;stroke-linejoin:miter;stroke-width:0.8;"/>
   </g>
   <g id="text_15">
    <!-- 2-class Precision-Recall curve -->
    <defs>
     <path d="M 4.890625 31.390625 
L 31.203125 31.390625 
L 31.203125 23.390625 
L 4.890625 23.390625 
z
" id="DejaVuSans-45"/>
     <path id="DejaVuSans-32"/>
     <path d="M 8.5 21.578125 
L 8.5 54.6875 
L 17.484375 54.6875 
L 17.484375 21.921875 
Q 17.484375 14.15625 20.5 10.265625 
Q 23.53125 6.390625 29.59375 6.390625 
Q 36.859375 6.390625 41.078125 11.03125 
Q 45.3125 15.671875 45.3125 23.6875 
L 45.3125 54.6875 
L 54.296875 54.6875 
L 54.296875 0 
L 45.3125 0 
L 45.3125 8.40625 
Q 42.046875 3.421875 37.71875 1 
Q 33.40625 -1.421875 27.6875 -1.421875 
Q 18.265625 -1.421875 13.375 4.4375 
Q 8.5 10.296875 8.5 21.578125 
z
M 31.109375 56 
z
" id="DejaVuSans-117"/>
     <path d="M 2.984375 54.6875 
L 12.5 54.6875 
L 29.59375 8.796875 
L 46.6875 54.6875 
L 56.203125 54.6875 
L 35.6875 0 
L 23.484375 0 
z
" id="DejaVuSans-118"/>
    </defs>
    <g transform="translate(147.321562 35.472)scale(0.12 -0.12)">
     <use xlink:href="#DejaVuSans-50"/>
     <use x="63.623047" xlink:href="#DejaVuSans-45"/>
     <use x="99.707031" xlink:href="#DejaVuSans-99"/>
     <use x="154.6875" xlink:href="#DejaVuSans-108"/>
     <use x="182.470703" xlink:href="#DejaVuSans-97"/>
     <use x="243.75" xlink:href="#DejaVuSans-115"/>
     <use x="295.849609" xlink:href="#DejaVuSans-115"/>
     <use x="347.949219" xlink:href="#DejaVuSans-32"/>
     <use x="379.736328" xlink:href="#DejaVuSans-80"/>
     <use x="440.023438" xlink:href="#DejaVuSans-114"/>
     <use x="481.105469" xlink:href="#DejaVuSans-101"/>
     <use x="542.628906" xlink:href="#DejaVuSans-99"/>
     <use x="597.609375" xlink:href="#DejaVuSans-105"/>
     <use x="625.392578" xlink:href="#DejaVuSans-115"/>
     <use x="677.492188" xlink:href="#DejaVuSans-105"/>
     <use x="705.275391" xlink:href="#DejaVuSans-111"/>
     <use x="766.457031" xlink:href="#DejaVuSans-110"/>
     <use x="829.835938" xlink:href="#DejaVuSans-45"/>
     <use x="865.919922" xlink:href="#DejaVuSans-82"/>
     <use x="935.339844" xlink:href="#DejaVuSans-101"/>
     <use x="996.863281" xlink:href="#DejaVuSans-99"/>
     <use x="1051.84375" xlink:href="#DejaVuSans-97"/>
     <use x="1113.123047" xlink:href="#DejaVuSans-108"/>
     <use x="1140.90625" xlink:href="#DejaVuSans-108"/>
     <use x="1168.689453" xlink:href="#DejaVuSans-32"/>
     <use x="1200.476562" xlink:href="#DejaVuSans-99"/>
     <use x="1255.457031" xlink:href="#DejaVuSans-117"/>
     <use x="1318.835938" xlink:href="#DejaVuSans-114"/>
     <use x="1359.949219" xlink:href="#DejaVuSans-118"/>
     <use x="1419.128906" xlink:href="#DejaVuSans-101"/>
    </g>
   </g>
  </g>
 </g>
 <defs>
  <clipPath id="p189d192040">
   <rect height="266.112" width="357.12" x="57.6" y="41.472"/>
  </clipPath>
 </defs>
</svg>
