<?xml version="1.0" encoding="utf-8" standalone="no"?>
<!DOCTYPE svg PUBLIC "-//W3C//DTD SVG 1.1//EN"
  "http://www.w3.org/Graphics/SVG/1.1/DTD/svg11.dtd">
<!-- Created with matplotlib (https://matplotlib.org/) -->
<svg height="281.419375pt" version="1.1" viewBox="0 0 408.37875 281.419375" width="408.37875pt" xmlns="http://www.w3.org/2000/svg" xmlns:xlink="http://www.w3.org/1999/xlink">
 <defs>
  <style type="text/css">
*{stroke-linecap:butt;stroke-linejoin:round;}
  </style>
 </defs>
 <g id="figure_1">
  <g id="patch_1">
   <path d="M -0 281.419375 
L 408.37875 281.419375 
L 408.37875 0 
L -0 0 
z
" style="fill:#ffffff;"/>
  </g>
  <g id="axes_1">
   <g id="patch_2">
    <path d="M 61.93875 241.615 
L 396.73875 241.615 
L 396.73875 24.175 
L 61.93875 24.175 
z
" style="fill:#ffffff;"/>
   </g>
   <g id="patch_3">
    <path clip-path="url(#p9303c835fa)" d="M 77.156932 241.615 
L 92.375114 241.615 
L 92.375114 241.506942 
L 77.156932 241.506942 
z
" style="fill:#df6666;stroke:#ffffff;stroke-linejoin:miter;"/>
   </g>
   <g id="patch_4">
    <path clip-path="url(#p9303c835fa)" d="M 92.375114 241.615 
L 107.593295 241.615 
L 107.593295 241.383447 
L 92.375114 241.383447 
z
" style="fill:#df6666;stroke:#ffffff;stroke-linejoin:miter;"/>
   </g>
   <g id="patch_5">
    <path clip-path="url(#p9303c835fa)" d="M 107.593295 241.615 
L 122.811477 241.615 
L 122.811477 239.531022 
L 107.593295 239.531022 
z
" style="fill:#df6666;stroke:#ffffff;stroke-linejoin:miter;"/>
   </g>
   <g id="patch_6">
    <path clip-path="url(#p9303c835fa)" d="M 122.811477 241.615 
L 138.029659 241.615 
L 138.029659 236.690636 
L 122.811477 236.690636 
z
" style="fill:#df6666;stroke:#ffffff;stroke-linejoin:miter;"/>
   </g>
   <g id="patch_7">
    <path clip-path="url(#p9303c835fa)" d="M 138.029659 241.615 
L 153.247841 241.615 
L 153.247841 212.34668 
L 138.029659 212.34668 
z
" style="fill:#df6666;stroke:#ffffff;stroke-linejoin:miter;"/>
   </g>
   <g id="patch_8">
    <path clip-path="url(#p9303c835fa)" d="M 153.247841 241.615 
L 168.466023 241.615 
L 168.466023 93.189421 
L 153.247841 93.189421 
z
" style="fill:#df6666;stroke:#ffffff;stroke-linejoin:miter;"/>
   </g>
   <g id="patch_9">
    <path clip-path="url(#p9303c835fa)" d="M 168.466023 241.615 
L 183.684205 241.615 
L 183.684205 77.567301 
L 168.466023 77.567301 
z
" style="fill:#df6666;stroke:#ffffff;stroke-linejoin:miter;"/>
   </g>
   <g id="patch_10">
    <path clip-path="url(#p9303c835fa)" d="M 183.684205 241.615 
L 198.902386 241.615 
L 198.902386 103.593877 
L 183.684205 103.593877 
z
" style="fill:#df6666;stroke:#ffffff;stroke-linejoin:miter;"/>
   </g>
   <g id="patch_11">
    <path clip-path="url(#p9303c835fa)" d="M 198.902386 241.615 
L 214.120568 241.615 
L 214.120568 90.487967 
L 198.902386 90.487967 
z
" style="fill:#df6666;stroke:#ffffff;stroke-linejoin:miter;"/>
   </g>
   <g id="patch_12">
    <path clip-path="url(#p9303c835fa)" d="M 214.120568 241.615 
L 229.33875 241.615 
L 229.33875 85.563603 
L 214.120568 85.563603 
z
" style="fill:#df6666;stroke:#ffffff;stroke-linejoin:miter;"/>
   </g>
   <g id="patch_13">
    <path clip-path="url(#p9303c835fa)" d="M 229.33875 241.615 
L 244.556932 241.615 
L 244.556932 168.089152 
L 229.33875 168.089152 
z
" style="fill:#df6666;stroke:#ffffff;stroke-linejoin:miter;"/>
   </g>
   <g id="patch_14">
    <path clip-path="url(#p9303c835fa)" d="M 244.556932 241.615 
L 259.775114 241.615 
L 259.775114 134.282389 
L 244.556932 134.282389 
z
" style="fill:#df6666;stroke:#ffffff;stroke-linejoin:miter;"/>
   </g>
   <g id="patch_15">
    <path clip-path="url(#p9303c835fa)" d="M 259.775114 241.615 
L 274.993295 241.615 
L 274.993295 135.532776 
L 259.775114 135.532776 
z
" style="fill:#df6666;stroke:#ffffff;stroke-linejoin:miter;"/>
   </g>
   <g id="patch_16">
    <path clip-path="url(#p9303c835fa)" d="M 274.993295 241.615 
L 290.211477 241.615 
L 290.211477 34.529286 
L 274.993295 34.529286 
z
" style="fill:#df6666;stroke:#ffffff;stroke-linejoin:miter;"/>
   </g>
   <g id="patch_17">
    <path clip-path="url(#p9303c835fa)" d="M 290.211477 241.615 
L 305.429659 241.615 
L 305.429659 72.025462 
L 290.211477 72.025462 
z
" style="fill:#df6666;stroke:#ffffff;stroke-linejoin:miter;"/>
   </g>
   <g id="patch_18">
    <path clip-path="url(#p9303c835fa)" d="M 305.429659 241.615 
L 320.647841 241.615 
L 320.647841 166.823328 
L 305.429659 166.823328 
z
" style="fill:#df6666;stroke:#ffffff;stroke-linejoin:miter;"/>
   </g>
   <g id="patch_19">
    <path clip-path="url(#p9303c835fa)" d="M 320.647841 241.615 
L 335.866023 241.615 
L 335.866023 167.626045 
L 320.647841 167.626045 
z
" style="fill:#df6666;stroke:#ffffff;stroke-linejoin:miter;"/>
   </g>
   <g id="patch_20">
    <path clip-path="url(#p9303c835fa)" d="M 335.866023 241.615 
L 351.084205 241.615 
L 351.084205 160.417023 
L 335.866023 160.417023 
z
" style="fill:#df6666;stroke:#ffffff;stroke-linejoin:miter;"/>
   </g>
   <g id="patch_21">
    <path clip-path="url(#p9303c835fa)" d="M 351.084205 241.615 
L 366.302386 241.615 
L 366.302386 157.592075 
L 351.084205 157.592075 
z
" style="fill:#df6666;stroke:#ffffff;stroke-linejoin:miter;"/>
   </g>
   <g id="patch_22">
    <path clip-path="url(#p9303c835fa)" d="M 366.302386 241.615 
L 381.520568 241.615 
L 381.520568 79.790211 
L 366.302386 79.790211 
z
" style="fill:#df6666;stroke:#ffffff;stroke-linejoin:miter;"/>
   </g>
   <g id="matplotlib.axis_1">
    <g id="xtick_1">
     <g id="line2d_1">
      <defs>
       <path d="M 0 0 
L 0 3.5 
" id="m6324a5aeeb" style="stroke:#000000;stroke-width:0.8;"/>
      </defs>
      <g>
       <use style="stroke:#000000;stroke-width:0.8;" x="120.637451" xlink:href="#m6324a5aeeb" y="241.615"/>
      </g>
     </g>
     <g id="text_1">
      <!-- 2000 -->
      <defs>
       <path d="M 19.1875 8.296875 
L 53.609375 8.296875 
L 53.609375 0 
L 7.328125 0 
L 7.328125 8.296875 
Q 12.9375 14.109375 22.625 23.890625 
Q 32.328125 33.6875 34.8125 36.53125 
Q 39.546875 41.84375 41.421875 45.53125 
Q 43.3125 49.21875 43.3125 52.78125 
Q 43.3125 58.59375 39.234375 62.25 
Q 35.15625 65.921875 28.609375 65.921875 
Q 23.96875 65.921875 18.8125 64.3125 
Q 13.671875 62.703125 7.8125 59.421875 
L 7.8125 69.390625 
Q 13.765625 71.78125 18.9375 73 
Q 24.125 74.21875 28.421875 74.21875 
Q 39.75 74.21875 46.484375 68.546875 
Q 53.21875 62.890625 53.21875 53.421875 
Q 53.21875 48.921875 51.53125 44.890625 
Q 49.859375 40.875 45.40625 35.40625 
Q 44.1875 33.984375 37.640625 27.21875 
Q 31.109375 20.453125 19.1875 8.296875 
z
" id="DejaVuSans-50"/>
       <path d="M 31.78125 66.40625 
Q 24.171875 66.40625 20.328125 58.90625 
Q 16.5 51.421875 16.5 36.375 
Q 16.5 21.390625 20.328125 13.890625 
Q 24.171875 6.390625 31.78125 6.390625 
Q 39.453125 6.390625 43.28125 13.890625 
Q 47.125 21.390625 47.125 36.375 
Q 47.125 51.421875 43.28125 58.90625 
Q 39.453125 66.40625 31.78125 66.40625 
z
M 31.78125 74.21875 
Q 44.046875 74.21875 50.515625 64.515625 
Q 56.984375 54.828125 56.984375 36.375 
Q 56.984375 17.96875 50.515625 8.265625 
Q 44.046875 -1.421875 31.78125 -1.421875 
Q 19.53125 -1.421875 13.0625 8.265625 
Q 6.59375 17.96875 6.59375 36.375 
Q 6.59375 54.828125 13.0625 64.515625 
Q 19.53125 74.21875 31.78125 74.21875 
z
" id="DejaVuSans-48"/>
      </defs>
      <g transform="translate(107.912451 256.213437)scale(0.1 -0.1)">
       <use xlink:href="#DejaVuSans-50"/>
       <use x="63.623047" xlink:href="#DejaVuSans-48"/>
       <use x="127.246094" xlink:href="#DejaVuSans-48"/>
       <use x="190.869141" xlink:href="#DejaVuSans-48"/>
      </g>
     </g>
    </g>
    <g id="xtick_2">
     <g id="line2d_2">
      <g>
       <use style="stroke:#000000;stroke-width:0.8;" x="193.104984" xlink:href="#m6324a5aeeb" y="241.615"/>
      </g>
     </g>
     <g id="text_2">
      <!-- 2005 -->
      <defs>
       <path d="M 10.796875 72.90625 
L 49.515625 72.90625 
L 49.515625 64.59375 
L 19.828125 64.59375 
L 19.828125 46.734375 
Q 21.96875 47.46875 24.109375 47.828125 
Q 26.265625 48.1875 28.421875 48.1875 
Q 40.625 48.1875 47.75 41.5 
Q 54.890625 34.8125 54.890625 23.390625 
Q 54.890625 11.625 47.5625 5.09375 
Q 40.234375 -1.421875 26.90625 -1.421875 
Q 22.3125 -1.421875 17.546875 -0.640625 
Q 12.796875 0.140625 7.71875 1.703125 
L 7.71875 11.625 
Q 12.109375 9.234375 16.796875 8.0625 
Q 21.484375 6.890625 26.703125 6.890625 
Q 35.15625 6.890625 40.078125 11.328125 
Q 45.015625 15.765625 45.015625 23.390625 
Q 45.015625 31 40.078125 35.4375 
Q 35.15625 39.890625 26.703125 39.890625 
Q 22.75 39.890625 18.8125 39.015625 
Q 14.890625 38.140625 10.796875 36.28125 
z
" id="DejaVuSans-53"/>
      </defs>
      <g transform="translate(180.379984 256.213437)scale(0.1 -0.1)">
       <use xlink:href="#DejaVuSans-50"/>
       <use x="63.623047" xlink:href="#DejaVuSans-48"/>
       <use x="127.246094" xlink:href="#DejaVuSans-48"/>
       <use x="190.869141" xlink:href="#DejaVuSans-53"/>
      </g>
     </g>
    </g>
    <g id="xtick_3">
     <g id="line2d_3">
      <g>
       <use style="stroke:#000000;stroke-width:0.8;" x="265.572516" xlink:href="#m6324a5aeeb" y="241.615"/>
      </g>
     </g>
     <g id="text_3">
      <!-- 2010 -->
      <defs>
       <path d="M 12.40625 8.296875 
L 28.515625 8.296875 
L 28.515625 63.921875 
L 10.984375 60.40625 
L 10.984375 69.390625 
L 28.421875 72.90625 
L 38.28125 72.90625 
L 38.28125 8.296875 
L 54.390625 8.296875 
L 54.390625 0 
L 12.40625 0 
z
" id="DejaVuSans-49"/>
      </defs>
      <g transform="translate(252.847516 256.213437)scale(0.1 -0.1)">
       <use xlink:href="#DejaVuSans-50"/>
       <use x="63.623047" xlink:href="#DejaVuSans-48"/>
       <use x="127.246094" xlink:href="#DejaVuSans-49"/>
       <use x="190.869141" xlink:href="#DejaVuSans-48"/>
      </g>
     </g>
    </g>
    <g id="xtick_4">
     <g id="line2d_4">
      <g>
       <use style="stroke:#000000;stroke-width:0.8;" x="338.040049" xlink:href="#m6324a5aeeb" y="241.615"/>
      </g>
     </g>
     <g id="text_4">
      <!-- 2015 -->
      <g transform="translate(325.315049 256.213437)scale(0.1 -0.1)">
       <use xlink:href="#DejaVuSans-50"/>
       <use x="63.623047" xlink:href="#DejaVuSans-48"/>
       <use x="127.246094" xlink:href="#DejaVuSans-49"/>
       <use x="190.869141" xlink:href="#DejaVuSans-53"/>
      </g>
     </g>
    </g>
    <g id="text_5">
     <!-- Year -->
     <defs>
      <path d="M 55.203125 68.59375 
L 47.40625 68.59375 
L 29 37 
L 10.796875 68.59375 
L 0.796875 68.59375 
L 23.703125 28.90625 
L 23.703125 0 
L 32.296875 0 
L 32.296875 28.90625 
z
" id="ITCFranklinGothicStd-Book-89"/>
      <path d="M 41.203125 15.40625 
C 39 9.40625 34.203125 5.59375 27.59375 5.59375 
C 22.296875 5.59375 17 8.5 14.59375 13.296875 
C 12.703125 17.09375 12.5 20.796875 12.5 24.796875 
L 49.40625 24.796875 
C 49.796875 38.90625 43 52.09375 27.203125 52.09375 
C 12 52.09375 3.703125 39.40625 3.703125 25.40625 
C 3.703125 11.203125 11.59375 -1 27 -1 
C 36.703125 -1 45.59375 4.59375 48.59375 13.90625 
z
M 12.90625 30.59375 
C 13.203125 38.59375 18.703125 46.09375 27.203125 46.09375 
C 36.203125 46.09375 40.90625 39 40.796875 30.59375 
z
" id="ITCFranklinGothicStd-Book-101"/>
      <path d="M 39.296875 22.296875 
C 39.296875 13.296875 32.796875 5.09375 23.203125 5.09375 
C 17.59375 5.09375 12.203125 7.703125 12.203125 14 
C 12.203125 24.5 24.796875 25.59375 32.796875 25.59375 
L 39.296875 25.59375 
z
M 32.703125 31.5 
C 26.40625 31.5 18.90625 31.203125 13.203125 28.5 
C 7.59375 26 3.796875 20.5 3.796875 14.40625 
C 3.796875 4.296875 12 -1 21.5 -1 
C 29.59375 -1 35.703125 2.203125 39.296875 9.5 
L 40.203125 0 
L 48 0 
C 47 3.296875 46.90625 7 46.90625 10.703125 
L 46.90625 30.40625 
C 46.90625 36.203125 46.90625 42.59375 42.703125 47.09375 
C 38.90625 51.5 32.59375 52.09375 27.09375 52.09375 
C 17.796875 52.09375 6.59375 48.796875 5.203125 38.203125 
L 12.5 37 
C 13.90625 44 20 46 26.40625 46 
C 35.40625 46 39.296875 42.59375 39.296875 33.703125 
L 39.296875 31.5 
z
" id="ITCFranklinGothicStd-Book-97"/>
      <path d="M 7.203125 50.796875 
L 7.203125 0 
L 15 0 
L 15 25.59375 
C 15 29.59375 15.40625 32.796875 17.5 36.5 
C 20.40625 41.59375 24.59375 44.5 30.59375 44.5 
L 32.203125 44.5 
L 32.203125 52 
L 29.296875 52.203125 
C 21.09375 52.203125 16.796875 45.796875 14.40625 38.90625 
L 14.203125 38.90625 
L 14.203125 50.796875 
z
" id="ITCFranklinGothicStd-Book-114"/>
     </defs>
     <g transform="translate(215.61875 271.89625)scale(0.14 -0.14)">
      <use xlink:href="#ITCFranklinGothicStd-Book-89"/>
      <use x="55.999985" xlink:href="#ITCFranklinGothicStd-Book-101"/>
      <use x="109.999969" xlink:href="#ITCFranklinGothicStd-Book-97"/>
      <use x="163.999954" xlink:href="#ITCFranklinGothicStd-Book-114"/>
     </g>
    </g>
   </g>
   <g id="matplotlib.axis_2">
    <g id="ytick_1">
     <g id="line2d_5">
      <defs>
       <path d="M 0 0 
L -3.5 0 
" id="m474e9fd2f9" style="stroke:#000000;stroke-width:0.8;"/>
      </defs>
      <g>
       <use style="stroke:#000000;stroke-width:0.8;" x="61.93875" xlink:href="#m474e9fd2f9" y="241.615"/>
      </g>
     </g>
     <g id="text_6">
      <!-- 0 -->
      <g transform="translate(48.57625 245.414219)scale(0.1 -0.1)">
       <use xlink:href="#DejaVuSans-48"/>
      </g>
     </g>
    </g>
    <g id="ytick_2">
     <g id="line2d_6">
      <g>
       <use style="stroke:#000000;stroke-width:0.8;" x="61.93875" xlink:href="#m474e9fd2f9" y="210.741245"/>
      </g>
     </g>
     <g id="text_7">
      <!-- 2000 -->
      <g transform="translate(29.48875 214.540463)scale(0.1 -0.1)">
       <use xlink:href="#DejaVuSans-50"/>
       <use x="63.623047" xlink:href="#DejaVuSans-48"/>
       <use x="127.246094" xlink:href="#DejaVuSans-48"/>
       <use x="190.869141" xlink:href="#DejaVuSans-48"/>
      </g>
     </g>
    </g>
    <g id="ytick_3">
     <g id="line2d_7">
      <g>
       <use style="stroke:#000000;stroke-width:0.8;" x="61.93875" xlink:href="#m474e9fd2f9" y="179.867489"/>
      </g>
     </g>
     <g id="text_8">
      <!-- 4000 -->
      <defs>
       <path d="M 37.796875 64.3125 
L 12.890625 25.390625 
L 37.796875 25.390625 
z
M 35.203125 72.90625 
L 47.609375 72.90625 
L 47.609375 25.390625 
L 58.015625 25.390625 
L 58.015625 17.1875 
L 47.609375 17.1875 
L 47.609375 0 
L 37.796875 0 
L 37.796875 17.1875 
L 4.890625 17.1875 
L 4.890625 26.703125 
z
" id="DejaVuSans-52"/>
      </defs>
      <g transform="translate(29.48875 183.666708)scale(0.1 -0.1)">
       <use xlink:href="#DejaVuSans-52"/>
       <use x="63.623047" xlink:href="#DejaVuSans-48"/>
       <use x="127.246094" xlink:href="#DejaVuSans-48"/>
       <use x="190.869141" xlink:href="#DejaVuSans-48"/>
      </g>
     </g>
    </g>
    <g id="ytick_4">
     <g id="line2d_8">
      <g>
       <use style="stroke:#000000;stroke-width:0.8;" x="61.93875" xlink:href="#m474e9fd2f9" y="148.993734"/>
      </g>
     </g>
     <g id="text_9">
      <!-- 6000 -->
      <defs>
       <path d="M 33.015625 40.375 
Q 26.375 40.375 22.484375 35.828125 
Q 18.609375 31.296875 18.609375 23.390625 
Q 18.609375 15.53125 22.484375 10.953125 
Q 26.375 6.390625 33.015625 6.390625 
Q 39.65625 6.390625 43.53125 10.953125 
Q 47.40625 15.53125 47.40625 23.390625 
Q 47.40625 31.296875 43.53125 35.828125 
Q 39.65625 40.375 33.015625 40.375 
z
M 52.59375 71.296875 
L 52.59375 62.3125 
Q 48.875 64.0625 45.09375 64.984375 
Q 41.3125 65.921875 37.59375 65.921875 
Q 27.828125 65.921875 22.671875 59.328125 
Q 17.53125 52.734375 16.796875 39.40625 
Q 19.671875 43.65625 24.015625 45.921875 
Q 28.375 48.1875 33.59375 48.1875 
Q 44.578125 48.1875 50.953125 41.515625 
Q 57.328125 34.859375 57.328125 23.390625 
Q 57.328125 12.15625 50.6875 5.359375 
Q 44.046875 -1.421875 33.015625 -1.421875 
Q 20.359375 -1.421875 13.671875 8.265625 
Q 6.984375 17.96875 6.984375 36.375 
Q 6.984375 53.65625 15.1875 63.9375 
Q 23.390625 74.21875 37.203125 74.21875 
Q 40.921875 74.21875 44.703125 73.484375 
Q 48.484375 72.75 52.59375 71.296875 
z
" id="DejaVuSans-54"/>
      </defs>
      <g transform="translate(29.48875 152.792953)scale(0.1 -0.1)">
       <use xlink:href="#DejaVuSans-54"/>
       <use x="63.623047" xlink:href="#DejaVuSans-48"/>
       <use x="127.246094" xlink:href="#DejaVuSans-48"/>
       <use x="190.869141" xlink:href="#DejaVuSans-48"/>
      </g>
     </g>
    </g>
    <g id="ytick_5">
     <g id="line2d_9">
      <g>
       <use style="stroke:#000000;stroke-width:0.8;" x="61.93875" xlink:href="#m474e9fd2f9" y="118.119978"/>
      </g>
     </g>
     <g id="text_10">
      <!-- 8000 -->
      <defs>
       <path d="M 31.78125 34.625 
Q 24.75 34.625 20.71875 30.859375 
Q 16.703125 27.09375 16.703125 20.515625 
Q 16.703125 13.921875 20.71875 10.15625 
Q 24.75 6.390625 31.78125 6.390625 
Q 38.8125 6.390625 42.859375 10.171875 
Q 46.921875 13.96875 46.921875 20.515625 
Q 46.921875 27.09375 42.890625 30.859375 
Q 38.875 34.625 31.78125 34.625 
z
M 21.921875 38.8125 
Q 15.578125 40.375 12.03125 44.71875 
Q 8.5 49.078125 8.5 55.328125 
Q 8.5 64.0625 14.71875 69.140625 
Q 20.953125 74.21875 31.78125 74.21875 
Q 42.671875 74.21875 48.875 69.140625 
Q 55.078125 64.0625 55.078125 55.328125 
Q 55.078125 49.078125 51.53125 44.71875 
Q 48 40.375 41.703125 38.8125 
Q 48.828125 37.15625 52.796875 32.3125 
Q 56.78125 27.484375 56.78125 20.515625 
Q 56.78125 9.90625 50.3125 4.234375 
Q 43.84375 -1.421875 31.78125 -1.421875 
Q 19.734375 -1.421875 13.25 4.234375 
Q 6.78125 9.90625 6.78125 20.515625 
Q 6.78125 27.484375 10.78125 32.3125 
Q 14.796875 37.15625 21.921875 38.8125 
z
M 18.3125 54.390625 
Q 18.3125 48.734375 21.84375 45.5625 
Q 25.390625 42.390625 31.78125 42.390625 
Q 38.140625 42.390625 41.71875 45.5625 
Q 45.3125 48.734375 45.3125 54.390625 
Q 45.3125 60.0625 41.71875 63.234375 
Q 38.140625 66.40625 31.78125 66.40625 
Q 25.390625 66.40625 21.84375 63.234375 
Q 18.3125 60.0625 18.3125 54.390625 
z
" id="DejaVuSans-56"/>
      </defs>
      <g transform="translate(29.48875 121.919197)scale(0.1 -0.1)">
       <use xlink:href="#DejaVuSans-56"/>
       <use x="63.623047" xlink:href="#DejaVuSans-48"/>
       <use x="127.246094" xlink:href="#DejaVuSans-48"/>
       <use x="190.869141" xlink:href="#DejaVuSans-48"/>
      </g>
     </g>
    </g>
    <g id="ytick_6">
     <g id="line2d_10">
      <g>
       <use style="stroke:#000000;stroke-width:0.8;" x="61.93875" xlink:href="#m474e9fd2f9" y="87.246223"/>
      </g>
     </g>
     <g id="text_11">
      <!-- 10000 -->
      <g transform="translate(23.12625 91.045442)scale(0.1 -0.1)">
       <use xlink:href="#DejaVuSans-49"/>
       <use x="63.623047" xlink:href="#DejaVuSans-48"/>
       <use x="127.246094" xlink:href="#DejaVuSans-48"/>
       <use x="190.869141" xlink:href="#DejaVuSans-48"/>
       <use x="254.492188" xlink:href="#DejaVuSans-48"/>
      </g>
     </g>
    </g>
    <g id="ytick_7">
     <g id="line2d_11">
      <g>
       <use style="stroke:#000000;stroke-width:0.8;" x="61.93875" xlink:href="#m474e9fd2f9" y="56.372468"/>
      </g>
     </g>
     <g id="text_12">
      <!-- 12000 -->
      <g transform="translate(23.12625 60.171686)scale(0.1 -0.1)">
       <use xlink:href="#DejaVuSans-49"/>
       <use x="63.623047" xlink:href="#DejaVuSans-50"/>
       <use x="127.246094" xlink:href="#DejaVuSans-48"/>
       <use x="190.869141" xlink:href="#DejaVuSans-48"/>
       <use x="254.492188" xlink:href="#DejaVuSans-48"/>
      </g>
     </g>
    </g>
    <g id="ytick_8">
     <g id="line2d_12">
      <g>
       <use style="stroke:#000000;stroke-width:0.8;" x="61.93875" xlink:href="#m474e9fd2f9" y="25.498712"/>
      </g>
     </g>
     <g id="text_13">
      <!-- 14000 -->
      <g transform="translate(23.12625 29.297931)scale(0.1 -0.1)">
       <use xlink:href="#DejaVuSans-49"/>
       <use x="63.623047" xlink:href="#DejaVuSans-52"/>
       <use x="127.246094" xlink:href="#DejaVuSans-48"/>
       <use x="190.869141" xlink:href="#DejaVuSans-48"/>
       <use x="254.492188" xlink:href="#DejaVuSans-48"/>
      </g>
     </g>
    </g>
    <g id="text_14">
     <!-- Number of Non-renewals -->
     <defs>
      <path d="M 58.296875 68.59375 
L 51.09375 68.59375 
L 51.09375 12.703125 
L 18.59375 68.59375 
L 7.796875 68.59375 
L 7.796875 0 
L 15 0 
L 15 59.796875 
L 49.90625 0 
L 58.296875 0 
z
" id="ITCFranklinGothicStd-Book-78"/>
      <path d="M 46.796875 50.796875 
L 39 50.796875 
L 39 23.796875 
C 39 19 38.203125 14.796875 35.09375 11 
C 32.40625 7.703125 28.796875 5.796875 24.59375 5.796875 
C 21.40625 5.796875 17.90625 7.796875 16.40625 10.59375 
C 14.90625 13.203125 14.703125 17 14.703125 19.90625 
L 14.703125 50.796875 
L 6.90625 50.796875 
L 6.90625 19.90625 
C 6.90625 14.703125 7.5 8.90625 10.90625 4.703125 
C 14.09375 0.796875 18.90625 -1 23.90625 -1 
C 30.90625 -1 37 3.796875 39.5 10.09375 
L 39.703125 10.09375 
L 39.703125 0 
L 46.796875 0 
z
" id="ITCFranklinGothicStd-Book-117"/>
      <path d="M 6.796875 50.796875 
L 6.796875 0 
L 14.59375 0 
L 14.59375 29.09375 
C 14.59375 33.296875 15.09375 37.40625 17.703125 40.703125 
C 19.796875 43.40625 23.40625 45.703125 26.90625 45.703125 
C 30.296875 45.703125 33.59375 43.796875 35.40625 40.796875 
C 36.90625 38.296875 37.09375 35 37.09375 32.203125 
L 37.09375 0 
L 44.90625 0 
L 44.90625 27.40625 
C 44.90625 32.203125 44.796875 35.90625 47.703125 40 
C 50 43.296875 53.59375 45.703125 57.5 45.703125 
C 61 45.703125 64.296875 43.703125 66 40.40625 
C 67.59375 37.296875 67.40625 33.703125 67.40625 30.296875 
L 67.40625 0 
L 75.203125 0 
L 75.203125 30.296875 
C 75.203125 35 75.296875 40.59375 72.796875 44.796875 
C 70.203125 49.203125 65.203125 52.09375 60 52.09375 
C 52.203125 52.09375 46.40625 47 43.59375 40 
C 42 47.09375 36.703125 52.09375 29.296875 52.09375 
C 22.203125 52.09375 16.703125 47.09375 14.09375 41 
L 13.90625 41 
L 13.90625 50.796875 
z
" id="ITCFranklinGothicStd-Book-109"/>
      <path d="M 41.296875 24.796875 
C 41.296875 16.40625 38.296875 5.296875 27.90625 5.296875 
C 23.59375 5.296875 19.296875 7.59375 16.90625 11.09375 
C 14.90625 14.09375 14 17.90625 14 23.09375 
L 14 29.203125 
C 14 37.703125 19.90625 45.796875 27.90625 45.796875 
C 38.703125 45.796875 41.296875 33.296875 41.296875 24.796875 
z
M 12.90625 8.703125 
C 16 3 21.796875 -1 28.5 -1 
C 43.5 -1 49.703125 13.203125 49.703125 26.09375 
C 49.703125 32 48.296875 38.796875 44.90625 43.796875 
C 41.5 48.796875 35.5 52.09375 29.296875 52.09375 
C 22.09375 52.09375 17.59375 48.40625 14.40625 42.40625 
L 14 42.40625 
L 14 68.59375 
L 6.203125 68.59375 
L 6.203125 0 
L 10 0 
z
" id="ITCFranklinGothicStd-Book-98"/>
      <path id="ITCFranklinGothicStd-Book-32"/>
      <path d="M 4.203125 25.796875 
C 4.203125 12.40625 11 -1 26.203125 -1 
C 41.59375 -1 49.796875 11.5 49.796875 25.703125 
C 49.796875 39.09375 42.40625 52.09375 27.5 52.09375 
C 12.203125 52.09375 4.203125 39.90625 4.203125 25.796875 
z
M 12.90625 25.796875 
C 12.90625 29.90625 13.5 34.796875 15.40625 38.5 
C 17.59375 42.90625 22 45.703125 26.90625 45.703125 
C 31.296875 45.703125 35.5 43.40625 37.90625 39.703125 
C 40.5 35.59375 41.09375 30.59375 41.09375 25.796875 
C 41.09375 21.40625 40.703125 16.796875 38.59375 12.796875 
C 36.203125 8.203125 32.09375 5.5 26.90625 5.5 
C 22.296875 5.5 18 8 15.796875 11.90625 
C 13.59375 15.90625 12.90625 21.203125 12.90625 25.796875 
z
" id="ITCFranklinGothicStd-Book-111"/>
      <path d="M 29.59375 50.796875 
L 17.796875 50.796875 
C 17.703125 57.203125 17.59375 63.40625 26.203125 63.40625 
C 28.40625 63.40625 30.5 63 32.59375 62.59375 
L 32.59375 68.90625 
C 29.203125 69.5 25.5 69.703125 23.5 69.703125 
C 12.90625 69.703125 9.59375 60.796875 10 50.796875 
L 1 50.796875 
L 1 44.59375 
L 10 44.59375 
L 10 0 
L 17.796875 0 
L 17.796875 44.59375 
L 29.59375 44.59375 
z
" id="ITCFranklinGothicStd-Book-102"/>
      <path d="M 14.296875 50.796875 
L 6.90625 50.796875 
L 6.90625 0 
L 14.703125 0 
L 14.703125 26.59375 
C 14.703125 31.703125 15.40625 36.296875 18.703125 40.296875 
C 21.40625 43.5 25.09375 45.40625 29.203125 45.40625 
C 32.5 45.40625 36.203125 43.703125 37.90625 40.796875 
C 39.40625 38.203125 39.296875 34.40625 39.296875 31.40625 
L 39.296875 0 
L 47.09375 0 
L 47.09375 28.09375 
C 47.09375 33.09375 47.296875 39.90625 44.703125 44.203125 
C 41.5 49.5 36.40625 52.09375 30.296875 52.09375 
C 23.09375 52.09375 17.40625 47.703125 14.5 41.40625 
L 14.296875 41.40625 
z
" id="ITCFranklinGothicStd-Book-110"/>
      <path d="M 21.296875 28.796875 
L 0 28.796875 
L 0 22.59375 
L 21.296875 22.59375 
z
" id="ITCFranklinGothicStd-Book-45"/>
      <path d="M 65.203125 50.796875 
L 58.796875 50.796875 
L 47.40625 12.796875 
L 36 50.796875 
L 30.296875 50.796875 
L 19.703125 12.90625 
L 8.703125 50.796875 
L 0.796875 50.796875 
L 16 0 
L 22.5 0 
L 32.90625 37.703125 
L 44.203125 0 
L 50.59375 0 
z
" id="ITCFranklinGothicStd-Book-119"/>
      <path d="M 15.90625 0 
L 15.90625 68.59375 
L 8.09375 68.59375 
L 8.09375 0 
z
" id="ITCFranklinGothicStd-Book-108"/>
      <path d="M 4.296875 13.5 
C 6.90625 3.09375 16.703125 -1 26.59375 -1 
C 36.5 -1 47.703125 3.203125 47.703125 14.703125 
C 47.703125 19.296875 45.59375 23.5 41.59375 26.203125 
C 38.5 28.296875 34.703125 29 31 29.703125 
L 23.59375 31 
C 19.09375 31.703125 14.5 32.90625 14.5 38.40625 
C 14.5 44 20.703125 45.796875 25.296875 45.796875 
C 31.09375 45.796875 36.296875 43.40625 38.296875 37.796875 
L 45.5 39.296875 
C 43 48.703125 34.5 52.09375 25.40625 52.09375 
C 16.09375 52.09375 6.40625 47.703125 6.40625 37.203125 
C 6.40625 28.203125 13.5 24.59375 21.296875 23.09375 
L 29.59375 21.59375 
C 34 20.796875 39.5 19.296875 39.5 13.90625 
C 39.5 7.40625 32.59375 5.5 27.203125 5.5 
C 21.09375 5.5 13 8.09375 11.90625 15 
z
" id="ITCFranklinGothicStd-Book-115"/>
     </defs>
     <g transform="translate(16.803125 207.935)rotate(-90)scale(0.14 -0.14)">
      <use xlink:href="#ITCFranklinGothicStd-Book-78"/>
      <use x="65.999985" xlink:href="#ITCFranklinGothicStd-Book-117"/>
      <use x="119.999969" xlink:href="#ITCFranklinGothicStd-Book-109"/>
      <use x="201.999954" xlink:href="#ITCFranklinGothicStd-Book-98"/>
      <use x="255.999939" xlink:href="#ITCFranklinGothicStd-Book-101"/>
      <use x="309.999924" xlink:href="#ITCFranklinGothicStd-Book-114"/>
      <use x="341.999908" xlink:href="#ITCFranklinGothicStd-Book-32"/>
      <use x="371.999893" xlink:href="#ITCFranklinGothicStd-Book-111"/>
      <use x="425.999878" xlink:href="#ITCFranklinGothicStd-Book-102"/>
      <use x="455.999863" xlink:href="#ITCFranklinGothicStd-Book-32"/>
      <use x="485.999847" xlink:href="#ITCFranklinGothicStd-Book-78"/>
      <use x="551.999832" xlink:href="#ITCFranklinGothicStd-Book-111"/>
      <use x="605.999817" xlink:href="#ITCFranklinGothicStd-Book-110"/>
      <use x="659.999802" xlink:href="#ITCFranklinGothicStd-Book-45"/>
      <use x="681.999786" xlink:href="#ITCFranklinGothicStd-Book-114"/>
      <use x="713.999771" xlink:href="#ITCFranklinGothicStd-Book-101"/>
      <use x="767.999756" xlink:href="#ITCFranklinGothicStd-Book-110"/>
      <use x="821.999741" xlink:href="#ITCFranklinGothicStd-Book-101"/>
      <use x="875.999725" xlink:href="#ITCFranklinGothicStd-Book-119"/>
      <use x="941.99971" xlink:href="#ITCFranklinGothicStd-Book-97"/>
      <use x="995.999695" xlink:href="#ITCFranklinGothicStd-Book-108"/>
      <use x="1019.99968" xlink:href="#ITCFranklinGothicStd-Book-115"/>
     </g>
    </g>
   </g>
   <g id="patch_23">
    <path d="M 61.93875 241.615 
L 61.93875 24.175 
" style="fill:none;stroke:#000000;stroke-linecap:square;stroke-linejoin:miter;stroke-width:0.8;"/>
   </g>
   <g id="patch_24">
    <path d="M 396.73875 241.615 
L 396.73875 24.175 
" style="fill:none;stroke:#000000;stroke-linecap:square;stroke-linejoin:miter;stroke-width:0.8;"/>
   </g>
   <g id="patch_25">
    <path d="M 61.93875 241.615 
L 396.73875 241.615 
" style="fill:none;stroke:#000000;stroke-linecap:square;stroke-linejoin:miter;stroke-width:0.8;"/>
   </g>
   <g id="patch_26">
    <path d="M 61.93875 24.175 
L 396.73875 24.175 
" style="fill:none;stroke:#000000;stroke-linecap:square;stroke-linejoin:miter;stroke-width:0.8;"/>
   </g>
   <g id="text_15">
    <!-- NUMBER OF LICENSE NON-RENEWALS PER YEAR -->
    <defs>
     <path d="M 55.703125 68.59375 
L 48.5 68.59375 
L 48.5 25.203125 
C 48.5 20.5 48.5 15.40625 45.203125 11.5 
C 42.296875 8 37.296875 6.59375 32.90625 6.59375 
C 28.203125 6.59375 22.40625 7.796875 19.59375 11.90625 
C 17.09375 15.5 17 21.09375 17 25.203125 
L 17 68.59375 
L 8.40625 68.59375 
L 8.40625 25.203125 
C 8.40625 18.09375 8.796875 11.203125 13.796875 5.59375 
C 18.40625 0.40625 25.5 -1 32.203125 -1 
C 39.203125 -1 46.09375 1.09375 50.703125 6.59375 
C 55.296875 12.09375 55.703125 18.40625 55.703125 25.203125 
z
" id="ITCFranklinGothicStd-Book-85"/>
     <path d="M 74.203125 68.59375 
L 61.59375 68.59375 
L 41.40625 13.703125 
L 20.703125 68.59375 
L 7.90625 68.59375 
L 7.90625 0 
L 15.09375 0 
L 15.09375 59.90625 
L 15.5 59.90625 
L 37.703125 0 
L 43.5 0 
L 65.203125 59.90625 
L 65.59375 59.90625 
L 65.59375 0 
L 74.203125 0 
z
" id="ITCFranklinGothicStd-Book-77"/>
     <path d="M 16.703125 7.296875 
L 16.703125 32.59375 
L 32.296875 32.59375 
C 36.203125 32.59375 40.5 32.59375 43.796875 30 
C 47 27.5 48.796875 23.40625 48.796875 19.296875 
C 48.796875 15.59375 47.40625 12.296875 44.5 10.09375 
C 41.5 7.703125 37.296875 7.296875 33.5 7.296875 
z
M 16.703125 39.203125 
L 16.703125 61.59375 
L 32.203125 61.59375 
C 35.59375 61.59375 38.703125 61.59375 41.703125 59.90625 
C 45.203125 57.796875 46.796875 54.90625 46.796875 50.796875 
C 46.796875 47.5 45.296875 43.796875 42.5 41.796875 
C 39 39.09375 34.296875 39.203125 30 39.203125 
z
M 33.90625 0 
C 40.203125 0 45.59375 0.296875 50.796875 4.40625 
C 55.40625 8 57.40625 13.09375 57.40625 18.90625 
C 57.40625 27.703125 51.703125 34.5 43.203125 36.296875 
L 43.203125 36.5 
C 50.703125 38.296875 55.296875 44.09375 55.296875 51.90625 
C 55.296875 57.5 52.703125 62.296875 48.09375 65.40625 
C 43.5 68.40625 39.296875 68.59375 34 68.59375 
L 8.09375 68.59375 
L 8.09375 0 
z
" id="ITCFranklinGothicStd-Book-66"/>
     <path d="M 52.90625 7.40625 
L 17.09375 7.40625 
L 17.09375 32.5 
L 44.703125 32.5 
L 44.703125 39.40625 
L 17.09375 39.40625 
L 17.09375 61.203125 
L 51.90625 61.203125 
L 51.90625 68.59375 
L 8.5 68.59375 
L 8.5 0 
L 52.90625 0 
z
" id="ITCFranklinGothicStd-Book-69"/>
     <path d="M 57.40625 0 
L 43.90625 31.796875 
C 51.90625 34 56.703125 41.296875 56.703125 49.40625 
C 56.703125 55.203125 54 60.90625 49.40625 64.40625 
C 44.796875 67.90625 39.40625 68.59375 33.796875 68.59375 
L 8.09375 68.59375 
L 8.09375 0 
L 16.703125 0 
L 16.703125 29.703125 
L 35.703125 29.703125 
L 48.40625 0 
z
M 16.703125 36.703125 
L 16.703125 61.203125 
L 33.796875 61.203125 
C 37.40625 61.203125 40.296875 61.09375 43.296875 59 
C 46.59375 56.796875 48.09375 53.5 48.09375 49.5 
C 48.09375 46.203125 47 42.90625 44.59375 40.5 
C 41.203125 37 37.40625 36.703125 32.796875 36.703125 
z
" id="ITCFranklinGothicStd-Book-82"/>
     <path d="M 33.09375 -1 
C 52.59375 -1 61.203125 18.296875 61.203125 35.09375 
C 61.203125 52 52.296875 69.59375 33 69.59375 
C 13.203125 69.59375 4.796875 50.90625 4.796875 33.796875 
C 4.796875 16.59375 13.40625 -1 33.09375 -1 
z
M 33.09375 6 
C 18.59375 6 13.796875 21.90625 13.796875 33.703125 
C 13.796875 46 18 62.5 33.296875 62.5 
C 39.703125 62.5 45 58.703125 48.09375 53.296875 
C 51.203125 47.796875 52.203125 40.703125 52.203125 34.59375 
C 52.203125 22.796875 47.796875 6 33.09375 6 
z
" id="ITCFranklinGothicStd-Book-79"/>
     <path d="M 16.796875 0 
L 16.796875 32.5 
L 44.5 32.5 
L 44.5 39.40625 
L 16.796875 39.40625 
L 16.796875 61.203125 
L 50.203125 61.203125 
L 50.203125 68.59375 
L 8.203125 68.59375 
L 8.203125 0 
z
" id="ITCFranklinGothicStd-Book-70"/>
     <path d="M 48.90625 7.59375 
L 17 7.59375 
L 17 68.59375 
L 8.40625 68.59375 
L 8.40625 0 
L 48.90625 0 
z
" id="ITCFranklinGothicStd-Book-76"/>
     <path d="M 17.296875 0 
L 17.296875 68.59375 
L 8.703125 68.59375 
L 8.703125 0 
z
" id="ITCFranklinGothicStd-Book-73"/>
     <path d="M 49.703125 23.09375 
C 47.5 14.09375 42.59375 6.203125 32.09375 6.203125 
C 24.90625 6.203125 19.59375 11.09375 16.796875 17.203125 
C 14.5 22.203125 13.59375 28.90625 13.59375 34.296875 
C 13.59375 46.203125 17.59375 62.40625 32.5 62.40625 
C 42.703125 62.40625 47 54.90625 49.40625 46.203125 
L 57.5 47.703125 
C 54.703125 60.296875 46.59375 69.59375 32.796875 69.59375 
C 12.90625 69.59375 4.203125 52.703125 4.203125 35 
C 4.203125 18.09375 12.296875 -1 32.09375 -1 
C 46.59375 -1 54.296875 8.40625 57.5 21.40625 
z
" id="ITCFranklinGothicStd-Book-67"/>
     <path d="M 4.296875 18.5 
C 8.90625 5.203125 18.09375 -1 32.09375 -1 
C 38.296875 -1 45 0.203125 50 4 
C 55 7.796875 57.703125 13.40625 57.703125 19.59375 
C 57.703125 25 55.59375 29.703125 51.296875 33.203125 
C 47.796875 36.203125 43.296875 37.5 38.796875 38.5 
L 28.5 41 
C 22.09375 42.5 16.09375 44.203125 16.09375 51.90625 
C 16.09375 59.40625 24.296875 62.796875 30.796875 62.796875 
C 38.09375 62.796875 46.09375 58.203125 47.59375 50.703125 
L 55.40625 52.796875 
C 51.703125 63.90625 42.5 69.59375 31 69.59375 
C 19.09375 69.59375 7.703125 63.90625 7.703125 50.703125 
C 7.703125 45.90625 9.703125 41.203125 13.296875 38 
C 16.90625 34.703125 21.09375 33.59375 25.703125 32.5 
L 37.09375 29.703125 
C 43.09375 28.203125 48.796875 25.40625 48.796875 18.5 
C 48.796875 15.203125 47.203125 11.703125 44.59375 9.703125 
C 41.40625 7.203125 36.40625 6.296875 32.296875 6.296875 
C 22.703125 6.296875 14.796875 10.703125 12 20.203125 
z
" id="ITCFranklinGothicStd-Book-83"/>
     <path d="M 81.09375 68.59375 
L 73.59375 68.59375 
L 60.90625 13 
L 60.703125 13 
L 45.09375 68.59375 
L 38.203125 68.59375 
L 23.703125 13 
L 23.5 13 
L 9.796875 68.59375 
L 1 68.59375 
L 18.40625 0 
L 27.09375 0 
L 41.09375 53.203125 
L 56 0 
L 64.59375 0 
z
" id="ITCFranklinGothicStd-Book-87"/>
     <path d="M 32.90625 68.59375 
L 23 68.59375 
L 0.796875 0 
L 8 0 
L 14.09375 20 
L 39.5 20 
L 46.40625 0 
L 55.203125 0 
z
M 37.59375 26.5 
L 16.5 26.5 
L 27.09375 59.40625 
z
" id="ITCFranklinGothicStd-Book-65"/>
     <path d="M 15 0 
L 15 27.90625 
L 30.40625 27.90625 
C 36.59375 27.90625 42.296875 29 46.90625 33.5 
C 50.703125 37.203125 52.90625 42.703125 52.90625 48 
C 52.90625 53.796875 50.40625 60.203125 45.90625 64 
C 41.203125 67.90625 35.296875 68.59375 29.40625 68.59375 
L 6.40625 68.59375 
L 6.40625 0 
z
M 15 35 
L 15 61.40625 
L 30.09375 61.40625 
C 33.59375 61.40625 36.5 61.09375 39.40625 58.796875 
C 42.703125 56.203125 44.203125 52.09375 44.203125 48 
C 44.203125 44.5 42.90625 41 40.40625 38.5 
C 37.203125 35.40625 33.59375 35 29.5 35 
z
" id="ITCFranklinGothicStd-Book-80"/>
    </defs>
    <g transform="translate(57.49875 18.175)scale(0.16 -0.16)">
     <use xlink:href="#ITCFranklinGothicStd-Book-78"/>
     <use x="65.999985" xlink:href="#ITCFranklinGothicStd-Book-85"/>
     <use x="129.999969" xlink:href="#ITCFranklinGothicStd-Book-77"/>
     <use x="211.999954" xlink:href="#ITCFranklinGothicStd-Book-66"/>
     <use x="273.999939" xlink:href="#ITCFranklinGothicStd-Book-69"/>
     <use x="329.999924" xlink:href="#ITCFranklinGothicStd-Book-82"/>
     <use x="391.999908" xlink:href="#ITCFranklinGothicStd-Book-32"/>
     <use x="421.999893" xlink:href="#ITCFranklinGothicStd-Book-79"/>
     <use x="487.999878" xlink:href="#ITCFranklinGothicStd-Book-70"/>
     <use x="535.999863" xlink:href="#ITCFranklinGothicStd-Book-32"/>
     <use x="565.999847" xlink:href="#ITCFranklinGothicStd-Book-76"/>
     <use x="615.999832" xlink:href="#ITCFranklinGothicStd-Book-73"/>
     <use x="641.999817" xlink:href="#ITCFranklinGothicStd-Book-67"/>
     <use x="703.999802" xlink:href="#ITCFranklinGothicStd-Book-69"/>
     <use x="759.999786" xlink:href="#ITCFranklinGothicStd-Book-78"/>
     <use x="825.999771" xlink:href="#ITCFranklinGothicStd-Book-83"/>
     <use x="887.999756" xlink:href="#ITCFranklinGothicStd-Book-69"/>
     <use x="943.999741" xlink:href="#ITCFranklinGothicStd-Book-32"/>
     <use x="973.999725" xlink:href="#ITCFranklinGothicStd-Book-78"/>
     <use x="1039.99971" xlink:href="#ITCFranklinGothicStd-Book-79"/>
     <use x="1105.999695" xlink:href="#ITCFranklinGothicStd-Book-78"/>
     <use x="1171.99968" xlink:href="#ITCFranklinGothicStd-Book-45"/>
     <use x="1193.999664" xlink:href="#ITCFranklinGothicStd-Book-82"/>
     <use x="1255.999649" xlink:href="#ITCFranklinGothicStd-Book-69"/>
     <use x="1311.999634" xlink:href="#ITCFranklinGothicStd-Book-78"/>
     <use x="1377.999619" xlink:href="#ITCFranklinGothicStd-Book-69"/>
     <use x="1433.999603" xlink:href="#ITCFranklinGothicStd-Book-87"/>
     <use x="1515.999588" xlink:href="#ITCFranklinGothicStd-Book-65"/>
     <use x="1571.999573" xlink:href="#ITCFranklinGothicStd-Book-76"/>
     <use x="1621.999557" xlink:href="#ITCFranklinGothicStd-Book-83"/>
     <use x="1683.999542" xlink:href="#ITCFranklinGothicStd-Book-32"/>
     <use x="1713.999527" xlink:href="#ITCFranklinGothicStd-Book-80"/>
     <use x="1769.999512" xlink:href="#ITCFranklinGothicStd-Book-69"/>
     <use x="1825.999496" xlink:href="#ITCFranklinGothicStd-Book-82"/>
     <use x="1887.999481" xlink:href="#ITCFranklinGothicStd-Book-32"/>
     <use x="1917.999466" xlink:href="#ITCFranklinGothicStd-Book-89"/>
     <use x="1973.999451" xlink:href="#ITCFranklinGothicStd-Book-69"/>
     <use x="2029.999435" xlink:href="#ITCFranklinGothicStd-Book-65"/>
     <use x="2085.99942" xlink:href="#ITCFranklinGothicStd-Book-82"/>
    </g>
   </g>
  </g>
 </g>
 <defs>
  <clipPath id="p9303c835fa">
   <rect height="217.44" width="334.8" x="61.93875" y="24.175"/>
  </clipPath>
 </defs>
</svg>
