<?xml version="1.0" encoding="utf-8" standalone="no"?>
<!DOCTYPE svg PUBLIC "-//W3C//DTD SVG 1.1//EN"
  "http://www.w3.org/Graphics/SVG/1.1/DTD/svg11.dtd">
<!-- Created with matplotlib (https://matplotlib.org/) -->
<svg height="345.6pt" version="1.1" viewBox="0 0 460.8 345.6" width="460.8pt" xmlns="http://www.w3.org/2000/svg" xmlns:xlink="http://www.w3.org/1999/xlink">
 <defs>
  <style type="text/css">
*{stroke-linecap:butt;stroke-linejoin:round;}
  </style>
 </defs>
 <g id="figure_1">
  <g id="patch_1">
   <path d="M 0 345.6 
L 460.8 345.6 
L 460.8 0 
L 0 0 
z
" style="fill:#ffffff;"/>
  </g>
  <g id="axes_1">
   <g id="patch_2">
    <path d="M 57.6 307.584 
L 414.72 307.584 
L 414.72 41.472 
L 57.6 41.472 
z
" style="fill:#ffffff;"/>
   </g>
   <g id="PolyCollection_1">
    <defs>
     <path d="M 414.72 -38.016 
L 414.72 -94.252614 
L 397.787067 -224.875033 
L 397.762998 -225.120466 
L 397.750963 -225.231205 
L 397.726894 -225.443289 
L 397.726894 -225.664248 
L 397.678754 -225.972526 
L 397.630615 -226.272008 
L 397.606546 -226.427096 
L 397.594511 -226.499782 
L 397.570441 -226.640369 
L 397.558407 -226.708262 
L 397.534337 -226.824288 
L 397.486198 -227.006903 
L 397.450094 -227.106654 
L 397.353815 -227.513699 
L 397.209398 -227.976513 
L 397.125155 -228.136434 
L 397.052946 -228.359185 
L 397.028876 -228.3761 
L 396.980737 -228.546991 
L 396.896494 -228.769215 
L 396.824285 -228.973318 
L 396.800216 -229.051687 
L 396.619694 -229.54419 
L 396.499346 -229.826105 
L 396.28272 -230.448238 
L 396.234581 -230.581947 
L 395.945746 -231.017034 
L 395.885573 -231.202489 
L 395.344008 -232.741405 
L 395.151451 -233.046869 
L 395.067208 -233.249951 
L 394.92279 -233.5747 
L 394.886686 -233.656099 
L 394.814477 -233.808357 
L 394.224773 -234.882623 
L 394.188669 -234.954484 
L 393.996112 -235.313245 
L 393.960008 -235.380017 
L 393.875765 -235.534213 
L 393.635069 -235.884015 
L 393.418443 -236.272 
L 391.565087 -239.539253 
L 391.492879 -239.663243 
L 391.384566 -239.817746 
L 391.264218 -240.017552 
L 391.155905 -240.196095 
L 390.770792 -240.703571 
L 390.59027 -240.998353 
L 389.892253 -241.918557 
L 389.80801 -242.051166 
L 389.711731 -242.134907 
L 389.362723 -242.57712 
L 389.302549 -242.653858 
L 389.206271 -242.792428 
L 389.097958 -242.947889 
L 386.943733 -245.881463 
L 386.654898 -246.22959 
L 386.510481 -246.401186 
L 386.414202 -246.597471 
L 386.269785 -246.769963 
L 386.125368 -246.905043 
L 385.812463 -247.21139 
L 385.72822 -247.309724 
L 385.439385 -247.72892 
L 385.258864 -247.925876 
L 384.982064 -248.208937 
L 384.789507 -248.457429 
L 384.705264 -248.506106 
L 384.596951 -248.616595 
L 376.966902 -256.313812 
L 376.846554 -256.437146 
L 376.353128 -257.045981 
L 376.268885 -257.109626 
L 376.064293 -257.283942 
L 375.72732 -257.619139 
L 375.582902 -257.71389 
L 375.354241 -257.894958 
L 375.077442 -258.122904 
L 373.910068 -259.104105 
L 373.801755 -259.197245 
L 371.479043 -261.438972 
L 371.394799 -261.507429 
L 371.334626 -261.555294 
L 371.142069 -261.857356 
L 370.648643 -262.219553 
L 370.167252 -262.654034 
L 370.058939 -262.729569 
L 369.649757 -263.019279 
L 369.505339 -263.115537 
L 369.421096 -263.17048 
L 369.228539 -263.294067 
L 352.873276 -272.902503 
L 352.668685 -273.032714 
L 352.644615 -273.03132 
L 352.319676 -273.226223 
L 351.970668 -273.34902 
L 351.790146 -273.437067 
L 350.634808 -274.046238 
L 349.876617 -274.412046 
L 349.010113 -274.775111 
L 348.709243 -275.125269 
L 346.302288 -276.204919 
L 345.88107 -276.427159 
L 345.748688 -276.486248 
L 345.65241 -276.528421 
L 345.231192 -276.686397 
L 344.894219 -276.820803 
L 344.497071 -276.896127 
L 344.316549 -276.963111 
L 336.674465 -279.749307 
L 336.4097 -279.83826 
L 336.385631 -279.837303 
L 335.844066 -279.985475 
L 335.32657 -280.125322 
L 335.158083 -280.178933 
L 335.013666 -280.223522 
L 333.701875 -280.890707 
L 333.509319 -280.944566 
L 333.268623 -280.996773 
L 332.221597 -281.224182 
L 328.250121 -282.215321 
L 327.937216 -282.288836 
L 327.696521 -282.343918 
L 326.769843 -282.503343 
L 324.098122 -282.971496 
L 323.544522 -283.072319 
L 322.678018 -283.218031 
L 322.016106 -283.316892 
L 321.414367 -283.407265 
L 320.908906 -283.468338 
L 320.427515 -283.519489 
L 320.090541 -283.564145 
L 319.801707 -283.588483 
L 319.500837 -283.61253 
L 319.392524 -283.620327 
L 319.139794 -283.623941 
L 318.887063 -283.638527 
L 318.381603 -283.6568 
L 318.008525 -283.667976 
L 317.779864 -283.672356 
L 317.057777 -283.684493 
L 316.407899 -283.676651 
L 57.6 -291.456 
L 57.6 -38.016 
L 57.6 -38.016 
L 316.407899 -38.016 
L 317.057777 -38.016 
L 317.779864 -38.016 
L 318.008525 -38.016 
L 318.381603 -38.016 
L 318.887063 -38.016 
L 319.139794 -38.016 
L 319.392524 -38.016 
L 319.500837 -38.016 
L 319.801707 -38.016 
L 320.090541 -38.016 
L 320.427515 -38.016 
L 320.908906 -38.016 
L 321.414367 -38.016 
L 322.016106 -38.016 
L 322.678018 -38.016 
L 323.544522 -38.016 
L 324.098122 -38.016 
L 326.769843 -38.016 
L 327.696521 -38.016 
L 327.937216 -38.016 
L 328.250121 -38.016 
L 332.221597 -38.016 
L 333.268623 -38.016 
L 333.509319 -38.016 
L 333.701875 -38.016 
L 335.013666 -38.016 
L 335.158083 -38.016 
L 335.32657 -38.016 
L 335.844066 -38.016 
L 336.385631 -38.016 
L 336.4097 -38.016 
L 336.674465 -38.016 
L 344.316549 -38.016 
L 344.497071 -38.016 
L 344.894219 -38.016 
L 345.231192 -38.016 
L 345.65241 -38.016 
L 345.748688 -38.016 
L 345.88107 -38.016 
L 346.302288 -38.016 
L 348.709243 -38.016 
L 349.010113 -38.016 
L 349.876617 -38.016 
L 350.634808 -38.016 
L 351.790146 -38.016 
L 351.970668 -38.016 
L 352.319676 -38.016 
L 352.644615 -38.016 
L 352.668685 -38.016 
L 352.873276 -38.016 
L 369.228539 -38.016 
L 369.421096 -38.016 
L 369.505339 -38.016 
L 369.649757 -38.016 
L 370.058939 -38.016 
L 370.167252 -38.016 
L 370.648643 -38.016 
L 371.142069 -38.016 
L 371.334626 -38.016 
L 371.394799 -38.016 
L 371.479043 -38.016 
L 373.801755 -38.016 
L 373.910068 -38.016 
L 375.077442 -38.016 
L 375.354241 -38.016 
L 375.582902 -38.016 
L 375.72732 -38.016 
L 376.064293 -38.016 
L 376.268885 -38.016 
L 376.353128 -38.016 
L 376.846554 -38.016 
L 376.966902 -38.016 
L 384.596951 -38.016 
L 384.705264 -38.016 
L 384.789507 -38.016 
L 384.982064 -38.016 
L 385.258864 -38.016 
L 385.439385 -38.016 
L 385.72822 -38.016 
L 385.812463 -38.016 
L 386.125368 -38.016 
L 386.269785 -38.016 
L 386.414202 -38.016 
L 386.510481 -38.016 
L 386.654898 -38.016 
L 386.943733 -38.016 
L 389.097958 -38.016 
L 389.206271 -38.016 
L 389.302549 -38.016 
L 389.362723 -38.016 
L 389.711731 -38.016 
L 389.80801 -38.016 
L 389.892253 -38.016 
L 390.59027 -38.016 
L 390.770792 -38.016 
L 391.155905 -38.016 
L 391.264218 -38.016 
L 391.384566 -38.016 
L 391.492879 -38.016 
L 391.565087 -38.016 
L 393.418443 -38.016 
L 393.635069 -38.016 
L 393.875765 -38.016 
L 393.960008 -38.016 
L 393.996112 -38.016 
L 394.188669 -38.016 
L 394.224773 -38.016 
L 394.814477 -38.016 
L 394.886686 -38.016 
L 394.92279 -38.016 
L 395.067208 -38.016 
L 395.151451 -38.016 
L 395.344008 -38.016 
L 395.885573 -38.016 
L 395.945746 -38.016 
L 396.234581 -38.016 
L 396.28272 -38.016 
L 396.499346 -38.016 
L 396.619694 -38.016 
L 396.800216 -38.016 
L 396.824285 -38.016 
L 396.896494 -38.016 
L 396.980737 -38.016 
L 397.028876 -38.016 
L 397.052946 -38.016 
L 397.125155 -38.016 
L 397.209398 -38.016 
L 397.353815 -38.016 
L 397.450094 -38.016 
L 397.486198 -38.016 
L 397.534337 -38.016 
L 397.558407 -38.016 
L 397.570441 -38.016 
L 397.594511 -38.016 
L 397.606546 -38.016 
L 397.630615 -38.016 
L 397.678754 -38.016 
L 397.726894 -38.016 
L 397.726894 -38.016 
L 397.750963 -38.016 
L 397.762998 -38.016 
L 397.787067 -38.016 
L 414.72 -38.016 
z
" id="me01272e831" style="stroke:#0000ff;stroke-opacity:0.2;"/>
    </defs>
    <g clip-path="url(#p94b6d07a7e)">
     <use style="fill:#0000ff;fill-opacity:0.2;stroke:#0000ff;stroke-opacity:0.2;" x="0" xlink:href="#me01272e831" y="345.6"/>
    </g>
   </g>
   <g id="matplotlib.axis_1">
    <g id="xtick_1">
     <g id="line2d_1">
      <defs>
       <path d="M 0 0 
L 0 3.5 
" id="m167a42f995" style="stroke:#000000;stroke-width:0.8;"/>
      </defs>
      <g>
       <use style="stroke:#000000;stroke-width:0.8;" x="57.6" xlink:href="#m167a42f995" y="307.584"/>
      </g>
     </g>
     <g id="text_1">
      <!-- 0.0 -->
      <defs>
       <path d="M 31.78125 66.40625 
Q 24.171875 66.40625 20.328125 58.90625 
Q 16.5 51.421875 16.5 36.375 
Q 16.5 21.390625 20.328125 13.890625 
Q 24.171875 6.390625 31.78125 6.390625 
Q 39.453125 6.390625 43.28125 13.890625 
Q 47.125 21.390625 47.125 36.375 
Q 47.125 51.421875 43.28125 58.90625 
Q 39.453125 66.40625 31.78125 66.40625 
z
M 31.78125 74.21875 
Q 44.046875 74.21875 50.515625 64.515625 
Q 56.984375 54.828125 56.984375 36.375 
Q 56.984375 17.96875 50.515625 8.265625 
Q 44.046875 -1.421875 31.78125 -1.421875 
Q 19.53125 -1.421875 13.0625 8.265625 
Q 6.59375 17.96875 6.59375 36.375 
Q 6.59375 54.828125 13.0625 64.515625 
Q 19.53125 74.21875 31.78125 74.21875 
z
" id="DejaVuSans-48"/>
       <path d="M 10.6875 12.40625 
L 21 12.40625 
L 21 0 
L 10.6875 0 
z
" id="DejaVuSans-46"/>
      </defs>
      <g transform="translate(49.648438 322.182437)scale(0.1 -0.1)">
       <use xlink:href="#DejaVuSans-48"/>
       <use x="63.623047" xlink:href="#DejaVuSans-46"/>
       <use x="95.410156" xlink:href="#DejaVuSans-48"/>
      </g>
     </g>
    </g>
    <g id="xtick_2">
     <g id="line2d_2">
      <g>
       <use style="stroke:#000000;stroke-width:0.8;" x="129.024" xlink:href="#m167a42f995" y="307.584"/>
      </g>
     </g>
     <g id="text_2">
      <!-- 0.2 -->
      <defs>
       <path d="M 19.1875 8.296875 
L 53.609375 8.296875 
L 53.609375 0 
L 7.328125 0 
L 7.328125 8.296875 
Q 12.9375 14.109375 22.625 23.890625 
Q 32.328125 33.6875 34.8125 36.53125 
Q 39.546875 41.84375 41.421875 45.53125 
Q 43.3125 49.21875 43.3125 52.78125 
Q 43.3125 58.59375 39.234375 62.25 
Q 35.15625 65.921875 28.609375 65.921875 
Q 23.96875 65.921875 18.8125 64.3125 
Q 13.671875 62.703125 7.8125 59.421875 
L 7.8125 69.390625 
Q 13.765625 71.78125 18.9375 73 
Q 24.125 74.21875 28.421875 74.21875 
Q 39.75 74.21875 46.484375 68.546875 
Q 53.21875 62.890625 53.21875 53.421875 
Q 53.21875 48.921875 51.53125 44.890625 
Q 49.859375 40.875 45.40625 35.40625 
Q 44.1875 33.984375 37.640625 27.21875 
Q 31.109375 20.453125 19.1875 8.296875 
z
" id="DejaVuSans-50"/>
      </defs>
      <g transform="translate(121.072438 322.182437)scale(0.1 -0.1)">
       <use xlink:href="#DejaVuSans-48"/>
       <use x="63.623047" xlink:href="#DejaVuSans-46"/>
       <use x="95.410156" xlink:href="#DejaVuSans-50"/>
      </g>
     </g>
    </g>
    <g id="xtick_3">
     <g id="line2d_3">
      <g>
       <use style="stroke:#000000;stroke-width:0.8;" x="200.448" xlink:href="#m167a42f995" y="307.584"/>
      </g>
     </g>
     <g id="text_3">
      <!-- 0.4 -->
      <defs>
       <path d="M 37.796875 64.3125 
L 12.890625 25.390625 
L 37.796875 25.390625 
z
M 35.203125 72.90625 
L 47.609375 72.90625 
L 47.609375 25.390625 
L 58.015625 25.390625 
L 58.015625 17.1875 
L 47.609375 17.1875 
L 47.609375 0 
L 37.796875 0 
L 37.796875 17.1875 
L 4.890625 17.1875 
L 4.890625 26.703125 
z
" id="DejaVuSans-52"/>
      </defs>
      <g transform="translate(192.496438 322.182437)scale(0.1 -0.1)">
       <use xlink:href="#DejaVuSans-48"/>
       <use x="63.623047" xlink:href="#DejaVuSans-46"/>
       <use x="95.410156" xlink:href="#DejaVuSans-52"/>
      </g>
     </g>
    </g>
    <g id="xtick_4">
     <g id="line2d_4">
      <g>
       <use style="stroke:#000000;stroke-width:0.8;" x="271.872" xlink:href="#m167a42f995" y="307.584"/>
      </g>
     </g>
     <g id="text_4">
      <!-- 0.6 -->
      <defs>
       <path d="M 33.015625 40.375 
Q 26.375 40.375 22.484375 35.828125 
Q 18.609375 31.296875 18.609375 23.390625 
Q 18.609375 15.53125 22.484375 10.953125 
Q 26.375 6.390625 33.015625 6.390625 
Q 39.65625 6.390625 43.53125 10.953125 
Q 47.40625 15.53125 47.40625 23.390625 
Q 47.40625 31.296875 43.53125 35.828125 
Q 39.65625 40.375 33.015625 40.375 
z
M 52.59375 71.296875 
L 52.59375 62.3125 
Q 48.875 64.0625 45.09375 64.984375 
Q 41.3125 65.921875 37.59375 65.921875 
Q 27.828125 65.921875 22.671875 59.328125 
Q 17.53125 52.734375 16.796875 39.40625 
Q 19.671875 43.65625 24.015625 45.921875 
Q 28.375 48.1875 33.59375 48.1875 
Q 44.578125 48.1875 50.953125 41.515625 
Q 57.328125 34.859375 57.328125 23.390625 
Q 57.328125 12.15625 50.6875 5.359375 
Q 44.046875 -1.421875 33.015625 -1.421875 
Q 20.359375 -1.421875 13.671875 8.265625 
Q 6.984375 17.96875 6.984375 36.375 
Q 6.984375 53.65625 15.1875 63.9375 
Q 23.390625 74.21875 37.203125 74.21875 
Q 40.921875 74.21875 44.703125 73.484375 
Q 48.484375 72.75 52.59375 71.296875 
z
" id="DejaVuSans-54"/>
      </defs>
      <g transform="translate(263.920438 322.182437)scale(0.1 -0.1)">
       <use xlink:href="#DejaVuSans-48"/>
       <use x="63.623047" xlink:href="#DejaVuSans-46"/>
       <use x="95.410156" xlink:href="#DejaVuSans-54"/>
      </g>
     </g>
    </g>
    <g id="xtick_5">
     <g id="line2d_5">
      <g>
       <use style="stroke:#000000;stroke-width:0.8;" x="343.296" xlink:href="#m167a42f995" y="307.584"/>
      </g>
     </g>
     <g id="text_5">
      <!-- 0.8 -->
      <defs>
       <path d="M 31.78125 34.625 
Q 24.75 34.625 20.71875 30.859375 
Q 16.703125 27.09375 16.703125 20.515625 
Q 16.703125 13.921875 20.71875 10.15625 
Q 24.75 6.390625 31.78125 6.390625 
Q 38.8125 6.390625 42.859375 10.171875 
Q 46.921875 13.96875 46.921875 20.515625 
Q 46.921875 27.09375 42.890625 30.859375 
Q 38.875 34.625 31.78125 34.625 
z
M 21.921875 38.8125 
Q 15.578125 40.375 12.03125 44.71875 
Q 8.5 49.078125 8.5 55.328125 
Q 8.5 64.0625 14.71875 69.140625 
Q 20.953125 74.21875 31.78125 74.21875 
Q 42.671875 74.21875 48.875 69.140625 
Q 55.078125 64.0625 55.078125 55.328125 
Q 55.078125 49.078125 51.53125 44.71875 
Q 48 40.375 41.703125 38.8125 
Q 48.828125 37.15625 52.796875 32.3125 
Q 56.78125 27.484375 56.78125 20.515625 
Q 56.78125 9.90625 50.3125 4.234375 
Q 43.84375 -1.421875 31.78125 -1.421875 
Q 19.734375 -1.421875 13.25 4.234375 
Q 6.78125 9.90625 6.78125 20.515625 
Q 6.78125 27.484375 10.78125 32.3125 
Q 14.796875 37.15625 21.921875 38.8125 
z
M 18.3125 54.390625 
Q 18.3125 48.734375 21.84375 45.5625 
Q 25.390625 42.390625 31.78125 42.390625 
Q 38.140625 42.390625 41.71875 45.5625 
Q 45.3125 48.734375 45.3125 54.390625 
Q 45.3125 60.0625 41.71875 63.234375 
Q 38.140625 66.40625 31.78125 66.40625 
Q 25.390625 66.40625 21.84375 63.234375 
Q 18.3125 60.0625 18.3125 54.390625 
z
" id="DejaVuSans-56"/>
      </defs>
      <g transform="translate(335.344438 322.182437)scale(0.1 -0.1)">
       <use xlink:href="#DejaVuSans-48"/>
       <use x="63.623047" xlink:href="#DejaVuSans-46"/>
       <use x="95.410156" xlink:href="#DejaVuSans-56"/>
      </g>
     </g>
    </g>
    <g id="xtick_6">
     <g id="line2d_6">
      <g>
       <use style="stroke:#000000;stroke-width:0.8;" x="414.72" xlink:href="#m167a42f995" y="307.584"/>
      </g>
     </g>
     <g id="text_6">
      <!-- 1.0 -->
      <defs>
       <path d="M 12.40625 8.296875 
L 28.515625 8.296875 
L 28.515625 63.921875 
L 10.984375 60.40625 
L 10.984375 69.390625 
L 28.421875 72.90625 
L 38.28125 72.90625 
L 38.28125 8.296875 
L 54.390625 8.296875 
L 54.390625 0 
L 12.40625 0 
z
" id="DejaVuSans-49"/>
      </defs>
      <g transform="translate(406.768438 322.182437)scale(0.1 -0.1)">
       <use xlink:href="#DejaVuSans-49"/>
       <use x="63.623047" xlink:href="#DejaVuSans-46"/>
       <use x="95.410156" xlink:href="#DejaVuSans-48"/>
      </g>
     </g>
    </g>
    <g id="text_7">
     <!-- Recall -->
     <defs>
      <path d="M 44.390625 34.1875 
Q 47.5625 33.109375 50.5625 29.59375 
Q 53.5625 26.078125 56.59375 19.921875 
L 66.609375 0 
L 56 0 
L 46.6875 18.703125 
Q 43.0625 26.03125 39.671875 28.421875 
Q 36.28125 30.8125 30.421875 30.8125 
L 19.671875 30.8125 
L 19.671875 0 
L 9.8125 0 
L 9.8125 72.90625 
L 32.078125 72.90625 
Q 44.578125 72.90625 50.734375 67.671875 
Q 56.890625 62.453125 56.890625 51.90625 
Q 56.890625 45.015625 53.6875 40.46875 
Q 50.484375 35.9375 44.390625 34.1875 
z
M 19.671875 64.796875 
L 19.671875 38.921875 
L 32.078125 38.921875 
Q 39.203125 38.921875 42.84375 42.21875 
Q 46.484375 45.515625 46.484375 51.90625 
Q 46.484375 58.296875 42.84375 61.546875 
Q 39.203125 64.796875 32.078125 64.796875 
z
" id="DejaVuSans-82"/>
      <path d="M 56.203125 29.59375 
L 56.203125 25.203125 
L 14.890625 25.203125 
Q 15.484375 15.921875 20.484375 11.0625 
Q 25.484375 6.203125 34.421875 6.203125 
Q 39.59375 6.203125 44.453125 7.46875 
Q 49.3125 8.734375 54.109375 11.28125 
L 54.109375 2.78125 
Q 49.265625 0.734375 44.1875 -0.34375 
Q 39.109375 -1.421875 33.890625 -1.421875 
Q 20.796875 -1.421875 13.15625 6.1875 
Q 5.515625 13.8125 5.515625 26.8125 
Q 5.515625 40.234375 12.765625 48.109375 
Q 20.015625 56 32.328125 56 
Q 43.359375 56 49.78125 48.890625 
Q 56.203125 41.796875 56.203125 29.59375 
z
M 47.21875 32.234375 
Q 47.125 39.59375 43.09375 43.984375 
Q 39.0625 48.390625 32.421875 48.390625 
Q 24.90625 48.390625 20.390625 44.140625 
Q 15.875 39.890625 15.1875 32.171875 
z
" id="DejaVuSans-101"/>
      <path d="M 48.78125 52.59375 
L 48.78125 44.1875 
Q 44.96875 46.296875 41.140625 47.34375 
Q 37.3125 48.390625 33.40625 48.390625 
Q 24.65625 48.390625 19.8125 42.84375 
Q 14.984375 37.3125 14.984375 27.296875 
Q 14.984375 17.28125 19.8125 11.734375 
Q 24.65625 6.203125 33.40625 6.203125 
Q 37.3125 6.203125 41.140625 7.25 
Q 44.96875 8.296875 48.78125 10.40625 
L 48.78125 2.09375 
Q 45.015625 0.34375 40.984375 -0.53125 
Q 36.96875 -1.421875 32.421875 -1.421875 
Q 20.0625 -1.421875 12.78125 6.34375 
Q 5.515625 14.109375 5.515625 27.296875 
Q 5.515625 40.671875 12.859375 48.328125 
Q 20.21875 56 33.015625 56 
Q 37.15625 56 41.109375 55.140625 
Q 45.0625 54.296875 48.78125 52.59375 
z
" id="DejaVuSans-99"/>
      <path d="M 34.28125 27.484375 
Q 23.390625 27.484375 19.1875 25 
Q 14.984375 22.515625 14.984375 16.5 
Q 14.984375 11.71875 18.140625 8.90625 
Q 21.296875 6.109375 26.703125 6.109375 
Q 34.1875 6.109375 38.703125 11.40625 
Q 43.21875 16.703125 43.21875 25.484375 
L 43.21875 27.484375 
z
M 52.203125 31.203125 
L 52.203125 0 
L 43.21875 0 
L 43.21875 8.296875 
Q 40.140625 3.328125 35.546875 0.953125 
Q 30.953125 -1.421875 24.3125 -1.421875 
Q 15.921875 -1.421875 10.953125 3.296875 
Q 6 8.015625 6 15.921875 
Q 6 25.140625 12.171875 29.828125 
Q 18.359375 34.515625 30.609375 34.515625 
L 43.21875 34.515625 
L 43.21875 35.40625 
Q 43.21875 41.609375 39.140625 45 
Q 35.0625 48.390625 27.6875 48.390625 
Q 23 48.390625 18.546875 47.265625 
Q 14.109375 46.140625 10.015625 43.890625 
L 10.015625 52.203125 
Q 14.9375 54.109375 19.578125 55.046875 
Q 24.21875 56 28.609375 56 
Q 40.484375 56 46.34375 49.84375 
Q 52.203125 43.703125 52.203125 31.203125 
z
" id="DejaVuSans-97"/>
      <path d="M 9.421875 75.984375 
L 18.40625 75.984375 
L 18.40625 0 
L 9.421875 0 
z
" id="DejaVuSans-108"/>
     </defs>
     <g transform="translate(221.020938 335.860562)scale(0.1 -0.1)">
      <use xlink:href="#DejaVuSans-82"/>
      <use x="69.419922" xlink:href="#DejaVuSans-101"/>
      <use x="130.943359" xlink:href="#DejaVuSans-99"/>
      <use x="185.923828" xlink:href="#DejaVuSans-97"/>
      <use x="247.203125" xlink:href="#DejaVuSans-108"/>
      <use x="274.986328" xlink:href="#DejaVuSans-108"/>
     </g>
    </g>
   </g>
   <g id="matplotlib.axis_2">
    <g id="ytick_1">
     <g id="line2d_7">
      <defs>
       <path d="M 0 0 
L -3.5 0 
" id="m1175d36cc8" style="stroke:#000000;stroke-width:0.8;"/>
      </defs>
      <g>
       <use style="stroke:#000000;stroke-width:0.8;" x="57.6" xlink:href="#m1175d36cc8" y="307.584"/>
      </g>
     </g>
     <g id="text_8">
      <!-- 0.0 -->
      <g transform="translate(34.696875 311.383219)scale(0.1 -0.1)">
       <use xlink:href="#DejaVuSans-48"/>
       <use x="63.623047" xlink:href="#DejaVuSans-46"/>
       <use x="95.410156" xlink:href="#DejaVuSans-48"/>
      </g>
     </g>
    </g>
    <g id="ytick_2">
     <g id="line2d_8">
      <g>
       <use style="stroke:#000000;stroke-width:0.8;" x="57.6" xlink:href="#m1175d36cc8" y="256.896"/>
      </g>
     </g>
     <g id="text_9">
      <!-- 0.2 -->
      <g transform="translate(34.696875 260.695219)scale(0.1 -0.1)">
       <use xlink:href="#DejaVuSans-48"/>
       <use x="63.623047" xlink:href="#DejaVuSans-46"/>
       <use x="95.410156" xlink:href="#DejaVuSans-50"/>
      </g>
     </g>
    </g>
    <g id="ytick_3">
     <g id="line2d_9">
      <g>
       <use style="stroke:#000000;stroke-width:0.8;" x="57.6" xlink:href="#m1175d36cc8" y="206.208"/>
      </g>
     </g>
     <g id="text_10">
      <!-- 0.4 -->
      <g transform="translate(34.696875 210.007219)scale(0.1 -0.1)">
       <use xlink:href="#DejaVuSans-48"/>
       <use x="63.623047" xlink:href="#DejaVuSans-46"/>
       <use x="95.410156" xlink:href="#DejaVuSans-52"/>
      </g>
     </g>
    </g>
    <g id="ytick_4">
     <g id="line2d_10">
      <g>
       <use style="stroke:#000000;stroke-width:0.8;" x="57.6" xlink:href="#m1175d36cc8" y="155.52"/>
      </g>
     </g>
     <g id="text_11">
      <!-- 0.6 -->
      <g transform="translate(34.696875 159.319219)scale(0.1 -0.1)">
       <use xlink:href="#DejaVuSans-48"/>
       <use x="63.623047" xlink:href="#DejaVuSans-46"/>
       <use x="95.410156" xlink:href="#DejaVuSans-54"/>
      </g>
     </g>
    </g>
    <g id="ytick_5">
     <g id="line2d_11">
      <g>
       <use style="stroke:#000000;stroke-width:0.8;" x="57.6" xlink:href="#m1175d36cc8" y="104.832"/>
      </g>
     </g>
     <g id="text_12">
      <!-- 0.8 -->
      <g transform="translate(34.696875 108.631219)scale(0.1 -0.1)">
       <use xlink:href="#DejaVuSans-48"/>
       <use x="63.623047" xlink:href="#DejaVuSans-46"/>
       <use x="95.410156" xlink:href="#DejaVuSans-56"/>
      </g>
     </g>
    </g>
    <g id="ytick_6">
     <g id="line2d_12">
      <g>
       <use style="stroke:#000000;stroke-width:0.8;" x="57.6" xlink:href="#m1175d36cc8" y="54.144"/>
      </g>
     </g>
     <g id="text_13">
      <!-- 1.0 -->
      <g transform="translate(34.696875 57.943219)scale(0.1 -0.1)">
       <use xlink:href="#DejaVuSans-49"/>
       <use x="63.623047" xlink:href="#DejaVuSans-46"/>
       <use x="95.410156" xlink:href="#DejaVuSans-48"/>
      </g>
     </g>
    </g>
    <g id="text_14">
     <!-- Precision -->
     <defs>
      <path d="M 19.671875 64.796875 
L 19.671875 37.40625 
L 32.078125 37.40625 
Q 38.96875 37.40625 42.71875 40.96875 
Q 46.484375 44.53125 46.484375 51.125 
Q 46.484375 57.671875 42.71875 61.234375 
Q 38.96875 64.796875 32.078125 64.796875 
z
M 9.8125 72.90625 
L 32.078125 72.90625 
Q 44.34375 72.90625 50.609375 67.359375 
Q 56.890625 61.8125 56.890625 51.125 
Q 56.890625 40.328125 50.609375 34.8125 
Q 44.34375 29.296875 32.078125 29.296875 
L 19.671875 29.296875 
L 19.671875 0 
L 9.8125 0 
z
" id="DejaVuSans-80"/>
      <path d="M 41.109375 46.296875 
Q 39.59375 47.171875 37.8125 47.578125 
Q 36.03125 48 33.890625 48 
Q 26.265625 48 22.1875 43.046875 
Q 18.109375 38.09375 18.109375 28.8125 
L 18.109375 0 
L 9.078125 0 
L 9.078125 54.6875 
L 18.109375 54.6875 
L 18.109375 46.1875 
Q 20.953125 51.171875 25.484375 53.578125 
Q 30.03125 56 36.53125 56 
Q 37.453125 56 38.578125 55.875 
Q 39.703125 55.765625 41.0625 55.515625 
z
" id="DejaVuSans-114"/>
      <path d="M 9.421875 54.6875 
L 18.40625 54.6875 
L 18.40625 0 
L 9.421875 0 
z
M 9.421875 75.984375 
L 18.40625 75.984375 
L 18.40625 64.59375 
L 9.421875 64.59375 
z
" id="DejaVuSans-105"/>
      <path d="M 44.28125 53.078125 
L 44.28125 44.578125 
Q 40.484375 46.53125 36.375 47.5 
Q 32.28125 48.484375 27.875 48.484375 
Q 21.1875 48.484375 17.84375 46.4375 
Q 14.5 44.390625 14.5 40.28125 
Q 14.5 37.15625 16.890625 35.375 
Q 19.28125 33.59375 26.515625 31.984375 
L 29.59375 31.296875 
Q 39.15625 29.25 43.1875 25.515625 
Q 47.21875 21.78125 47.21875 15.09375 
Q 47.21875 7.46875 41.1875 3.015625 
Q 35.15625 -1.421875 24.609375 -1.421875 
Q 20.21875 -1.421875 15.453125 -0.5625 
Q 10.6875 0.296875 5.421875 2 
L 5.421875 11.28125 
Q 10.40625 8.6875 15.234375 7.390625 
Q 20.0625 6.109375 24.8125 6.109375 
Q 31.15625 6.109375 34.5625 8.28125 
Q 37.984375 10.453125 37.984375 14.40625 
Q 37.984375 18.0625 35.515625 20.015625 
Q 33.0625 21.96875 24.703125 23.78125 
L 21.578125 24.515625 
Q 13.234375 26.265625 9.515625 29.90625 
Q 5.8125 33.546875 5.8125 39.890625 
Q 5.8125 47.609375 11.28125 51.796875 
Q 16.75 56 26.8125 56 
Q 31.78125 56 36.171875 55.265625 
Q 40.578125 54.546875 44.28125 53.078125 
z
" id="DejaVuSans-115"/>
      <path d="M 30.609375 48.390625 
Q 23.390625 48.390625 19.1875 42.75 
Q 14.984375 37.109375 14.984375 27.296875 
Q 14.984375 17.484375 19.15625 11.84375 
Q 23.34375 6.203125 30.609375 6.203125 
Q 37.796875 6.203125 41.984375 11.859375 
Q 46.1875 17.53125 46.1875 27.296875 
Q 46.1875 37.015625 41.984375 42.703125 
Q 37.796875 48.390625 30.609375 48.390625 
z
M 30.609375 56 
Q 42.328125 56 49.015625 48.375 
Q 55.71875 40.765625 55.71875 27.296875 
Q 55.71875 13.875 49.015625 6.21875 
Q 42.328125 -1.421875 30.609375 -1.421875 
Q 18.84375 -1.421875 12.171875 6.21875 
Q 5.515625 13.875 5.515625 27.296875 
Q 5.515625 40.765625 12.171875 48.375 
Q 18.84375 56 30.609375 56 
z
" id="DejaVuSans-111"/>
      <path d="M 54.890625 33.015625 
L 54.890625 0 
L 45.90625 0 
L 45.90625 32.71875 
Q 45.90625 40.484375 42.875 44.328125 
Q 39.84375 48.1875 33.796875 48.1875 
Q 26.515625 48.1875 22.3125 43.546875 
Q 18.109375 38.921875 18.109375 30.90625 
L 18.109375 0 
L 9.078125 0 
L 9.078125 54.6875 
L 18.109375 54.6875 
L 18.109375 46.1875 
Q 21.34375 51.125 25.703125 53.5625 
Q 30.078125 56 35.796875 56 
Q 45.21875 56 50.046875 50.171875 
Q 54.890625 44.34375 54.890625 33.015625 
z
" id="DejaVuSans-110"/>
     </defs>
     <g transform="translate(28.617187 197.032688)rotate(-90)scale(0.1 -0.1)">
      <use xlink:href="#DejaVuSans-80"/>
      <use x="60.287109" xlink:href="#DejaVuSans-114"/>
      <use x="101.369141" xlink:href="#DejaVuSans-101"/>
      <use x="162.892578" xlink:href="#DejaVuSans-99"/>
      <use x="217.873047" xlink:href="#DejaVuSans-105"/>
      <use x="245.65625" xlink:href="#DejaVuSans-115"/>
      <use x="297.755859" xlink:href="#DejaVuSans-105"/>
      <use x="325.539062" xlink:href="#DejaVuSans-111"/>
      <use x="386.720703" xlink:href="#DejaVuSans-110"/>
     </g>
    </g>
   </g>
   <g id="line2d_13">
    <path clip-path="url(#p94b6d07a7e)" d="M 414.72 251.347386 
L 397.787067 251.347386 
L 397.678754 119.627474 
L 397.630615 119.627474 
L 397.534337 118.775712 
L 397.486198 118.775712 
L 397.450094 118.493346 
L 397.353815 118.493346 
L 397.353815 118.086301 
L 397.209398 118.086301 
L 397.125155 117.463566 
L 397.052946 117.463566 
L 396.980737 117.053009 
L 396.896494 117.053009 
L 396.800216 116.548313 
L 396.619694 116.548313 
L 396.619694 116.05581 
L 396.499346 116.05581 
L 396.499346 115.773895 
L 396.28272 115.773895 
L 396.234581 115.018053 
L 395.945746 115.018053 
L 395.885573 114.397511 
L 395.344008 114.397511 
L 395.344008 112.858595 
L 395.151451 112.858595 
L 395.067208 112.350049 
L 394.92279 112.350049 
L 394.814477 111.791643 
L 394.224773 111.791643 
L 394.188669 110.645516 
L 393.996112 110.645516 
L 393.960008 110.219983 
L 393.875765 110.219983 
L 393.875765 110.065787 
L 393.635069 110.065787 
L 393.635069 109.715985 
L 393.418443 109.715985 
L 393.418443 109.328 
L 391.565087 109.328 
L 391.492879 105.936757 
L 391.384566 105.936757 
L 391.384566 105.782254 
L 391.264218 105.782254 
L 391.155905 105.403905 
L 390.770792 105.403905 
L 390.770792 104.896429 
L 390.59027 104.896429 
L 390.59027 104.601647 
L 389.892253 104.601647 
L 389.80801 103.548834 
L 389.362723 103.465093 
L 389.302549 102.946142 
L 389.206271 102.946142 
L 389.097958 102.652111 
L 386.943733 102.652111 
L 386.943733 99.718537 
L 386.654898 99.718537 
L 386.654898 99.37041 
L 386.510481 99.37041 
L 386.414202 99.002529 
L 386.269785 99.002529 
L 386.269785 98.830037 
L 386.125368 98.830037 
L 386.125368 98.694957 
L 385.812463 98.694957 
L 385.72822 98.290276 
L 385.439385 98.290276 
L 385.439385 97.87108 
L 385.258864 97.87108 
L 385.258864 97.674124 
L 384.982064 97.674124 
L 384.982064 97.391063 
L 384.789507 97.391063 
L 384.705264 97.093894 
L 376.966902 96.983405 
L 376.966902 89.286188 
L 376.846554 89.286188 
L 376.846554 89.162854 
L 376.353128 89.162854 
L 376.268885 88.490374 
L 376.064293 88.490374 
L 376.064293 88.316058 
L 375.72732 88.316058 
L 375.72732 87.980861 
L 375.354241 87.88611 
L 375.354241 87.705042 
L 375.077442 87.705042 
L 375.077442 87.477096 
L 373.910068 87.477096 
L 373.801755 86.402755 
L 371.479043 86.402755 
L 371.394799 84.092571 
L 371.142069 84.044706 
L 371.142069 83.742644 
L 370.648643 83.742644 
L 370.648643 83.380447 
L 370.167252 83.380447 
L 370.058939 82.870431 
L 369.649757 82.870431 
L 369.649757 82.580721 
L 369.421096 82.484463 
L 369.421096 82.42952 
L 369.228539 82.42952 
L 369.228539 82.305933 
L 352.873276 82.305933 
L 352.873276 72.697497 
L 352.668685 72.697497 
L 352.668685 72.567286 
L 352.644615 72.56868 
L 352.319676 72.56868 
L 352.319676 72.373777 
L 351.970668 72.373777 
L 351.970668 72.25098 
L 350.634808 72.162933 
L 350.634808 71.553762 
L 349.876617 71.553762 
L 349.876617 71.187954 
L 349.010113 71.187954 
L 349.010113 70.824889 
L 348.709243 70.824889 
L 348.709243 70.474731 
L 346.302288 70.474731 
L 346.302288 69.395081 
L 345.88107 69.395081 
L 345.88107 69.172841 
L 345.231192 69.071579 
L 345.231192 68.913603 
L 344.894219 68.913603 
L 344.894219 68.779197 
L 344.316549 68.703873 
L 344.316549 68.636889 
L 336.674465 68.636889 
L 336.674465 65.850693 
L 335.844066 65.762697 
L 335.844066 65.614525 
L 335.32657 65.614525 
L 335.32657 65.474678 
L 333.701875 65.376478 
L 333.701875 64.709293 
L 332.221597 64.603227 
L 332.221597 64.375818 
L 328.250121 64.375818 
L 328.250121 63.384679 
L 327.696521 63.311164 
L 327.696521 63.256082 
L 326.769843 63.256082 
L 326.769843 63.096657 
L 324.098122 63.096657 
L 324.098122 62.628504 
L 322.678018 62.527681 
L 322.678018 62.381969 
L 321.414367 62.283108 
L 321.414367 62.192735 
L 320.427515 62.131662 
L 320.427515 62.080511 
L 318.887063 61.976059 
L 318.887063 61.961473 
L 57.6 61.923349 
L 57.6 54.144 
L 57.6 54.144 
" style="fill:none;stroke:#0000ff;stroke-linecap:square;stroke-opacity:0.2;stroke-width:1.5;"/>
   </g>
   <g id="patch_3">
    <path d="M 57.6 307.584 
L 57.6 41.472 
" style="fill:none;stroke:#000000;stroke-linecap:square;stroke-linejoin:miter;stroke-width:0.8;"/>
   </g>
   <g id="patch_4">
    <path d="M 414.72 307.584 
L 414.72 41.472 
" style="fill:none;stroke:#000000;stroke-linecap:square;stroke-linejoin:miter;stroke-width:0.8;"/>
   </g>
   <g id="patch_5">
    <path d="M 57.6 307.584 
L 414.72 307.584 
" style="fill:none;stroke:#000000;stroke-linecap:square;stroke-linejoin:miter;stroke-width:0.8;"/>
   </g>
   <g id="patch_6">
    <path d="M 57.6 41.472 
L 414.72 41.472 
" style="fill:none;stroke:#000000;stroke-linecap:square;stroke-linejoin:miter;stroke-width:0.8;"/>
   </g>
   <g id="text_15">
    <!-- 2-class Precision-Recall curve -->
    <defs>
     <path d="M 4.890625 31.390625 
L 31.203125 31.390625 
L 31.203125 23.390625 
L 4.890625 23.390625 
z
" id="DejaVuSans-45"/>
     <path id="DejaVuSans-32"/>
     <path d="M 8.5 21.578125 
L 8.5 54.6875 
L 17.484375 54.6875 
L 17.484375 21.921875 
Q 17.484375 14.15625 20.5 10.265625 
Q 23.53125 6.390625 29.59375 6.390625 
Q 36.859375 6.390625 41.078125 11.03125 
Q 45.3125 15.671875 45.3125 23.6875 
L 45.3125 54.6875 
L 54.296875 54.6875 
L 54.296875 0 
L 45.3125 0 
L 45.3125 8.40625 
Q 42.046875 3.421875 37.71875 1 
Q 33.40625 -1.421875 27.6875 -1.421875 
Q 18.265625 -1.421875 13.375 4.4375 
Q 8.5 10.296875 8.5 21.578125 
z
M 31.109375 56 
z
" id="DejaVuSans-117"/>
     <path d="M 2.984375 54.6875 
L 12.5 54.6875 
L 29.59375 8.796875 
L 46.6875 54.6875 
L 56.203125 54.6875 
L 35.6875 0 
L 23.484375 0 
z
" id="DejaVuSans-118"/>
    </defs>
    <g transform="translate(147.321562 35.472)scale(0.12 -0.12)">
     <use xlink:href="#DejaVuSans-50"/>
     <use x="63.623047" xlink:href="#DejaVuSans-45"/>
     <use x="99.707031" xlink:href="#DejaVuSans-99"/>
     <use x="154.6875" xlink:href="#DejaVuSans-108"/>
     <use x="182.470703" xlink:href="#DejaVuSans-97"/>
     <use x="243.75" xlink:href="#DejaVuSans-115"/>
     <use x="295.849609" xlink:href="#DejaVuSans-115"/>
     <use x="347.949219" xlink:href="#DejaVuSans-32"/>
     <use x="379.736328" xlink:href="#DejaVuSans-80"/>
     <use x="440.023438" xlink:href="#DejaVuSans-114"/>
     <use x="481.105469" xlink:href="#DejaVuSans-101"/>
     <use x="542.628906" xlink:href="#DejaVuSans-99"/>
     <use x="597.609375" xlink:href="#DejaVuSans-105"/>
     <use x="625.392578" xlink:href="#DejaVuSans-115"/>
     <use x="677.492188" xlink:href="#DejaVuSans-105"/>
     <use x="705.275391" xlink:href="#DejaVuSans-111"/>
     <use x="766.457031" xlink:href="#DejaVuSans-110"/>
     <use x="829.835938" xlink:href="#DejaVuSans-45"/>
     <use x="865.919922" xlink:href="#DejaVuSans-82"/>
     <use x="935.339844" xlink:href="#DejaVuSans-101"/>
     <use x="996.863281" xlink:href="#DejaVuSans-99"/>
     <use x="1051.84375" xlink:href="#DejaVuSans-97"/>
     <use x="1113.123047" xlink:href="#DejaVuSans-108"/>
     <use x="1140.90625" xlink:href="#DejaVuSans-108"/>
     <use x="1168.689453" xlink:href="#DejaVuSans-32"/>
     <use x="1200.476562" xlink:href="#DejaVuSans-99"/>
     <use x="1255.457031" xlink:href="#DejaVuSans-117"/>
     <use x="1318.835938" xlink:href="#DejaVuSans-114"/>
     <use x="1359.949219" xlink:href="#DejaVuSans-118"/>
     <use x="1419.128906" xlink:href="#DejaVuSans-101"/>
    </g>
   </g>
  </g>
 </g>
 <defs>
  <clipPath id="p94b6d07a7e">
   <rect height="266.112" width="357.12" x="57.6" y="41.472"/>
  </clipPath>
 </defs>
</svg>
