<?xml version="1.0" encoding="utf-8" standalone="no"?>
<!DOCTYPE svg PUBLIC "-//W3C//DTD SVG 1.1//EN"
  "http://www.w3.org/Graphics/SVG/1.1/DTD/svg11.dtd">
<!-- Created with matplotlib (https://matplotlib.org/) -->
<svg height="345.6pt" version="1.1" viewBox="0 0 460.8 345.6" width="460.8pt" xmlns="http://www.w3.org/2000/svg" xmlns:xlink="http://www.w3.org/1999/xlink">
 <defs>
  <style type="text/css">
*{stroke-linecap:butt;stroke-linejoin:round;}
  </style>
 </defs>
 <g id="figure_1">
  <g id="patch_1">
   <path d="M 0 345.6 
L 460.8 345.6 
L 460.8 0 
L 0 0 
z
" style="fill:#ffffff;"/>
  </g>
  <g id="axes_1">
   <g id="patch_2">
    <path d="M 57.6 307.584 
L 414.72 307.584 
L 414.72 41.472 
L 57.6 41.472 
z
" style="fill:#ffffff;"/>
   </g>
   <g id="PolyCollection_1">
    <defs>
     <path d="M 414.72 -38.016 
L 414.72 -94.63402 
L 413.798235 -94.578703 
L 413.798235 -94.644616 
L 412.408498 -102.196858 
L 412.380136 -102.248939 
L 412.15324 -102.376076 
L 410.848588 -102.515948 
L 410.848588 -102.567389 
L 398.18496 -112.315873 
L 398.18496 -112.352168 
L 396.114534 -112.67529 
L 390.825023 -118.941848 
L 386.528182 -119.104914 
L 382.741856 -120.667158 
L 377.764327 -123.207914 
L 377.693422 -123.215685 
L 365.157422 -125.916702 
L 357.99602 -131.629132 
L 357.939296 -131.684954 
L 354.932925 -134.883792 
L 347.090834 -137.808153 
L 347.090834 -137.815853 
L 341.659513 -137.254733 
L 337.008147 -137.350162 
L 330.045278 -140.050562 
L 326.755287 -142.562548 
L 326.51421 -142.828831 
L 324.826672 -143.987628 
L 320.23203 -147.309271 
L 305.143451 -159.575835 
L 304.164962 -160.230369 
L 297.145369 -169.052959 
L 296.776664 -169.136216 
L 296.251967 -169.299605 
L 272.030827 -166.693263 
L 270.485099 -168.553339 
L 270.485099 -168.589179 
L 270.329108 -168.924802 
L 269.620058 -169.909955 
L 268.996094 -169.774041 
L 267.847434 -169.862782 
L 267.535452 -169.768845 
L 260.629307 -168.956799 
L 255.609235 -167.755798 
L 248.093307 -166.524966 
L 247.838049 -167.166906 
L 240.29376 -175.788375 
L 236.847778 -175.245335 
L 233.274167 -179.580376 
L 223.914711 -182.874147 
L 223.460919 -184.087761 
L 223.163118 -184.127896 
L 212.059399 -194.896455 
L 211.945951 -194.888211 
L 210.783109 -194.946862 
L 208.358159 -195.045994 
L 208.131263 -195.525696 
L 195.708711 -192.678082 
L 195.680349 -192.665701 
L 192.26273 -195.819832 
L 192.149282 -198.165099 
L 175.557517 -192.751314 
L 174.891011 -193.439907 
L 174.664115 -194.368081 
L 167.318359 -199.231595 
L 160.979454 -199.179433 
L 160.426396 -199.20304 
L 160.086052 -199.00843 
L 152.286504 -247.371299 
L 151.577455 -250.589963 
L 151.449826 -250.921042 
L 147.464966 -255.874014 
L 147.138803 -255.851579 
L 146.103591 -256.636462 
L 134.460994 -262.138173 
L 133.439962 -263.840245 
L 133.383238 -263.821829 
L 133.383238 -264.01022 
L 133.085437 -264.140894 
L 132.603283 -263.984334 
L 132.574921 -264.280316 
L 125.980758 -266.529029 
L 120.705428 -268.604428 
L 118.989528 -268.798869 
L 117.784143 -275.402749 
L 117.628152 -276.101113 
L 117.613971 -276.097705 
L 117.429618 -278.191957 
L 117.330351 -278.821161 
L 115.869709 -280.593442 
L 115.713718 -280.565538 
L 105.347411 -278.323654 
L 94.413863 -289.710813 
L 94.272053 -289.704111 
L 94.215329 -289.701415 
L 94.158605 -289.698712 
L 57.6 -291.456 
L 57.6 -38.016 
L 57.6 -38.016 
L 94.158605 -38.016 
L 94.215329 -38.016 
L 94.272053 -38.016 
L 94.413863 -38.016 
L 105.347411 -38.016 
L 115.713718 -38.016 
L 115.869709 -38.016 
L 117.330351 -38.016 
L 117.429618 -38.016 
L 117.613971 -38.016 
L 117.628152 -38.016 
L 117.784143 -38.016 
L 118.989528 -38.016 
L 120.705428 -38.016 
L 125.980758 -38.016 
L 132.574921 -38.016 
L 132.603283 -38.016 
L 133.085437 -38.016 
L 133.383238 -38.016 
L 133.383238 -38.016 
L 133.439962 -38.016 
L 134.460994 -38.016 
L 146.103591 -38.016 
L 147.138803 -38.016 
L 147.464966 -38.016 
L 151.449826 -38.016 
L 151.577455 -38.016 
L 152.286504 -38.016 
L 160.086052 -38.016 
L 160.426396 -38.016 
L 160.979454 -38.016 
L 167.318359 -38.016 
L 174.664115 -38.016 
L 174.891011 -38.016 
L 175.557517 -38.016 
L 192.149282 -38.016 
L 192.26273 -38.016 
L 195.680349 -38.016 
L 195.708711 -38.016 
L 208.131263 -38.016 
L 208.358159 -38.016 
L 210.783109 -38.016 
L 211.945951 -38.016 
L 212.059399 -38.016 
L 223.163118 -38.016 
L 223.460919 -38.016 
L 223.914711 -38.016 
L 233.274167 -38.016 
L 236.847778 -38.016 
L 240.29376 -38.016 
L 247.838049 -38.016 
L 248.093307 -38.016 
L 255.609235 -38.016 
L 260.629307 -38.016 
L 267.535452 -38.016 
L 267.847434 -38.016 
L 268.996094 -38.016 
L 269.620058 -38.016 
L 270.329108 -38.016 
L 270.485099 -38.016 
L 270.485099 -38.016 
L 272.030827 -38.016 
L 296.251967 -38.016 
L 296.776664 -38.016 
L 297.145369 -38.016 
L 304.164962 -38.016 
L 305.143451 -38.016 
L 320.23203 -38.016 
L 324.826672 -38.016 
L 326.51421 -38.016 
L 326.755287 -38.016 
L 330.045278 -38.016 
L 337.008147 -38.016 
L 341.659513 -38.016 
L 347.090834 -38.016 
L 347.090834 -38.016 
L 354.932925 -38.016 
L 357.939296 -38.016 
L 357.99602 -38.016 
L 365.157422 -38.016 
L 377.693422 -38.016 
L 377.764327 -38.016 
L 382.741856 -38.016 
L 386.528182 -38.016 
L 390.825023 -38.016 
L 396.114534 -38.016 
L 398.18496 -38.016 
L 398.18496 -38.016 
L 410.848588 -38.016 
L 410.848588 -38.016 
L 412.15324 -38.016 
L 412.380136 -38.016 
L 412.408498 -38.016 
L 413.798235 -38.016 
L 413.798235 -38.016 
L 414.72 -38.016 
z
" id="md54df0c037" style="stroke:#0000ff;stroke-opacity:0.2;"/>
    </defs>
    <g clip-path="url(#p5892b283d4)">
     <use style="fill:#0000ff;fill-opacity:0.2;stroke:#0000ff;stroke-opacity:0.2;" x="0" xlink:href="#md54df0c037" y="345.6"/>
    </g>
   </g>
   <g id="matplotlib.axis_1">
    <g id="xtick_1">
     <g id="line2d_1">
      <defs>
       <path d="M 0 0 
L 0 3.5 
" id="m31b51d2bc0" style="stroke:#000000;stroke-width:0.8;"/>
      </defs>
      <g>
       <use style="stroke:#000000;stroke-width:0.8;" x="57.6" xlink:href="#m31b51d2bc0" y="307.584"/>
      </g>
     </g>
     <g id="text_1">
      <!-- 0.0 -->
      <defs>
       <path d="M 31.78125 66.40625 
Q 24.171875 66.40625 20.328125 58.90625 
Q 16.5 51.421875 16.5 36.375 
Q 16.5 21.390625 20.328125 13.890625 
Q 24.171875 6.390625 31.78125 6.390625 
Q 39.453125 6.390625 43.28125 13.890625 
Q 47.125 21.390625 47.125 36.375 
Q 47.125 51.421875 43.28125 58.90625 
Q 39.453125 66.40625 31.78125 66.40625 
z
M 31.78125 74.21875 
Q 44.046875 74.21875 50.515625 64.515625 
Q 56.984375 54.828125 56.984375 36.375 
Q 56.984375 17.96875 50.515625 8.265625 
Q 44.046875 -1.421875 31.78125 -1.421875 
Q 19.53125 -1.421875 13.0625 8.265625 
Q 6.59375 17.96875 6.59375 36.375 
Q 6.59375 54.828125 13.0625 64.515625 
Q 19.53125 74.21875 31.78125 74.21875 
z
" id="DejaVuSans-48"/>
       <path d="M 10.6875 12.40625 
L 21 12.40625 
L 21 0 
L 10.6875 0 
z
" id="DejaVuSans-46"/>
      </defs>
      <g transform="translate(49.648438 322.182437)scale(0.1 -0.1)">
       <use xlink:href="#DejaVuSans-48"/>
       <use x="63.623047" xlink:href="#DejaVuSans-46"/>
       <use x="95.410156" xlink:href="#DejaVuSans-48"/>
      </g>
     </g>
    </g>
    <g id="xtick_2">
     <g id="line2d_2">
      <g>
       <use style="stroke:#000000;stroke-width:0.8;" x="129.024" xlink:href="#m31b51d2bc0" y="307.584"/>
      </g>
     </g>
     <g id="text_2">
      <!-- 0.2 -->
      <defs>
       <path d="M 19.1875 8.296875 
L 53.609375 8.296875 
L 53.609375 0 
L 7.328125 0 
L 7.328125 8.296875 
Q 12.9375 14.109375 22.625 23.890625 
Q 32.328125 33.6875 34.8125 36.53125 
Q 39.546875 41.84375 41.421875 45.53125 
Q 43.3125 49.21875 43.3125 52.78125 
Q 43.3125 58.59375 39.234375 62.25 
Q 35.15625 65.921875 28.609375 65.921875 
Q 23.96875 65.921875 18.8125 64.3125 
Q 13.671875 62.703125 7.8125 59.421875 
L 7.8125 69.390625 
Q 13.765625 71.78125 18.9375 73 
Q 24.125 74.21875 28.421875 74.21875 
Q 39.75 74.21875 46.484375 68.546875 
Q 53.21875 62.890625 53.21875 53.421875 
Q 53.21875 48.921875 51.53125 44.890625 
Q 49.859375 40.875 45.40625 35.40625 
Q 44.1875 33.984375 37.640625 27.21875 
Q 31.109375 20.453125 19.1875 8.296875 
z
" id="DejaVuSans-50"/>
      </defs>
      <g transform="translate(121.072438 322.182437)scale(0.1 -0.1)">
       <use xlink:href="#DejaVuSans-48"/>
       <use x="63.623047" xlink:href="#DejaVuSans-46"/>
       <use x="95.410156" xlink:href="#DejaVuSans-50"/>
      </g>
     </g>
    </g>
    <g id="xtick_3">
     <g id="line2d_3">
      <g>
       <use style="stroke:#000000;stroke-width:0.8;" x="200.448" xlink:href="#m31b51d2bc0" y="307.584"/>
      </g>
     </g>
     <g id="text_3">
      <!-- 0.4 -->
      <defs>
       <path d="M 37.796875 64.3125 
L 12.890625 25.390625 
L 37.796875 25.390625 
z
M 35.203125 72.90625 
L 47.609375 72.90625 
L 47.609375 25.390625 
L 58.015625 25.390625 
L 58.015625 17.1875 
L 47.609375 17.1875 
L 47.609375 0 
L 37.796875 0 
L 37.796875 17.1875 
L 4.890625 17.1875 
L 4.890625 26.703125 
z
" id="DejaVuSans-52"/>
      </defs>
      <g transform="translate(192.496438 322.182437)scale(0.1 -0.1)">
       <use xlink:href="#DejaVuSans-48"/>
       <use x="63.623047" xlink:href="#DejaVuSans-46"/>
       <use x="95.410156" xlink:href="#DejaVuSans-52"/>
      </g>
     </g>
    </g>
    <g id="xtick_4">
     <g id="line2d_4">
      <g>
       <use style="stroke:#000000;stroke-width:0.8;" x="271.872" xlink:href="#m31b51d2bc0" y="307.584"/>
      </g>
     </g>
     <g id="text_4">
      <!-- 0.6 -->
      <defs>
       <path d="M 33.015625 40.375 
Q 26.375 40.375 22.484375 35.828125 
Q 18.609375 31.296875 18.609375 23.390625 
Q 18.609375 15.53125 22.484375 10.953125 
Q 26.375 6.390625 33.015625 6.390625 
Q 39.65625 6.390625 43.53125 10.953125 
Q 47.40625 15.53125 47.40625 23.390625 
Q 47.40625 31.296875 43.53125 35.828125 
Q 39.65625 40.375 33.015625 40.375 
z
M 52.59375 71.296875 
L 52.59375 62.3125 
Q 48.875 64.0625 45.09375 64.984375 
Q 41.3125 65.921875 37.59375 65.921875 
Q 27.828125 65.921875 22.671875 59.328125 
Q 17.53125 52.734375 16.796875 39.40625 
Q 19.671875 43.65625 24.015625 45.921875 
Q 28.375 48.1875 33.59375 48.1875 
Q 44.578125 48.1875 50.953125 41.515625 
Q 57.328125 34.859375 57.328125 23.390625 
Q 57.328125 12.15625 50.6875 5.359375 
Q 44.046875 -1.421875 33.015625 -1.421875 
Q 20.359375 -1.421875 13.671875 8.265625 
Q 6.984375 17.96875 6.984375 36.375 
Q 6.984375 53.65625 15.1875 63.9375 
Q 23.390625 74.21875 37.203125 74.21875 
Q 40.921875 74.21875 44.703125 73.484375 
Q 48.484375 72.75 52.59375 71.296875 
z
" id="DejaVuSans-54"/>
      </defs>
      <g transform="translate(263.920438 322.182437)scale(0.1 -0.1)">
       <use xlink:href="#DejaVuSans-48"/>
       <use x="63.623047" xlink:href="#DejaVuSans-46"/>
       <use x="95.410156" xlink:href="#DejaVuSans-54"/>
      </g>
     </g>
    </g>
    <g id="xtick_5">
     <g id="line2d_5">
      <g>
       <use style="stroke:#000000;stroke-width:0.8;" x="343.296" xlink:href="#m31b51d2bc0" y="307.584"/>
      </g>
     </g>
     <g id="text_5">
      <!-- 0.8 -->
      <defs>
       <path d="M 31.78125 34.625 
Q 24.75 34.625 20.71875 30.859375 
Q 16.703125 27.09375 16.703125 20.515625 
Q 16.703125 13.921875 20.71875 10.15625 
Q 24.75 6.390625 31.78125 6.390625 
Q 38.8125 6.390625 42.859375 10.171875 
Q 46.921875 13.96875 46.921875 20.515625 
Q 46.921875 27.09375 42.890625 30.859375 
Q 38.875 34.625 31.78125 34.625 
z
M 21.921875 38.8125 
Q 15.578125 40.375 12.03125 44.71875 
Q 8.5 49.078125 8.5 55.328125 
Q 8.5 64.0625 14.71875 69.140625 
Q 20.953125 74.21875 31.78125 74.21875 
Q 42.671875 74.21875 48.875 69.140625 
Q 55.078125 64.0625 55.078125 55.328125 
Q 55.078125 49.078125 51.53125 44.71875 
Q 48 40.375 41.703125 38.8125 
Q 48.828125 37.15625 52.796875 32.3125 
Q 56.78125 27.484375 56.78125 20.515625 
Q 56.78125 9.90625 50.3125 4.234375 
Q 43.84375 -1.421875 31.78125 -1.421875 
Q 19.734375 -1.421875 13.25 4.234375 
Q 6.78125 9.90625 6.78125 20.515625 
Q 6.78125 27.484375 10.78125 32.3125 
Q 14.796875 37.15625 21.921875 38.8125 
z
M 18.3125 54.390625 
Q 18.3125 48.734375 21.84375 45.5625 
Q 25.390625 42.390625 31.78125 42.390625 
Q 38.140625 42.390625 41.71875 45.5625 
Q 45.3125 48.734375 45.3125 54.390625 
Q 45.3125 60.0625 41.71875 63.234375 
Q 38.140625 66.40625 31.78125 66.40625 
Q 25.390625 66.40625 21.84375 63.234375 
Q 18.3125 60.0625 18.3125 54.390625 
z
" id="DejaVuSans-56"/>
      </defs>
      <g transform="translate(335.344438 322.182437)scale(0.1 -0.1)">
       <use xlink:href="#DejaVuSans-48"/>
       <use x="63.623047" xlink:href="#DejaVuSans-46"/>
       <use x="95.410156" xlink:href="#DejaVuSans-56"/>
      </g>
     </g>
    </g>
    <g id="xtick_6">
     <g id="line2d_6">
      <g>
       <use style="stroke:#000000;stroke-width:0.8;" x="414.72" xlink:href="#m31b51d2bc0" y="307.584"/>
      </g>
     </g>
     <g id="text_6">
      <!-- 1.0 -->
      <defs>
       <path d="M 12.40625 8.296875 
L 28.515625 8.296875 
L 28.515625 63.921875 
L 10.984375 60.40625 
L 10.984375 69.390625 
L 28.421875 72.90625 
L 38.28125 72.90625 
L 38.28125 8.296875 
L 54.390625 8.296875 
L 54.390625 0 
L 12.40625 0 
z
" id="DejaVuSans-49"/>
      </defs>
      <g transform="translate(406.768438 322.182437)scale(0.1 -0.1)">
       <use xlink:href="#DejaVuSans-49"/>
       <use x="63.623047" xlink:href="#DejaVuSans-46"/>
       <use x="95.410156" xlink:href="#DejaVuSans-48"/>
      </g>
     </g>
    </g>
    <g id="text_7">
     <!-- Recall -->
     <defs>
      <path d="M 44.390625 34.1875 
Q 47.5625 33.109375 50.5625 29.59375 
Q 53.5625 26.078125 56.59375 19.921875 
L 66.609375 0 
L 56 0 
L 46.6875 18.703125 
Q 43.0625 26.03125 39.671875 28.421875 
Q 36.28125 30.8125 30.421875 30.8125 
L 19.671875 30.8125 
L 19.671875 0 
L 9.8125 0 
L 9.8125 72.90625 
L 32.078125 72.90625 
Q 44.578125 72.90625 50.734375 67.671875 
Q 56.890625 62.453125 56.890625 51.90625 
Q 56.890625 45.015625 53.6875 40.46875 
Q 50.484375 35.9375 44.390625 34.1875 
z
M 19.671875 64.796875 
L 19.671875 38.921875 
L 32.078125 38.921875 
Q 39.203125 38.921875 42.84375 42.21875 
Q 46.484375 45.515625 46.484375 51.90625 
Q 46.484375 58.296875 42.84375 61.546875 
Q 39.203125 64.796875 32.078125 64.796875 
z
" id="DejaVuSans-82"/>
      <path d="M 56.203125 29.59375 
L 56.203125 25.203125 
L 14.890625 25.203125 
Q 15.484375 15.921875 20.484375 11.0625 
Q 25.484375 6.203125 34.421875 6.203125 
Q 39.59375 6.203125 44.453125 7.46875 
Q 49.3125 8.734375 54.109375 11.28125 
L 54.109375 2.78125 
Q 49.265625 0.734375 44.1875 -0.34375 
Q 39.109375 -1.421875 33.890625 -1.421875 
Q 20.796875 -1.421875 13.15625 6.1875 
Q 5.515625 13.8125 5.515625 26.8125 
Q 5.515625 40.234375 12.765625 48.109375 
Q 20.015625 56 32.328125 56 
Q 43.359375 56 49.78125 48.890625 
Q 56.203125 41.796875 56.203125 29.59375 
z
M 47.21875 32.234375 
Q 47.125 39.59375 43.09375 43.984375 
Q 39.0625 48.390625 32.421875 48.390625 
Q 24.90625 48.390625 20.390625 44.140625 
Q 15.875 39.890625 15.1875 32.171875 
z
" id="DejaVuSans-101"/>
      <path d="M 48.78125 52.59375 
L 48.78125 44.1875 
Q 44.96875 46.296875 41.140625 47.34375 
Q 37.3125 48.390625 33.40625 48.390625 
Q 24.65625 48.390625 19.8125 42.84375 
Q 14.984375 37.3125 14.984375 27.296875 
Q 14.984375 17.28125 19.8125 11.734375 
Q 24.65625 6.203125 33.40625 6.203125 
Q 37.3125 6.203125 41.140625 7.25 
Q 44.96875 8.296875 48.78125 10.40625 
L 48.78125 2.09375 
Q 45.015625 0.34375 40.984375 -0.53125 
Q 36.96875 -1.421875 32.421875 -1.421875 
Q 20.0625 -1.421875 12.78125 6.34375 
Q 5.515625 14.109375 5.515625 27.296875 
Q 5.515625 40.671875 12.859375 48.328125 
Q 20.21875 56 33.015625 56 
Q 37.15625 56 41.109375 55.140625 
Q 45.0625 54.296875 48.78125 52.59375 
z
" id="DejaVuSans-99"/>
      <path d="M 34.28125 27.484375 
Q 23.390625 27.484375 19.1875 25 
Q 14.984375 22.515625 14.984375 16.5 
Q 14.984375 11.71875 18.140625 8.90625 
Q 21.296875 6.109375 26.703125 6.109375 
Q 34.1875 6.109375 38.703125 11.40625 
Q 43.21875 16.703125 43.21875 25.484375 
L 43.21875 27.484375 
z
M 52.203125 31.203125 
L 52.203125 0 
L 43.21875 0 
L 43.21875 8.296875 
Q 40.140625 3.328125 35.546875 0.953125 
Q 30.953125 -1.421875 24.3125 -1.421875 
Q 15.921875 -1.421875 10.953125 3.296875 
Q 6 8.015625 6 15.921875 
Q 6 25.140625 12.171875 29.828125 
Q 18.359375 34.515625 30.609375 34.515625 
L 43.21875 34.515625 
L 43.21875 35.40625 
Q 43.21875 41.609375 39.140625 45 
Q 35.0625 48.390625 27.6875 48.390625 
Q 23 48.390625 18.546875 47.265625 
Q 14.109375 46.140625 10.015625 43.890625 
L 10.015625 52.203125 
Q 14.9375 54.109375 19.578125 55.046875 
Q 24.21875 56 28.609375 56 
Q 40.484375 56 46.34375 49.84375 
Q 52.203125 43.703125 52.203125 31.203125 
z
" id="DejaVuSans-97"/>
      <path d="M 9.421875 75.984375 
L 18.40625 75.984375 
L 18.40625 0 
L 9.421875 0 
z
" id="DejaVuSans-108"/>
     </defs>
     <g transform="translate(221.020938 335.860562)scale(0.1 -0.1)">
      <use xlink:href="#DejaVuSans-82"/>
      <use x="69.419922" xlink:href="#DejaVuSans-101"/>
      <use x="130.943359" xlink:href="#DejaVuSans-99"/>
      <use x="185.923828" xlink:href="#DejaVuSans-97"/>
      <use x="247.203125" xlink:href="#DejaVuSans-108"/>
      <use x="274.986328" xlink:href="#DejaVuSans-108"/>
     </g>
    </g>
   </g>
   <g id="matplotlib.axis_2">
    <g id="ytick_1">
     <g id="line2d_7">
      <defs>
       <path d="M 0 0 
L -3.5 0 
" id="mc34f3d0217" style="stroke:#000000;stroke-width:0.8;"/>
      </defs>
      <g>
       <use style="stroke:#000000;stroke-width:0.8;" x="57.6" xlink:href="#mc34f3d0217" y="307.584"/>
      </g>
     </g>
     <g id="text_8">
      <!-- 0.0 -->
      <g transform="translate(34.696875 311.383219)scale(0.1 -0.1)">
       <use xlink:href="#DejaVuSans-48"/>
       <use x="63.623047" xlink:href="#DejaVuSans-46"/>
       <use x="95.410156" xlink:href="#DejaVuSans-48"/>
      </g>
     </g>
    </g>
    <g id="ytick_2">
     <g id="line2d_8">
      <g>
       <use style="stroke:#000000;stroke-width:0.8;" x="57.6" xlink:href="#mc34f3d0217" y="256.896"/>
      </g>
     </g>
     <g id="text_9">
      <!-- 0.2 -->
      <g transform="translate(34.696875 260.695219)scale(0.1 -0.1)">
       <use xlink:href="#DejaVuSans-48"/>
       <use x="63.623047" xlink:href="#DejaVuSans-46"/>
       <use x="95.410156" xlink:href="#DejaVuSans-50"/>
      </g>
     </g>
    </g>
    <g id="ytick_3">
     <g id="line2d_9">
      <g>
       <use style="stroke:#000000;stroke-width:0.8;" x="57.6" xlink:href="#mc34f3d0217" y="206.208"/>
      </g>
     </g>
     <g id="text_10">
      <!-- 0.4 -->
      <g transform="translate(34.696875 210.007219)scale(0.1 -0.1)">
       <use xlink:href="#DejaVuSans-48"/>
       <use x="63.623047" xlink:href="#DejaVuSans-46"/>
       <use x="95.410156" xlink:href="#DejaVuSans-52"/>
      </g>
     </g>
    </g>
    <g id="ytick_4">
     <g id="line2d_10">
      <g>
       <use style="stroke:#000000;stroke-width:0.8;" x="57.6" xlink:href="#mc34f3d0217" y="155.52"/>
      </g>
     </g>
     <g id="text_11">
      <!-- 0.6 -->
      <g transform="translate(34.696875 159.319219)scale(0.1 -0.1)">
       <use xlink:href="#DejaVuSans-48"/>
       <use x="63.623047" xlink:href="#DejaVuSans-46"/>
       <use x="95.410156" xlink:href="#DejaVuSans-54"/>
      </g>
     </g>
    </g>
    <g id="ytick_5">
     <g id="line2d_11">
      <g>
       <use style="stroke:#000000;stroke-width:0.8;" x="57.6" xlink:href="#mc34f3d0217" y="104.832"/>
      </g>
     </g>
     <g id="text_12">
      <!-- 0.8 -->
      <g transform="translate(34.696875 108.631219)scale(0.1 -0.1)">
       <use xlink:href="#DejaVuSans-48"/>
       <use x="63.623047" xlink:href="#DejaVuSans-46"/>
       <use x="95.410156" xlink:href="#DejaVuSans-56"/>
      </g>
     </g>
    </g>
    <g id="ytick_6">
     <g id="line2d_12">
      <g>
       <use style="stroke:#000000;stroke-width:0.8;" x="57.6" xlink:href="#mc34f3d0217" y="54.144"/>
      </g>
     </g>
     <g id="text_13">
      <!-- 1.0 -->
      <g transform="translate(34.696875 57.943219)scale(0.1 -0.1)">
       <use xlink:href="#DejaVuSans-49"/>
       <use x="63.623047" xlink:href="#DejaVuSans-46"/>
       <use x="95.410156" xlink:href="#DejaVuSans-48"/>
      </g>
     </g>
    </g>
    <g id="text_14">
     <!-- Precision -->
     <defs>
      <path d="M 19.671875 64.796875 
L 19.671875 37.40625 
L 32.078125 37.40625 
Q 38.96875 37.40625 42.71875 40.96875 
Q 46.484375 44.53125 46.484375 51.125 
Q 46.484375 57.671875 42.71875 61.234375 
Q 38.96875 64.796875 32.078125 64.796875 
z
M 9.8125 72.90625 
L 32.078125 72.90625 
Q 44.34375 72.90625 50.609375 67.359375 
Q 56.890625 61.8125 56.890625 51.125 
Q 56.890625 40.328125 50.609375 34.8125 
Q 44.34375 29.296875 32.078125 29.296875 
L 19.671875 29.296875 
L 19.671875 0 
L 9.8125 0 
z
" id="DejaVuSans-80"/>
      <path d="M 41.109375 46.296875 
Q 39.59375 47.171875 37.8125 47.578125 
Q 36.03125 48 33.890625 48 
Q 26.265625 48 22.1875 43.046875 
Q 18.109375 38.09375 18.109375 28.8125 
L 18.109375 0 
L 9.078125 0 
L 9.078125 54.6875 
L 18.109375 54.6875 
L 18.109375 46.1875 
Q 20.953125 51.171875 25.484375 53.578125 
Q 30.03125 56 36.53125 56 
Q 37.453125 56 38.578125 55.875 
Q 39.703125 55.765625 41.0625 55.515625 
z
" id="DejaVuSans-114"/>
      <path d="M 9.421875 54.6875 
L 18.40625 54.6875 
L 18.40625 0 
L 9.421875 0 
z
M 9.421875 75.984375 
L 18.40625 75.984375 
L 18.40625 64.59375 
L 9.421875 64.59375 
z
" id="DejaVuSans-105"/>
      <path d="M 44.28125 53.078125 
L 44.28125 44.578125 
Q 40.484375 46.53125 36.375 47.5 
Q 32.28125 48.484375 27.875 48.484375 
Q 21.1875 48.484375 17.84375 46.4375 
Q 14.5 44.390625 14.5 40.28125 
Q 14.5 37.15625 16.890625 35.375 
Q 19.28125 33.59375 26.515625 31.984375 
L 29.59375 31.296875 
Q 39.15625 29.25 43.1875 25.515625 
Q 47.21875 21.78125 47.21875 15.09375 
Q 47.21875 7.46875 41.1875 3.015625 
Q 35.15625 -1.421875 24.609375 -1.421875 
Q 20.21875 -1.421875 15.453125 -0.5625 
Q 10.6875 0.296875 5.421875 2 
L 5.421875 11.28125 
Q 10.40625 8.6875 15.234375 7.390625 
Q 20.0625 6.109375 24.8125 6.109375 
Q 31.15625 6.109375 34.5625 8.28125 
Q 37.984375 10.453125 37.984375 14.40625 
Q 37.984375 18.0625 35.515625 20.015625 
Q 33.0625 21.96875 24.703125 23.78125 
L 21.578125 24.515625 
Q 13.234375 26.265625 9.515625 29.90625 
Q 5.8125 33.546875 5.8125 39.890625 
Q 5.8125 47.609375 11.28125 51.796875 
Q 16.75 56 26.8125 56 
Q 31.78125 56 36.171875 55.265625 
Q 40.578125 54.546875 44.28125 53.078125 
z
" id="DejaVuSans-115"/>
      <path d="M 30.609375 48.390625 
Q 23.390625 48.390625 19.1875 42.75 
Q 14.984375 37.109375 14.984375 27.296875 
Q 14.984375 17.484375 19.15625 11.84375 
Q 23.34375 6.203125 30.609375 6.203125 
Q 37.796875 6.203125 41.984375 11.859375 
Q 46.1875 17.53125 46.1875 27.296875 
Q 46.1875 37.015625 41.984375 42.703125 
Q 37.796875 48.390625 30.609375 48.390625 
z
M 30.609375 56 
Q 42.328125 56 49.015625 48.375 
Q 55.71875 40.765625 55.71875 27.296875 
Q 55.71875 13.875 49.015625 6.21875 
Q 42.328125 -1.421875 30.609375 -1.421875 
Q 18.84375 -1.421875 12.171875 6.21875 
Q 5.515625 13.875 5.515625 27.296875 
Q 5.515625 40.765625 12.171875 48.375 
Q 18.84375 56 30.609375 56 
z
" id="DejaVuSans-111"/>
      <path d="M 54.890625 33.015625 
L 54.890625 0 
L 45.90625 0 
L 45.90625 32.71875 
Q 45.90625 40.484375 42.875 44.328125 
Q 39.84375 48.1875 33.796875 48.1875 
Q 26.515625 48.1875 22.3125 43.546875 
Q 18.109375 38.921875 18.109375 30.90625 
L 18.109375 0 
L 9.078125 0 
L 9.078125 54.6875 
L 18.109375 54.6875 
L 18.109375 46.1875 
Q 21.34375 51.125 25.703125 53.5625 
Q 30.078125 56 35.796875 56 
Q 45.21875 56 50.046875 50.171875 
Q 54.890625 44.34375 54.890625 33.015625 
z
" id="DejaVuSans-110"/>
     </defs>
     <g transform="translate(28.617187 197.032688)rotate(-90)scale(0.1 -0.1)">
      <use xlink:href="#DejaVuSans-80"/>
      <use x="60.287109" xlink:href="#DejaVuSans-114"/>
      <use x="101.369141" xlink:href="#DejaVuSans-101"/>
      <use x="162.892578" xlink:href="#DejaVuSans-99"/>
      <use x="217.873047" xlink:href="#DejaVuSans-105"/>
      <use x="245.65625" xlink:href="#DejaVuSans-115"/>
      <use x="297.755859" xlink:href="#DejaVuSans-105"/>
      <use x="325.539062" xlink:href="#DejaVuSans-111"/>
      <use x="386.720703" xlink:href="#DejaVuSans-110"/>
     </g>
    </g>
   </g>
   <g id="line2d_13">
    <path clip-path="url(#p5892b283d4)" d="M 414.72 250.96598 
L 412.408498 250.955384 
L 412.380136 243.351061 
L 412.15324 243.351061 
L 412.15324 243.223924 
L 410.848588 243.223924 
L 410.848588 243.032611 
L 398.18496 243.032611 
L 398.18496 233.247832 
L 396.114534 233.247832 
L 396.114534 232.92471 
L 390.825023 232.92471 
L 390.825023 226.658152 
L 386.528182 226.658152 
L 386.528182 226.495086 
L 382.741856 226.495086 
L 382.741856 224.932842 
L 377.764327 224.932842 
L 377.693422 222.384315 
L 365.157422 222.384315 
L 365.157422 219.683298 
L 357.99602 219.683298 
L 357.939296 213.915046 
L 354.932925 213.915046 
L 354.932925 210.716208 
L 347.090834 210.716208 
L 347.090834 207.784147 
L 341.659513 207.784147 
L 341.659513 208.345267 
L 330.045278 208.249838 
L 330.045278 205.549438 
L 326.755287 205.549438 
L 326.755287 203.037452 
L 326.51421 203.037452 
L 326.51421 202.771169 
L 324.826672 202.771169 
L 324.826672 201.612372 
L 320.23203 201.612372 
L 320.23203 198.290729 
L 305.143451 198.290729 
L 305.143451 186.024165 
L 304.164962 186.024165 
L 304.164962 185.369631 
L 297.145369 185.369631 
L 297.145369 176.547041 
L 296.251967 176.463784 
L 296.251967 176.300395 
L 272.030827 176.300395 
L 272.030827 178.906737 
L 270.485099 178.906737 
L 270.485099 177.010821 
L 270.329108 177.010821 
L 270.329108 176.675198 
L 269.620058 176.675198 
L 269.620058 175.690045 
L 268.996094 175.690045 
L 268.996094 175.825959 
L 260.629307 175.831155 
L 260.629307 176.643201 
L 255.609235 176.643201 
L 255.609235 177.844202 
L 248.093307 177.844202 
L 248.093307 179.075034 
L 247.838049 179.075034 
L 247.838049 178.433094 
L 240.29376 178.433094 
L 240.29376 169.811625 
L 236.847778 169.811625 
L 236.847778 170.354665 
L 233.274167 170.354665 
L 233.274167 166.019624 
L 223.914711 166.019624 
L 223.914711 162.725853 
L 223.460919 162.725853 
L 223.460919 161.512239 
L 212.059399 161.472104 
L 212.059399 150.703545 
L 208.358159 150.653138 
L 208.358159 150.554006 
L 208.131263 150.554006 
L 208.131263 150.074304 
L 195.708711 150.074304 
L 195.680349 152.934299 
L 192.26273 152.934299 
L 192.26273 149.780168 
L 192.149282 149.780168 
L 192.149282 147.434901 
L 175.557517 147.434901 
L 175.557517 152.848686 
L 174.891011 152.848686 
L 174.891011 152.160093 
L 174.664115 152.160093 
L 174.664115 151.231919 
L 167.318359 151.231919 
L 167.318359 146.368405 
L 160.086052 146.39696 
L 160.086052 146.59157 
L 152.286504 146.59157 
L 152.286504 98.228701 
L 151.577455 98.228701 
L 151.577455 95.010037 
L 151.449826 95.010037 
L 151.449826 94.678958 
L 147.464966 94.678958 
L 147.464966 89.725986 
L 146.103591 89.748421 
L 146.103591 88.963538 
L 134.460994 88.963538 
L 134.460994 83.461827 
L 133.439962 83.461827 
L 133.383238 81.58978 
L 133.085437 81.58978 
L 133.085437 81.459106 
L 132.603283 81.459106 
L 132.603283 81.615666 
L 132.574921 81.319684 
L 125.980758 81.319684 
L 125.980758 79.070971 
L 120.705428 79.070971 
L 120.705428 76.995572 
L 118.989528 76.995572 
L 118.989528 76.801131 
L 117.784143 76.801131 
L 117.784143 70.197251 
L 117.628152 70.197251 
L 117.628152 69.498887 
L 117.613971 69.502295 
L 117.429618 69.502295 
L 117.330351 66.778839 
L 115.869709 66.778839 
L 115.869709 65.006558 
L 105.347411 65.034462 
L 105.347411 67.276346 
L 94.413863 67.276346 
L 94.413863 55.889187 
L 57.6 55.901288 
L 57.6 54.144 
L 57.6 54.144 
" style="fill:none;stroke:#0000ff;stroke-linecap:square;stroke-opacity:0.2;stroke-width:1.5;"/>
   </g>
   <g id="patch_3">
    <path d="M 57.6 307.584 
L 57.6 41.472 
" style="fill:none;stroke:#000000;stroke-linecap:square;stroke-linejoin:miter;stroke-width:0.8;"/>
   </g>
   <g id="patch_4">
    <path d="M 414.72 307.584 
L 414.72 41.472 
" style="fill:none;stroke:#000000;stroke-linecap:square;stroke-linejoin:miter;stroke-width:0.8;"/>
   </g>
   <g id="patch_5">
    <path d="M 57.6 307.584 
L 414.72 307.584 
" style="fill:none;stroke:#000000;stroke-linecap:square;stroke-linejoin:miter;stroke-width:0.8;"/>
   </g>
   <g id="patch_6">
    <path d="M 57.6 41.472 
L 414.72 41.472 
" style="fill:none;stroke:#000000;stroke-linecap:square;stroke-linejoin:miter;stroke-width:0.8;"/>
   </g>
   <g id="text_15">
    <!-- 2-class Precision-Recall curve -->
    <defs>
     <path d="M 4.890625 31.390625 
L 31.203125 31.390625 
L 31.203125 23.390625 
L 4.890625 23.390625 
z
" id="DejaVuSans-45"/>
     <path id="DejaVuSans-32"/>
     <path d="M 8.5 21.578125 
L 8.5 54.6875 
L 17.484375 54.6875 
L 17.484375 21.921875 
Q 17.484375 14.15625 20.5 10.265625 
Q 23.53125 6.390625 29.59375 6.390625 
Q 36.859375 6.390625 41.078125 11.03125 
Q 45.3125 15.671875 45.3125 23.6875 
L 45.3125 54.6875 
L 54.296875 54.6875 
L 54.296875 0 
L 45.3125 0 
L 45.3125 8.40625 
Q 42.046875 3.421875 37.71875 1 
Q 33.40625 -1.421875 27.6875 -1.421875 
Q 18.265625 -1.421875 13.375 4.4375 
Q 8.5 10.296875 8.5 21.578125 
z
M 31.109375 56 
z
" id="DejaVuSans-117"/>
     <path d="M 2.984375 54.6875 
L 12.5 54.6875 
L 29.59375 8.796875 
L 46.6875 54.6875 
L 56.203125 54.6875 
L 35.6875 0 
L 23.484375 0 
z
" id="DejaVuSans-118"/>
    </defs>
    <g transform="translate(147.321562 35.472)scale(0.12 -0.12)">
     <use xlink:href="#DejaVuSans-50"/>
     <use x="63.623047" xlink:href="#DejaVuSans-45"/>
     <use x="99.707031" xlink:href="#DejaVuSans-99"/>
     <use x="154.6875" xlink:href="#DejaVuSans-108"/>
     <use x="182.470703" xlink:href="#DejaVuSans-97"/>
     <use x="243.75" xlink:href="#DejaVuSans-115"/>
     <use x="295.849609" xlink:href="#DejaVuSans-115"/>
     <use x="347.949219" xlink:href="#DejaVuSans-32"/>
     <use x="379.736328" xlink:href="#DejaVuSans-80"/>
     <use x="440.023438" xlink:href="#DejaVuSans-114"/>
     <use x="481.105469" xlink:href="#DejaVuSans-101"/>
     <use x="542.628906" xlink:href="#DejaVuSans-99"/>
     <use x="597.609375" xlink:href="#DejaVuSans-105"/>
     <use x="625.392578" xlink:href="#DejaVuSans-115"/>
     <use x="677.492188" xlink:href="#DejaVuSans-105"/>
     <use x="705.275391" xlink:href="#DejaVuSans-111"/>
     <use x="766.457031" xlink:href="#DejaVuSans-110"/>
     <use x="829.835938" xlink:href="#DejaVuSans-45"/>
     <use x="865.919922" xlink:href="#DejaVuSans-82"/>
     <use x="935.339844" xlink:href="#DejaVuSans-101"/>
     <use x="996.863281" xlink:href="#DejaVuSans-99"/>
     <use x="1051.84375" xlink:href="#DejaVuSans-97"/>
     <use x="1113.123047" xlink:href="#DejaVuSans-108"/>
     <use x="1140.90625" xlink:href="#DejaVuSans-108"/>
     <use x="1168.689453" xlink:href="#DejaVuSans-32"/>
     <use x="1200.476562" xlink:href="#DejaVuSans-99"/>
     <use x="1255.457031" xlink:href="#DejaVuSans-117"/>
     <use x="1318.835938" xlink:href="#DejaVuSans-114"/>
     <use x="1359.949219" xlink:href="#DejaVuSans-118"/>
     <use x="1419.128906" xlink:href="#DejaVuSans-101"/>
    </g>
   </g>
  </g>
 </g>
 <defs>
  <clipPath id="p5892b283d4">
   <rect height="266.112" width="357.12" x="57.6" y="41.472"/>
  </clipPath>
 </defs>
</svg>
