<?xml version="1.0" encoding="utf-8" standalone="no"?>
<!DOCTYPE svg PUBLIC "-//W3C//DTD SVG 1.1//EN"
  "http://www.w3.org/Graphics/SVG/1.1/DTD/svg11.dtd">
<!-- Created with matplotlib (https://matplotlib.org/) -->
<svg height="345.6pt" version="1.1" viewBox="0 0 460.8 345.6" width="460.8pt" xmlns="http://www.w3.org/2000/svg" xmlns:xlink="http://www.w3.org/1999/xlink">
 <defs>
  <style type="text/css">
*{stroke-linecap:butt;stroke-linejoin:round;}
  </style>
 </defs>
 <g id="figure_1">
  <g id="patch_1">
   <path d="M 0 345.6 
L 460.8 345.6 
L 460.8 0 
L 0 0 
z
" style="fill:#ffffff;"/>
  </g>
  <g id="axes_1">
   <g id="patch_2">
    <path d="M 57.6 307.584 
L 414.72 307.584 
L 414.72 41.472 
L 57.6 41.472 
z
" style="fill:#ffffff;"/>
   </g>
   <g id="PolyCollection_1">
    <defs>
     <path d="M 414.72 -38.016 
L 414.72 -94.252614 
L 397.11312 -224.689869 
L 397.08905 -224.935289 
L 397.077016 -225.046021 
L 397.052946 -225.258093 
L 397.028876 -225.485426 
L 396.980737 -225.793725 
L 396.932598 -226.093227 
L 396.908529 -226.248327 
L 396.896494 -226.321018 
L 396.872424 -226.461615 
L 396.86039 -226.529512 
L 396.83632 -226.645544 
L 396.788181 -226.828164 
L 396.752077 -226.927912 
L 396.655798 -227.334974 
L 396.511381 -227.797792 
L 396.427138 -227.957696 
L 396.354929 -228.190587 
L 396.330859 -228.207496 
L 396.28272 -228.378412 
L 396.198477 -228.600658 
L 396.126268 -228.804786 
L 396.102199 -228.883165 
L 395.921677 -229.375725 
L 395.801329 -229.657666 
L 395.584703 -230.279883 
L 395.536564 -230.41361 
L 395.247729 -230.848691 
L 395.187555 -231.034175 
L 394.561747 -232.668765 
L 394.369191 -232.974669 
L 394.284947 -233.178055 
L 394.14053 -233.503289 
L 394.104425 -233.58481 
L 394.032217 -233.737296 
L 393.442513 -234.813168 
L 393.406408 -234.885138 
L 393.213852 -235.244444 
L 393.177748 -235.311317 
L 393.093504 -235.465748 
L 392.852809 -235.816075 
L 392.636183 -236.204656 
L 390.650444 -239.512741 
L 390.578235 -239.637033 
L 390.469922 -239.791912 
L 390.349575 -239.992208 
L 390.241262 -240.171189 
L 389.856149 -240.679911 
L 389.675627 -240.975424 
L 389.013714 -241.902264 
L 388.929471 -242.0352 
L 388.833193 -242.119146 
L 388.484184 -242.56245 
L 388.42401 -242.639378 
L 388.327732 -242.778293 
L 388.219419 -242.934141 
L 386.065194 -245.875184 
L 385.776359 -246.224217 
L 385.631942 -246.396262 
L 385.535664 -246.593063 
L 385.391246 -246.766008 
L 385.246829 -246.901444 
L 384.813577 -247.27775 
L 384.729333 -247.376464 
L 384.440499 -247.797272 
L 384.259977 -247.994997 
L 383.983177 -248.279171 
L 383.790621 -248.528634 
L 383.706377 -248.577511 
L 383.598064 -248.688437 
L 376.064293 -256.412811 
L 375.943946 -256.536645 
L 375.486624 -256.979273 
L 375.402381 -257.043035 
L 375.197789 -257.217678 
L 374.860816 -257.553518 
L 374.704363 -257.669002 
L 374.427564 -257.896749 
L 373.26019 -258.877112 
L 373.151877 -258.970175 
L 370.744921 -261.460204 
L 370.660678 -261.52884 
L 370.600504 -261.57683 
L 370.407948 -261.879674 
L 369.914522 -262.242832 
L 369.433131 -262.678465 
L 369.324818 -262.754202 
L 368.915635 -263.044692 
L 368.771218 -263.141211 
L 368.686974 -263.196303 
L 368.494418 -263.320227 
L 352.006772 -273.012123 
L 351.802181 -273.142916 
L 351.477242 -273.338688 
L 351.128233 -273.462088 
L 350.947712 -273.550543 
L 349.792373 -274.144392 
L 349.118426 -274.470844 
L 348.251922 -274.835215 
L 347.951052 -275.18653 
L 345.544097 -276.270113 
L 345.122879 -276.493158 
L 344.990497 -276.552465 
L 344.894219 -276.594796 
L 344.473001 -276.753375 
L 344.027714 -276.920943 
L 343.690741 -277.056457 
L 343.293593 -277.132576 
L 343.113071 -277.200126 
L 335.134014 -280.08773 
L 334.869249 -280.177752 
L 334.327683 -280.327824 
L 333.810188 -280.46948 
L 333.641701 -280.52375 
L 333.497284 -280.568893 
L 332.161423 -281.242492 
L 331.968867 -281.297058 
L 331.728171 -281.350021 
L 330.681146 -281.580738 
L 328.045529 -282.281898 
L 327.732625 -282.355586 
L 327.46786 -282.410021 
L 326.541182 -282.569896 
L 323.845392 -283.038642 
L 323.291792 -283.139757 
L 322.425288 -283.285909 
L 321.667097 -283.382241 
L 321.065358 -283.472932 
L 320.487689 -283.543025 
L 320.006298 -283.594427 
L 319.669324 -283.639278 
L 319.380489 -283.663753 
L 319.07962 -283.687941 
L 318.971307 -283.695786 
L 318.718577 -283.699481 
L 318.465846 -283.714173 
L 317.960386 -283.732634 
L 317.587307 -283.743944 
L 317.358647 -283.7484 
L 316.63656 -283.760777 
L 315.986682 -283.753109 
L 57.6 -291.456 
L 57.6 -38.016 
L 57.6 -38.016 
L 315.986682 -38.016 
L 316.63656 -38.016 
L 317.358647 -38.016 
L 317.587307 -38.016 
L 317.960386 -38.016 
L 318.465846 -38.016 
L 318.718577 -38.016 
L 318.971307 -38.016 
L 319.07962 -38.016 
L 319.380489 -38.016 
L 319.669324 -38.016 
L 320.006298 -38.016 
L 320.487689 -38.016 
L 321.065358 -38.016 
L 321.667097 -38.016 
L 322.425288 -38.016 
L 323.291792 -38.016 
L 323.845392 -38.016 
L 326.541182 -38.016 
L 327.46786 -38.016 
L 327.732625 -38.016 
L 328.045529 -38.016 
L 330.681146 -38.016 
L 331.728171 -38.016 
L 331.968867 -38.016 
L 332.161423 -38.016 
L 333.497284 -38.016 
L 333.641701 -38.016 
L 333.810188 -38.016 
L 334.327683 -38.016 
L 334.869249 -38.016 
L 335.134014 -38.016 
L 343.113071 -38.016 
L 343.293593 -38.016 
L 343.690741 -38.016 
L 344.027714 -38.016 
L 344.473001 -38.016 
L 344.894219 -38.016 
L 344.990497 -38.016 
L 345.122879 -38.016 
L 345.544097 -38.016 
L 347.951052 -38.016 
L 348.251922 -38.016 
L 349.118426 -38.016 
L 349.792373 -38.016 
L 350.947712 -38.016 
L 351.128233 -38.016 
L 351.477242 -38.016 
L 351.802181 -38.016 
L 352.006772 -38.016 
L 368.494418 -38.016 
L 368.686974 -38.016 
L 368.771218 -38.016 
L 368.915635 -38.016 
L 369.324818 -38.016 
L 369.433131 -38.016 
L 369.914522 -38.016 
L 370.407948 -38.016 
L 370.600504 -38.016 
L 370.660678 -38.016 
L 370.744921 -38.016 
L 373.151877 -38.016 
L 373.26019 -38.016 
L 374.427564 -38.016 
L 374.704363 -38.016 
L 374.860816 -38.016 
L 375.197789 -38.016 
L 375.402381 -38.016 
L 375.486624 -38.016 
L 375.943946 -38.016 
L 376.064293 -38.016 
L 383.598064 -38.016 
L 383.706377 -38.016 
L 383.790621 -38.016 
L 383.983177 -38.016 
L 384.259977 -38.016 
L 384.440499 -38.016 
L 384.729333 -38.016 
L 384.813577 -38.016 
L 385.246829 -38.016 
L 385.391246 -38.016 
L 385.535664 -38.016 
L 385.631942 -38.016 
L 385.776359 -38.016 
L 386.065194 -38.016 
L 388.219419 -38.016 
L 388.327732 -38.016 
L 388.42401 -38.016 
L 388.484184 -38.016 
L 388.833193 -38.016 
L 388.929471 -38.016 
L 389.013714 -38.016 
L 389.675627 -38.016 
L 389.856149 -38.016 
L 390.241262 -38.016 
L 390.349575 -38.016 
L 390.469922 -38.016 
L 390.578235 -38.016 
L 390.650444 -38.016 
L 392.636183 -38.016 
L 392.852809 -38.016 
L 393.093504 -38.016 
L 393.177748 -38.016 
L 393.213852 -38.016 
L 393.406408 -38.016 
L 393.442513 -38.016 
L 394.032217 -38.016 
L 394.104425 -38.016 
L 394.14053 -38.016 
L 394.284947 -38.016 
L 394.369191 -38.016 
L 394.561747 -38.016 
L 395.187555 -38.016 
L 395.247729 -38.016 
L 395.536564 -38.016 
L 395.584703 -38.016 
L 395.801329 -38.016 
L 395.921677 -38.016 
L 396.102199 -38.016 
L 396.126268 -38.016 
L 396.198477 -38.016 
L 396.28272 -38.016 
L 396.330859 -38.016 
L 396.354929 -38.016 
L 396.427138 -38.016 
L 396.511381 -38.016 
L 396.655798 -38.016 
L 396.752077 -38.016 
L 396.788181 -38.016 
L 396.83632 -38.016 
L 396.86039 -38.016 
L 396.872424 -38.016 
L 396.896494 -38.016 
L 396.908529 -38.016 
L 396.932598 -38.016 
L 396.980737 -38.016 
L 397.028876 -38.016 
L 397.052946 -38.016 
L 397.077016 -38.016 
L 397.08905 -38.016 
L 397.11312 -38.016 
L 414.72 -38.016 
z
" id="m04f1da458e" style="stroke:#0000ff;stroke-opacity:0.2;"/>
    </defs>
    <g clip-path="url(#pc74f4f088b)">
     <use style="fill:#0000ff;fill-opacity:0.2;stroke:#0000ff;stroke-opacity:0.2;" x="0" xlink:href="#m04f1da458e" y="345.6"/>
    </g>
   </g>
   <g id="matplotlib.axis_1">
    <g id="xtick_1">
     <g id="line2d_1">
      <defs>
       <path d="M 0 0 
L 0 3.5 
" id="mdbf0167432" style="stroke:#000000;stroke-width:0.8;"/>
      </defs>
      <g>
       <use style="stroke:#000000;stroke-width:0.8;" x="57.6" xlink:href="#mdbf0167432" y="307.584"/>
      </g>
     </g>
     <g id="text_1">
      <!-- 0.0 -->
      <defs>
       <path d="M 31.78125 66.40625 
Q 24.171875 66.40625 20.328125 58.90625 
Q 16.5 51.421875 16.5 36.375 
Q 16.5 21.390625 20.328125 13.890625 
Q 24.171875 6.390625 31.78125 6.390625 
Q 39.453125 6.390625 43.28125 13.890625 
Q 47.125 21.390625 47.125 36.375 
Q 47.125 51.421875 43.28125 58.90625 
Q 39.453125 66.40625 31.78125 66.40625 
z
M 31.78125 74.21875 
Q 44.046875 74.21875 50.515625 64.515625 
Q 56.984375 54.828125 56.984375 36.375 
Q 56.984375 17.96875 50.515625 8.265625 
Q 44.046875 -1.421875 31.78125 -1.421875 
Q 19.53125 -1.421875 13.0625 8.265625 
Q 6.59375 17.96875 6.59375 36.375 
Q 6.59375 54.828125 13.0625 64.515625 
Q 19.53125 74.21875 31.78125 74.21875 
z
" id="DejaVuSans-48"/>
       <path d="M 10.6875 12.40625 
L 21 12.40625 
L 21 0 
L 10.6875 0 
z
" id="DejaVuSans-46"/>
      </defs>
      <g transform="translate(49.648438 322.182437)scale(0.1 -0.1)">
       <use xlink:href="#DejaVuSans-48"/>
       <use x="63.623047" xlink:href="#DejaVuSans-46"/>
       <use x="95.410156" xlink:href="#DejaVuSans-48"/>
      </g>
     </g>
    </g>
    <g id="xtick_2">
     <g id="line2d_2">
      <g>
       <use style="stroke:#000000;stroke-width:0.8;" x="129.024" xlink:href="#mdbf0167432" y="307.584"/>
      </g>
     </g>
     <g id="text_2">
      <!-- 0.2 -->
      <defs>
       <path d="M 19.1875 8.296875 
L 53.609375 8.296875 
L 53.609375 0 
L 7.328125 0 
L 7.328125 8.296875 
Q 12.9375 14.109375 22.625 23.890625 
Q 32.328125 33.6875 34.8125 36.53125 
Q 39.546875 41.84375 41.421875 45.53125 
Q 43.3125 49.21875 43.3125 52.78125 
Q 43.3125 58.59375 39.234375 62.25 
Q 35.15625 65.921875 28.609375 65.921875 
Q 23.96875 65.921875 18.8125 64.3125 
Q 13.671875 62.703125 7.8125 59.421875 
L 7.8125 69.390625 
Q 13.765625 71.78125 18.9375 73 
Q 24.125 74.21875 28.421875 74.21875 
Q 39.75 74.21875 46.484375 68.546875 
Q 53.21875 62.890625 53.21875 53.421875 
Q 53.21875 48.921875 51.53125 44.890625 
Q 49.859375 40.875 45.40625 35.40625 
Q 44.1875 33.984375 37.640625 27.21875 
Q 31.109375 20.453125 19.1875 8.296875 
z
" id="DejaVuSans-50"/>
      </defs>
      <g transform="translate(121.072438 322.182437)scale(0.1 -0.1)">
       <use xlink:href="#DejaVuSans-48"/>
       <use x="63.623047" xlink:href="#DejaVuSans-46"/>
       <use x="95.410156" xlink:href="#DejaVuSans-50"/>
      </g>
     </g>
    </g>
    <g id="xtick_3">
     <g id="line2d_3">
      <g>
       <use style="stroke:#000000;stroke-width:0.8;" x="200.448" xlink:href="#mdbf0167432" y="307.584"/>
      </g>
     </g>
     <g id="text_3">
      <!-- 0.4 -->
      <defs>
       <path d="M 37.796875 64.3125 
L 12.890625 25.390625 
L 37.796875 25.390625 
z
M 35.203125 72.90625 
L 47.609375 72.90625 
L 47.609375 25.390625 
L 58.015625 25.390625 
L 58.015625 17.1875 
L 47.609375 17.1875 
L 47.609375 0 
L 37.796875 0 
L 37.796875 17.1875 
L 4.890625 17.1875 
L 4.890625 26.703125 
z
" id="DejaVuSans-52"/>
      </defs>
      <g transform="translate(192.496438 322.182437)scale(0.1 -0.1)">
       <use xlink:href="#DejaVuSans-48"/>
       <use x="63.623047" xlink:href="#DejaVuSans-46"/>
       <use x="95.410156" xlink:href="#DejaVuSans-52"/>
      </g>
     </g>
    </g>
    <g id="xtick_4">
     <g id="line2d_4">
      <g>
       <use style="stroke:#000000;stroke-width:0.8;" x="271.872" xlink:href="#mdbf0167432" y="307.584"/>
      </g>
     </g>
     <g id="text_4">
      <!-- 0.6 -->
      <defs>
       <path d="M 33.015625 40.375 
Q 26.375 40.375 22.484375 35.828125 
Q 18.609375 31.296875 18.609375 23.390625 
Q 18.609375 15.53125 22.484375 10.953125 
Q 26.375 6.390625 33.015625 6.390625 
Q 39.65625 6.390625 43.53125 10.953125 
Q 47.40625 15.53125 47.40625 23.390625 
Q 47.40625 31.296875 43.53125 35.828125 
Q 39.65625 40.375 33.015625 40.375 
z
M 52.59375 71.296875 
L 52.59375 62.3125 
Q 48.875 64.0625 45.09375 64.984375 
Q 41.3125 65.921875 37.59375 65.921875 
Q 27.828125 65.921875 22.671875 59.328125 
Q 17.53125 52.734375 16.796875 39.40625 
Q 19.671875 43.65625 24.015625 45.921875 
Q 28.375 48.1875 33.59375 48.1875 
Q 44.578125 48.1875 50.953125 41.515625 
Q 57.328125 34.859375 57.328125 23.390625 
Q 57.328125 12.15625 50.6875 5.359375 
Q 44.046875 -1.421875 33.015625 -1.421875 
Q 20.359375 -1.421875 13.671875 8.265625 
Q 6.984375 17.96875 6.984375 36.375 
Q 6.984375 53.65625 15.1875 63.9375 
Q 23.390625 74.21875 37.203125 74.21875 
Q 40.921875 74.21875 44.703125 73.484375 
Q 48.484375 72.75 52.59375 71.296875 
z
" id="DejaVuSans-54"/>
      </defs>
      <g transform="translate(263.920438 322.182437)scale(0.1 -0.1)">
       <use xlink:href="#DejaVuSans-48"/>
       <use x="63.623047" xlink:href="#DejaVuSans-46"/>
       <use x="95.410156" xlink:href="#DejaVuSans-54"/>
      </g>
     </g>
    </g>
    <g id="xtick_5">
     <g id="line2d_5">
      <g>
       <use style="stroke:#000000;stroke-width:0.8;" x="343.296" xlink:href="#mdbf0167432" y="307.584"/>
      </g>
     </g>
     <g id="text_5">
      <!-- 0.8 -->
      <defs>
       <path d="M 31.78125 34.625 
Q 24.75 34.625 20.71875 30.859375 
Q 16.703125 27.09375 16.703125 20.515625 
Q 16.703125 13.921875 20.71875 10.15625 
Q 24.75 6.390625 31.78125 6.390625 
Q 38.8125 6.390625 42.859375 10.171875 
Q 46.921875 13.96875 46.921875 20.515625 
Q 46.921875 27.09375 42.890625 30.859375 
Q 38.875 34.625 31.78125 34.625 
z
M 21.921875 38.8125 
Q 15.578125 40.375 12.03125 44.71875 
Q 8.5 49.078125 8.5 55.328125 
Q 8.5 64.0625 14.71875 69.140625 
Q 20.953125 74.21875 31.78125 74.21875 
Q 42.671875 74.21875 48.875 69.140625 
Q 55.078125 64.0625 55.078125 55.328125 
Q 55.078125 49.078125 51.53125 44.71875 
Q 48 40.375 41.703125 38.8125 
Q 48.828125 37.15625 52.796875 32.3125 
Q 56.78125 27.484375 56.78125 20.515625 
Q 56.78125 9.90625 50.3125 4.234375 
Q 43.84375 -1.421875 31.78125 -1.421875 
Q 19.734375 -1.421875 13.25 4.234375 
Q 6.78125 9.90625 6.78125 20.515625 
Q 6.78125 27.484375 10.78125 32.3125 
Q 14.796875 37.15625 21.921875 38.8125 
z
M 18.3125 54.390625 
Q 18.3125 48.734375 21.84375 45.5625 
Q 25.390625 42.390625 31.78125 42.390625 
Q 38.140625 42.390625 41.71875 45.5625 
Q 45.3125 48.734375 45.3125 54.390625 
Q 45.3125 60.0625 41.71875 63.234375 
Q 38.140625 66.40625 31.78125 66.40625 
Q 25.390625 66.40625 21.84375 63.234375 
Q 18.3125 60.0625 18.3125 54.390625 
z
" id="DejaVuSans-56"/>
      </defs>
      <g transform="translate(335.344438 322.182437)scale(0.1 -0.1)">
       <use xlink:href="#DejaVuSans-48"/>
       <use x="63.623047" xlink:href="#DejaVuSans-46"/>
       <use x="95.410156" xlink:href="#DejaVuSans-56"/>
      </g>
     </g>
    </g>
    <g id="xtick_6">
     <g id="line2d_6">
      <g>
       <use style="stroke:#000000;stroke-width:0.8;" x="414.72" xlink:href="#mdbf0167432" y="307.584"/>
      </g>
     </g>
     <g id="text_6">
      <!-- 1.0 -->
      <defs>
       <path d="M 12.40625 8.296875 
L 28.515625 8.296875 
L 28.515625 63.921875 
L 10.984375 60.40625 
L 10.984375 69.390625 
L 28.421875 72.90625 
L 38.28125 72.90625 
L 38.28125 8.296875 
L 54.390625 8.296875 
L 54.390625 0 
L 12.40625 0 
z
" id="DejaVuSans-49"/>
      </defs>
      <g transform="translate(406.768438 322.182437)scale(0.1 -0.1)">
       <use xlink:href="#DejaVuSans-49"/>
       <use x="63.623047" xlink:href="#DejaVuSans-46"/>
       <use x="95.410156" xlink:href="#DejaVuSans-48"/>
      </g>
     </g>
    </g>
    <g id="text_7">
     <!-- Recall -->
     <defs>
      <path d="M 44.390625 34.1875 
Q 47.5625 33.109375 50.5625 29.59375 
Q 53.5625 26.078125 56.59375 19.921875 
L 66.609375 0 
L 56 0 
L 46.6875 18.703125 
Q 43.0625 26.03125 39.671875 28.421875 
Q 36.28125 30.8125 30.421875 30.8125 
L 19.671875 30.8125 
L 19.671875 0 
L 9.8125 0 
L 9.8125 72.90625 
L 32.078125 72.90625 
Q 44.578125 72.90625 50.734375 67.671875 
Q 56.890625 62.453125 56.890625 51.90625 
Q 56.890625 45.015625 53.6875 40.46875 
Q 50.484375 35.9375 44.390625 34.1875 
z
M 19.671875 64.796875 
L 19.671875 38.921875 
L 32.078125 38.921875 
Q 39.203125 38.921875 42.84375 42.21875 
Q 46.484375 45.515625 46.484375 51.90625 
Q 46.484375 58.296875 42.84375 61.546875 
Q 39.203125 64.796875 32.078125 64.796875 
z
" id="DejaVuSans-82"/>
      <path d="M 56.203125 29.59375 
L 56.203125 25.203125 
L 14.890625 25.203125 
Q 15.484375 15.921875 20.484375 11.0625 
Q 25.484375 6.203125 34.421875 6.203125 
Q 39.59375 6.203125 44.453125 7.46875 
Q 49.3125 8.734375 54.109375 11.28125 
L 54.109375 2.78125 
Q 49.265625 0.734375 44.1875 -0.34375 
Q 39.109375 -1.421875 33.890625 -1.421875 
Q 20.796875 -1.421875 13.15625 6.1875 
Q 5.515625 13.8125 5.515625 26.8125 
Q 5.515625 40.234375 12.765625 48.109375 
Q 20.015625 56 32.328125 56 
Q 43.359375 56 49.78125 48.890625 
Q 56.203125 41.796875 56.203125 29.59375 
z
M 47.21875 32.234375 
Q 47.125 39.59375 43.09375 43.984375 
Q 39.0625 48.390625 32.421875 48.390625 
Q 24.90625 48.390625 20.390625 44.140625 
Q 15.875 39.890625 15.1875 32.171875 
z
" id="DejaVuSans-101"/>
      <path d="M 48.78125 52.59375 
L 48.78125 44.1875 
Q 44.96875 46.296875 41.140625 47.34375 
Q 37.3125 48.390625 33.40625 48.390625 
Q 24.65625 48.390625 19.8125 42.84375 
Q 14.984375 37.3125 14.984375 27.296875 
Q 14.984375 17.28125 19.8125 11.734375 
Q 24.65625 6.203125 33.40625 6.203125 
Q 37.3125 6.203125 41.140625 7.25 
Q 44.96875 8.296875 48.78125 10.40625 
L 48.78125 2.09375 
Q 45.015625 0.34375 40.984375 -0.53125 
Q 36.96875 -1.421875 32.421875 -1.421875 
Q 20.0625 -1.421875 12.78125 6.34375 
Q 5.515625 14.109375 5.515625 27.296875 
Q 5.515625 40.671875 12.859375 48.328125 
Q 20.21875 56 33.015625 56 
Q 37.15625 56 41.109375 55.140625 
Q 45.0625 54.296875 48.78125 52.59375 
z
" id="DejaVuSans-99"/>
      <path d="M 34.28125 27.484375 
Q 23.390625 27.484375 19.1875 25 
Q 14.984375 22.515625 14.984375 16.5 
Q 14.984375 11.71875 18.140625 8.90625 
Q 21.296875 6.109375 26.703125 6.109375 
Q 34.1875 6.109375 38.703125 11.40625 
Q 43.21875 16.703125 43.21875 25.484375 
L 43.21875 27.484375 
z
M 52.203125 31.203125 
L 52.203125 0 
L 43.21875 0 
L 43.21875 8.296875 
Q 40.140625 3.328125 35.546875 0.953125 
Q 30.953125 -1.421875 24.3125 -1.421875 
Q 15.921875 -1.421875 10.953125 3.296875 
Q 6 8.015625 6 15.921875 
Q 6 25.140625 12.171875 29.828125 
Q 18.359375 34.515625 30.609375 34.515625 
L 43.21875 34.515625 
L 43.21875 35.40625 
Q 43.21875 41.609375 39.140625 45 
Q 35.0625 48.390625 27.6875 48.390625 
Q 23 48.390625 18.546875 47.265625 
Q 14.109375 46.140625 10.015625 43.890625 
L 10.015625 52.203125 
Q 14.9375 54.109375 19.578125 55.046875 
Q 24.21875 56 28.609375 56 
Q 40.484375 56 46.34375 49.84375 
Q 52.203125 43.703125 52.203125 31.203125 
z
" id="DejaVuSans-97"/>
      <path d="M 9.421875 75.984375 
L 18.40625 75.984375 
L 18.40625 0 
L 9.421875 0 
z
" id="DejaVuSans-108"/>
     </defs>
     <g transform="translate(221.020938 335.860562)scale(0.1 -0.1)">
      <use xlink:href="#DejaVuSans-82"/>
      <use x="69.419922" xlink:href="#DejaVuSans-101"/>
      <use x="130.943359" xlink:href="#DejaVuSans-99"/>
      <use x="185.923828" xlink:href="#DejaVuSans-97"/>
      <use x="247.203125" xlink:href="#DejaVuSans-108"/>
      <use x="274.986328" xlink:href="#DejaVuSans-108"/>
     </g>
    </g>
   </g>
   <g id="matplotlib.axis_2">
    <g id="ytick_1">
     <g id="line2d_7">
      <defs>
       <path d="M 0 0 
L -3.5 0 
" id="m0b423a9d1e" style="stroke:#000000;stroke-width:0.8;"/>
      </defs>
      <g>
       <use style="stroke:#000000;stroke-width:0.8;" x="57.6" xlink:href="#m0b423a9d1e" y="307.584"/>
      </g>
     </g>
     <g id="text_8">
      <!-- 0.0 -->
      <g transform="translate(34.696875 311.383219)scale(0.1 -0.1)">
       <use xlink:href="#DejaVuSans-48"/>
       <use x="63.623047" xlink:href="#DejaVuSans-46"/>
       <use x="95.410156" xlink:href="#DejaVuSans-48"/>
      </g>
     </g>
    </g>
    <g id="ytick_2">
     <g id="line2d_8">
      <g>
       <use style="stroke:#000000;stroke-width:0.8;" x="57.6" xlink:href="#m0b423a9d1e" y="256.896"/>
      </g>
     </g>
     <g id="text_9">
      <!-- 0.2 -->
      <g transform="translate(34.696875 260.695219)scale(0.1 -0.1)">
       <use xlink:href="#DejaVuSans-48"/>
       <use x="63.623047" xlink:href="#DejaVuSans-46"/>
       <use x="95.410156" xlink:href="#DejaVuSans-50"/>
      </g>
     </g>
    </g>
    <g id="ytick_3">
     <g id="line2d_9">
      <g>
       <use style="stroke:#000000;stroke-width:0.8;" x="57.6" xlink:href="#m0b423a9d1e" y="206.208"/>
      </g>
     </g>
     <g id="text_10">
      <!-- 0.4 -->
      <g transform="translate(34.696875 210.007219)scale(0.1 -0.1)">
       <use xlink:href="#DejaVuSans-48"/>
       <use x="63.623047" xlink:href="#DejaVuSans-46"/>
       <use x="95.410156" xlink:href="#DejaVuSans-52"/>
      </g>
     </g>
    </g>
    <g id="ytick_4">
     <g id="line2d_10">
      <g>
       <use style="stroke:#000000;stroke-width:0.8;" x="57.6" xlink:href="#m0b423a9d1e" y="155.52"/>
      </g>
     </g>
     <g id="text_11">
      <!-- 0.6 -->
      <g transform="translate(34.696875 159.319219)scale(0.1 -0.1)">
       <use xlink:href="#DejaVuSans-48"/>
       <use x="63.623047" xlink:href="#DejaVuSans-46"/>
       <use x="95.410156" xlink:href="#DejaVuSans-54"/>
      </g>
     </g>
    </g>
    <g id="ytick_5">
     <g id="line2d_11">
      <g>
       <use style="stroke:#000000;stroke-width:0.8;" x="57.6" xlink:href="#m0b423a9d1e" y="104.832"/>
      </g>
     </g>
     <g id="text_12">
      <!-- 0.8 -->
      <g transform="translate(34.696875 108.631219)scale(0.1 -0.1)">
       <use xlink:href="#DejaVuSans-48"/>
       <use x="63.623047" xlink:href="#DejaVuSans-46"/>
       <use x="95.410156" xlink:href="#DejaVuSans-56"/>
      </g>
     </g>
    </g>
    <g id="ytick_6">
     <g id="line2d_12">
      <g>
       <use style="stroke:#000000;stroke-width:0.8;" x="57.6" xlink:href="#m0b423a9d1e" y="54.144"/>
      </g>
     </g>
     <g id="text_13">
      <!-- 1.0 -->
      <g transform="translate(34.696875 57.943219)scale(0.1 -0.1)">
       <use xlink:href="#DejaVuSans-49"/>
       <use x="63.623047" xlink:href="#DejaVuSans-46"/>
       <use x="95.410156" xlink:href="#DejaVuSans-48"/>
      </g>
     </g>
    </g>
    <g id="text_14">
     <!-- Precision -->
     <defs>
      <path d="M 19.671875 64.796875 
L 19.671875 37.40625 
L 32.078125 37.40625 
Q 38.96875 37.40625 42.71875 40.96875 
Q 46.484375 44.53125 46.484375 51.125 
Q 46.484375 57.671875 42.71875 61.234375 
Q 38.96875 64.796875 32.078125 64.796875 
z
M 9.8125 72.90625 
L 32.078125 72.90625 
Q 44.34375 72.90625 50.609375 67.359375 
Q 56.890625 61.8125 56.890625 51.125 
Q 56.890625 40.328125 50.609375 34.8125 
Q 44.34375 29.296875 32.078125 29.296875 
L 19.671875 29.296875 
L 19.671875 0 
L 9.8125 0 
z
" id="DejaVuSans-80"/>
      <path d="M 41.109375 46.296875 
Q 39.59375 47.171875 37.8125 47.578125 
Q 36.03125 48 33.890625 48 
Q 26.265625 48 22.1875 43.046875 
Q 18.109375 38.09375 18.109375 28.8125 
L 18.109375 0 
L 9.078125 0 
L 9.078125 54.6875 
L 18.109375 54.6875 
L 18.109375 46.1875 
Q 20.953125 51.171875 25.484375 53.578125 
Q 30.03125 56 36.53125 56 
Q 37.453125 56 38.578125 55.875 
Q 39.703125 55.765625 41.0625 55.515625 
z
" id="DejaVuSans-114"/>
      <path d="M 9.421875 54.6875 
L 18.40625 54.6875 
L 18.40625 0 
L 9.421875 0 
z
M 9.421875 75.984375 
L 18.40625 75.984375 
L 18.40625 64.59375 
L 9.421875 64.59375 
z
" id="DejaVuSans-105"/>
      <path d="M 44.28125 53.078125 
L 44.28125 44.578125 
Q 40.484375 46.53125 36.375 47.5 
Q 32.28125 48.484375 27.875 48.484375 
Q 21.1875 48.484375 17.84375 46.4375 
Q 14.5 44.390625 14.5 40.28125 
Q 14.5 37.15625 16.890625 35.375 
Q 19.28125 33.59375 26.515625 31.984375 
L 29.59375 31.296875 
Q 39.15625 29.25 43.1875 25.515625 
Q 47.21875 21.78125 47.21875 15.09375 
Q 47.21875 7.46875 41.1875 3.015625 
Q 35.15625 -1.421875 24.609375 -1.421875 
Q 20.21875 -1.421875 15.453125 -0.5625 
Q 10.6875 0.296875 5.421875 2 
L 5.421875 11.28125 
Q 10.40625 8.6875 15.234375 7.390625 
Q 20.0625 6.109375 24.8125 6.109375 
Q 31.15625 6.109375 34.5625 8.28125 
Q 37.984375 10.453125 37.984375 14.40625 
Q 37.984375 18.0625 35.515625 20.015625 
Q 33.0625 21.96875 24.703125 23.78125 
L 21.578125 24.515625 
Q 13.234375 26.265625 9.515625 29.90625 
Q 5.8125 33.546875 5.8125 39.890625 
Q 5.8125 47.609375 11.28125 51.796875 
Q 16.75 56 26.8125 56 
Q 31.78125 56 36.171875 55.265625 
Q 40.578125 54.546875 44.28125 53.078125 
z
" id="DejaVuSans-115"/>
      <path d="M 30.609375 48.390625 
Q 23.390625 48.390625 19.1875 42.75 
Q 14.984375 37.109375 14.984375 27.296875 
Q 14.984375 17.484375 19.15625 11.84375 
Q 23.34375 6.203125 30.609375 6.203125 
Q 37.796875 6.203125 41.984375 11.859375 
Q 46.1875 17.53125 46.1875 27.296875 
Q 46.1875 37.015625 41.984375 42.703125 
Q 37.796875 48.390625 30.609375 48.390625 
z
M 30.609375 56 
Q 42.328125 56 49.015625 48.375 
Q 55.71875 40.765625 55.71875 27.296875 
Q 55.71875 13.875 49.015625 6.21875 
Q 42.328125 -1.421875 30.609375 -1.421875 
Q 18.84375 -1.421875 12.171875 6.21875 
Q 5.515625 13.875 5.515625 27.296875 
Q 5.515625 40.765625 12.171875 48.375 
Q 18.84375 56 30.609375 56 
z
" id="DejaVuSans-111"/>
      <path d="M 54.890625 33.015625 
L 54.890625 0 
L 45.90625 0 
L 45.90625 32.71875 
Q 45.90625 40.484375 42.875 44.328125 
Q 39.84375 48.1875 33.796875 48.1875 
Q 26.515625 48.1875 22.3125 43.546875 
Q 18.109375 38.921875 18.109375 30.90625 
L 18.109375 0 
L 9.078125 0 
L 9.078125 54.6875 
L 18.109375 54.6875 
L 18.109375 46.1875 
Q 21.34375 51.125 25.703125 53.5625 
Q 30.078125 56 35.796875 56 
Q 45.21875 56 50.046875 50.171875 
Q 54.890625 44.34375 54.890625 33.015625 
z
" id="DejaVuSans-110"/>
     </defs>
     <g transform="translate(28.617187 197.032688)rotate(-90)scale(0.1 -0.1)">
      <use xlink:href="#DejaVuSans-80"/>
      <use x="60.287109" xlink:href="#DejaVuSans-114"/>
      <use x="101.369141" xlink:href="#DejaVuSans-101"/>
      <use x="162.892578" xlink:href="#DejaVuSans-99"/>
      <use x="217.873047" xlink:href="#DejaVuSans-105"/>
      <use x="245.65625" xlink:href="#DejaVuSans-115"/>
      <use x="297.755859" xlink:href="#DejaVuSans-105"/>
      <use x="325.539062" xlink:href="#DejaVuSans-111"/>
      <use x="386.720703" xlink:href="#DejaVuSans-110"/>
     </g>
    </g>
   </g>
   <g id="line2d_13">
    <path clip-path="url(#pc74f4f088b)" d="M 414.72 251.347386 
L 397.11312 251.347386 
L 397.028876 120.114574 
L 396.980737 120.114574 
L 396.872424 119.138385 
L 396.83632 119.070488 
L 396.752077 118.672088 
L 396.655798 118.672088 
L 396.655798 118.265026 
L 396.511381 118.265026 
L 396.427138 117.642304 
L 396.354929 117.642304 
L 396.28272 117.221588 
L 396.198477 117.221588 
L 396.102199 116.716835 
L 395.921677 116.716835 
L 395.921677 116.224275 
L 395.801329 116.224275 
L 395.801329 115.942334 
L 395.584703 115.942334 
L 395.536564 115.18639 
L 395.247729 115.18639 
L 395.187555 114.565825 
L 394.561747 114.565825 
L 394.561747 112.931235 
L 394.369191 112.931235 
L 394.284947 112.421945 
L 394.14053 112.421945 
L 394.032217 111.862704 
L 393.442513 111.862704 
L 393.406408 110.714862 
L 393.213852 110.714862 
L 393.177748 110.288683 
L 393.093504 110.288683 
L 393.093504 110.134252 
L 392.852809 110.134252 
L 392.852809 109.783925 
L 392.636183 109.783925 
L 392.636183 109.395344 
L 390.650444 109.395344 
L 390.578235 105.962967 
L 390.469922 105.962967 
L 390.469922 105.808088 
L 390.349575 105.808088 
L 390.241262 105.428811 
L 389.856149 105.428811 
L 389.856149 104.920089 
L 389.675627 104.920089 
L 389.675627 104.624576 
L 389.013714 104.624576 
L 388.929471 103.5648 
L 388.484184 103.480854 
L 388.42401 102.960622 
L 388.327732 102.960622 
L 388.219419 102.665859 
L 386.065194 102.665859 
L 386.065194 99.724816 
L 385.776359 99.724816 
L 385.776359 99.375783 
L 385.631942 99.375783 
L 385.535664 99.006937 
L 385.391246 99.006937 
L 385.391246 98.833992 
L 385.246829 98.833992 
L 385.246829 98.698556 
L 384.813577 98.698556 
L 384.729333 98.223536 
L 384.440499 98.223536 
L 384.440499 97.802728 
L 384.259977 97.802728 
L 384.259977 97.605003 
L 383.983177 97.605003 
L 383.983177 97.320829 
L 383.790621 97.320829 
L 383.706377 97.022489 
L 376.064293 96.911563 
L 376.064293 89.187189 
L 375.943946 89.187189 
L 375.943946 89.063355 
L 375.486624 89.063355 
L 375.402381 88.556965 
L 375.197789 88.556965 
L 375.197789 88.382322 
L 374.860816 88.382322 
L 374.860816 88.046482 
L 374.704363 88.046482 
L 374.704363 87.930998 
L 374.427564 87.930998 
L 374.427564 87.703251 
L 373.26019 87.703251 
L 373.151877 86.629825 
L 370.744921 86.629825 
L 370.660678 84.07116 
L 370.407948 84.02317 
L 370.407948 83.720326 
L 369.914522 83.720326 
L 369.914522 83.357168 
L 369.433131 83.357168 
L 369.324818 82.845798 
L 368.915635 82.845798 
L 368.915635 82.555308 
L 368.686974 82.458789 
L 368.686974 82.403697 
L 368.494418 82.403697 
L 368.494418 82.279773 
L 352.006772 82.279773 
L 352.006772 72.587877 
L 351.802181 72.587877 
L 351.802181 72.457084 
L 351.477242 72.457084 
L 351.477242 72.261312 
L 351.128233 72.261312 
L 351.128233 72.137912 
L 349.792373 72.049457 
L 349.792373 71.455608 
L 349.118426 71.455608 
L 349.118426 71.129156 
L 348.251922 71.129156 
L 348.251922 70.764785 
L 347.951052 70.764785 
L 347.951052 70.41347 
L 345.544097 70.41347 
L 345.544097 69.329887 
L 345.122879 69.329887 
L 345.122879 69.106842 
L 344.473001 69.005204 
L 344.473001 68.846625 
L 344.027714 68.846625 
L 344.027714 68.679057 
L 343.690741 68.679057 
L 343.690741 68.543543 
L 343.113071 68.467424 
L 343.113071 68.399874 
L 335.134014 68.399874 
L 335.134014 65.51227 
L 334.327683 65.422248 
L 334.327683 65.272176 
L 333.810188 65.272176 
L 333.810188 65.13052 
L 332.161423 65.031107 
L 332.161423 64.357508 
L 330.681146 64.249979 
L 330.681146 64.019262 
L 328.045529 64.019262 
L 328.045529 63.318102 
L 327.46786 63.244414 
L 327.46786 63.189979 
L 326.541182 63.189979 
L 326.541182 63.030104 
L 323.845392 63.030104 
L 323.845392 62.561358 
L 322.425288 62.460243 
L 322.425288 62.314091 
L 321.065358 62.217759 
L 321.065358 62.127068 
L 320.006298 62.056975 
L 320.006298 62.005573 
L 318.465846 61.900519 
L 318.465846 61.885827 
L 57.6 61.846891 
L 57.6 54.144 
L 57.6 54.144 
" style="fill:none;stroke:#0000ff;stroke-linecap:square;stroke-opacity:0.2;stroke-width:1.5;"/>
   </g>
   <g id="patch_3">
    <path d="M 57.6 307.584 
L 57.6 41.472 
" style="fill:none;stroke:#000000;stroke-linecap:square;stroke-linejoin:miter;stroke-width:0.8;"/>
   </g>
   <g id="patch_4">
    <path d="M 414.72 307.584 
L 414.72 41.472 
" style="fill:none;stroke:#000000;stroke-linecap:square;stroke-linejoin:miter;stroke-width:0.8;"/>
   </g>
   <g id="patch_5">
    <path d="M 57.6 307.584 
L 414.72 307.584 
" style="fill:none;stroke:#000000;stroke-linecap:square;stroke-linejoin:miter;stroke-width:0.8;"/>
   </g>
   <g id="patch_6">
    <path d="M 57.6 41.472 
L 414.72 41.472 
" style="fill:none;stroke:#000000;stroke-linecap:square;stroke-linejoin:miter;stroke-width:0.8;"/>
   </g>
   <g id="text_15">
    <!-- 2-class Precision-Recall curve -->
    <defs>
     <path d="M 4.890625 31.390625 
L 31.203125 31.390625 
L 31.203125 23.390625 
L 4.890625 23.390625 
z
" id="DejaVuSans-45"/>
     <path id="DejaVuSans-32"/>
     <path d="M 8.5 21.578125 
L 8.5 54.6875 
L 17.484375 54.6875 
L 17.484375 21.921875 
Q 17.484375 14.15625 20.5 10.265625 
Q 23.53125 6.390625 29.59375 6.390625 
Q 36.859375 6.390625 41.078125 11.03125 
Q 45.3125 15.671875 45.3125 23.6875 
L 45.3125 54.6875 
L 54.296875 54.6875 
L 54.296875 0 
L 45.3125 0 
L 45.3125 8.40625 
Q 42.046875 3.421875 37.71875 1 
Q 33.40625 -1.421875 27.6875 -1.421875 
Q 18.265625 -1.421875 13.375 4.4375 
Q 8.5 10.296875 8.5 21.578125 
z
M 31.109375 56 
z
" id="DejaVuSans-117"/>
     <path d="M 2.984375 54.6875 
L 12.5 54.6875 
L 29.59375 8.796875 
L 46.6875 54.6875 
L 56.203125 54.6875 
L 35.6875 0 
L 23.484375 0 
z
" id="DejaVuSans-118"/>
    </defs>
    <g transform="translate(147.321562 35.472)scale(0.12 -0.12)">
     <use xlink:href="#DejaVuSans-50"/>
     <use x="63.623047" xlink:href="#DejaVuSans-45"/>
     <use x="99.707031" xlink:href="#DejaVuSans-99"/>
     <use x="154.6875" xlink:href="#DejaVuSans-108"/>
     <use x="182.470703" xlink:href="#DejaVuSans-97"/>
     <use x="243.75" xlink:href="#DejaVuSans-115"/>
     <use x="295.849609" xlink:href="#DejaVuSans-115"/>
     <use x="347.949219" xlink:href="#DejaVuSans-32"/>
     <use x="379.736328" xlink:href="#DejaVuSans-80"/>
     <use x="440.023438" xlink:href="#DejaVuSans-114"/>
     <use x="481.105469" xlink:href="#DejaVuSans-101"/>
     <use x="542.628906" xlink:href="#DejaVuSans-99"/>
     <use x="597.609375" xlink:href="#DejaVuSans-105"/>
     <use x="625.392578" xlink:href="#DejaVuSans-115"/>
     <use x="677.492188" xlink:href="#DejaVuSans-105"/>
     <use x="705.275391" xlink:href="#DejaVuSans-111"/>
     <use x="766.457031" xlink:href="#DejaVuSans-110"/>
     <use x="829.835938" xlink:href="#DejaVuSans-45"/>
     <use x="865.919922" xlink:href="#DejaVuSans-82"/>
     <use x="935.339844" xlink:href="#DejaVuSans-101"/>
     <use x="996.863281" xlink:href="#DejaVuSans-99"/>
     <use x="1051.84375" xlink:href="#DejaVuSans-97"/>
     <use x="1113.123047" xlink:href="#DejaVuSans-108"/>
     <use x="1140.90625" xlink:href="#DejaVuSans-108"/>
     <use x="1168.689453" xlink:href="#DejaVuSans-32"/>
     <use x="1200.476562" xlink:href="#DejaVuSans-99"/>
     <use x="1255.457031" xlink:href="#DejaVuSans-117"/>
     <use x="1318.835938" xlink:href="#DejaVuSans-114"/>
     <use x="1359.949219" xlink:href="#DejaVuSans-118"/>
     <use x="1419.128906" xlink:href="#DejaVuSans-101"/>
    </g>
   </g>
  </g>
 </g>
 <defs>
  <clipPath id="pc74f4f088b">
   <rect height="266.112" width="357.12" x="57.6" y="41.472"/>
  </clipPath>
 </defs>
</svg>
