<?xml version="1.0" encoding="utf-8" standalone="no"?>
<!DOCTYPE svg PUBLIC "-//W3C//DTD SVG 1.1//EN"
  "http://www.w3.org/Graphics/SVG/1.1/DTD/svg11.dtd">
<!-- Created with matplotlib (https://matplotlib.org/) -->
<svg height="345.6pt" version="1.1" viewBox="0 0 460.8 345.6" width="460.8pt" xmlns="http://www.w3.org/2000/svg" xmlns:xlink="http://www.w3.org/1999/xlink">
 <defs>
  <style type="text/css">
*{stroke-linecap:butt;stroke-linejoin:round;}
  </style>
 </defs>
 <g id="figure_1">
  <g id="patch_1">
   <path d="M 0 345.6 
L 460.8 345.6 
L 460.8 0 
L 0 0 
z
" style="fill:#ffffff;"/>
  </g>
  <g id="axes_1">
   <g id="patch_2">
    <path d="M 57.6 307.584 
L 414.72 307.584 
L 414.72 41.472 
L 57.6 41.472 
z
" style="fill:#ffffff;"/>
   </g>
   <g id="PolyCollection_1">
    <defs>
     <path d="M 414.72 -38.016 
L 414.72 -94.38164 
L 414.077037 -94.372572 
L 414.000494 -94.478552 
L 409.101728 -104.243021 
L 409.040494 -104.288805 
L 407.586173 -104.461858 
L 407.080988 -104.442123 
L 407.019753 -104.561894 
L 406.897284 -105.013329 
L 406.897284 -105.125291 
L 403.728395 -105.013292 
L 395.431111 -106.697172 
L 391.466173 -106.385613 
L 384.669136 -107.720891 
L 383.873086 -108.062512 
L 373.631605 -109.474048 
L 373.46321 -109.640423 
L 373.46321 -109.693438 
L 373.279506 -109.679256 
L 366.788642 -108.906614 
L 363.282963 -108.774098 
L 353.653827 -115.252537 
L 333.936296 -112.844183 
L 323.434568 -113.250381 
L 313.330864 -116.460261 
L 309.059753 -116.850348 
L 306.717531 -116.939552 
L 306.717531 -116.942573 
L 306.441975 -117.053415 
L 306.258272 -117.013254 
L 293.016296 -131.215109 
L 291.546667 -131.70873 
L 268.06321 -130.317601 
L 267.205926 -130.10263 
L 262.950123 -129.616047 
L 262.950123 -129.677791 
L 260.225185 -131.037237 
L 259.551605 -131.910082 
L 250.825679 -142.97432 
L 250.13679 -145.227829 
L 249.738765 -145.179206 
L 248.391605 -145.11337 
L 248.070123 -145.009094 
L 240.813827 -143.631443 
L 239.038025 -146.592573 
L 234.322963 -145.306746 
L 231.154074 -144.903738 
L 231.000988 -145.184211 
L 229.148642 -144.861064 
L 227.893333 -146.478531 
L 225.382716 -149.186351 
L 224.341728 -149.496029 
L 224.004938 -149.482429 
L 219.060247 -154.285321 
L 211.191605 -157.720525 
L 208.083951 -162.240144 
L 201.424691 -161.183225 
L 199.924444 -160.710839 
L 196.357531 -160.12849 
L 196.112593 -160.512 
L 195.255309 -162.690899 
L 183.437037 -157.882329 
L 178.247407 -169.153853 
L 178.170864 -169.113691 
L 176.150123 -174.045897 
L 175.262222 -178.722432 
L 169.980741 -181.065596 
L 169.980741 -181.175668 
L 154.21284 -174.395591 
L 153.324938 -174.245719 
L 152.957531 -174.804646 
L 146.436049 -179.703121 
L 142.716049 -179.324303 
L 142.011852 -179.160143 
L 141.705679 -181.090328 
L 138.184691 -182.337523 
L 137.847901 -182.641787 
L 136.699753 -182.220876 
L 124.973333 -175.092249 
L 121.467654 -225.290474 
L 121.06963 -225.752688 
L 121.008395 -225.840026 
L 120.824691 -225.833549 
L 120.564444 -225.801754 
L 119.584691 -225.685817 
L 119.26321 -225.53553 
L 113.62963 -227.590985 
L 107.046914 -224.615316 
L 105.883457 -225.173518 
L 105.439506 -228.721514 
L 105.39358 -228.998303 
L 105.362963 -229.014261 
L 105.026173 -228.866053 
L 105.026173 -229.611198 
L 104.857778 -229.632282 
L 102.852346 -229.815447 
L 102.117531 -229.048535 
L 93.636543 -225.743426 
L 57.6 -291.456 
L 57.6 -38.016 
L 57.6 -38.016 
L 93.636543 -38.016 
L 102.117531 -38.016 
L 102.852346 -38.016 
L 104.857778 -38.016 
L 105.026173 -38.016 
L 105.026173 -38.016 
L 105.362963 -38.016 
L 105.39358 -38.016 
L 105.439506 -38.016 
L 105.883457 -38.016 
L 107.046914 -38.016 
L 113.62963 -38.016 
L 119.26321 -38.016 
L 119.584691 -38.016 
L 120.564444 -38.016 
L 120.824691 -38.016 
L 121.008395 -38.016 
L 121.06963 -38.016 
L 121.467654 -38.016 
L 124.973333 -38.016 
L 136.699753 -38.016 
L 137.847901 -38.016 
L 138.184691 -38.016 
L 141.705679 -38.016 
L 142.011852 -38.016 
L 142.716049 -38.016 
L 146.436049 -38.016 
L 152.957531 -38.016 
L 153.324938 -38.016 
L 154.21284 -38.016 
L 169.980741 -38.016 
L 169.980741 -38.016 
L 175.262222 -38.016 
L 176.150123 -38.016 
L 178.170864 -38.016 
L 178.247407 -38.016 
L 183.437037 -38.016 
L 195.255309 -38.016 
L 196.112593 -38.016 
L 196.357531 -38.016 
L 199.924444 -38.016 
L 201.424691 -38.016 
L 208.083951 -38.016 
L 211.191605 -38.016 
L 219.060247 -38.016 
L 224.004938 -38.016 
L 224.341728 -38.016 
L 225.382716 -38.016 
L 227.893333 -38.016 
L 229.148642 -38.016 
L 231.000988 -38.016 
L 231.154074 -38.016 
L 234.322963 -38.016 
L 239.038025 -38.016 
L 240.813827 -38.016 
L 248.070123 -38.016 
L 248.391605 -38.016 
L 249.738765 -38.016 
L 250.13679 -38.016 
L 250.825679 -38.016 
L 259.551605 -38.016 
L 260.225185 -38.016 
L 262.950123 -38.016 
L 262.950123 -38.016 
L 267.205926 -38.016 
L 268.06321 -38.016 
L 291.546667 -38.016 
L 293.016296 -38.016 
L 306.258272 -38.016 
L 306.441975 -38.016 
L 306.717531 -38.016 
L 306.717531 -38.016 
L 309.059753 -38.016 
L 313.330864 -38.016 
L 323.434568 -38.016 
L 333.936296 -38.016 
L 353.653827 -38.016 
L 363.282963 -38.016 
L 366.788642 -38.016 
L 373.279506 -38.016 
L 373.46321 -38.016 
L 373.46321 -38.016 
L 373.631605 -38.016 
L 383.873086 -38.016 
L 384.669136 -38.016 
L 391.466173 -38.016 
L 395.431111 -38.016 
L 403.728395 -38.016 
L 406.897284 -38.016 
L 406.897284 -38.016 
L 407.019753 -38.016 
L 407.080988 -38.016 
L 407.586173 -38.016 
L 409.040494 -38.016 
L 409.101728 -38.016 
L 414.000494 -38.016 
L 414.077037 -38.016 
L 414.72 -38.016 
z
" id="m9244a57e0e" style="stroke:#0000ff;stroke-opacity:0.2;"/>
    </defs>
    <g clip-path="url(#p10c1b6dc3d)">
     <use style="fill:#0000ff;fill-opacity:0.2;stroke:#0000ff;stroke-opacity:0.2;" x="0" xlink:href="#m9244a57e0e" y="345.6"/>
    </g>
   </g>
   <g id="matplotlib.axis_1">
    <g id="xtick_1">
     <g id="line2d_1">
      <defs>
       <path d="M 0 0 
L 0 3.5 
" id="m3afab8964a" style="stroke:#000000;stroke-width:0.8;"/>
      </defs>
      <g>
       <use style="stroke:#000000;stroke-width:0.8;" x="57.6" xlink:href="#m3afab8964a" y="307.584"/>
      </g>
     </g>
     <g id="text_1">
      <!-- 0.0 -->
      <defs>
       <path d="M 31.78125 66.40625 
Q 24.171875 66.40625 20.328125 58.90625 
Q 16.5 51.421875 16.5 36.375 
Q 16.5 21.390625 20.328125 13.890625 
Q 24.171875 6.390625 31.78125 6.390625 
Q 39.453125 6.390625 43.28125 13.890625 
Q 47.125 21.390625 47.125 36.375 
Q 47.125 51.421875 43.28125 58.90625 
Q 39.453125 66.40625 31.78125 66.40625 
z
M 31.78125 74.21875 
Q 44.046875 74.21875 50.515625 64.515625 
Q 56.984375 54.828125 56.984375 36.375 
Q 56.984375 17.96875 50.515625 8.265625 
Q 44.046875 -1.421875 31.78125 -1.421875 
Q 19.53125 -1.421875 13.0625 8.265625 
Q 6.59375 17.96875 6.59375 36.375 
Q 6.59375 54.828125 13.0625 64.515625 
Q 19.53125 74.21875 31.78125 74.21875 
z
" id="DejaVuSans-48"/>
       <path d="M 10.6875 12.40625 
L 21 12.40625 
L 21 0 
L 10.6875 0 
z
" id="DejaVuSans-46"/>
      </defs>
      <g transform="translate(49.648438 322.182437)scale(0.1 -0.1)">
       <use xlink:href="#DejaVuSans-48"/>
       <use x="63.623047" xlink:href="#DejaVuSans-46"/>
       <use x="95.410156" xlink:href="#DejaVuSans-48"/>
      </g>
     </g>
    </g>
    <g id="xtick_2">
     <g id="line2d_2">
      <g>
       <use style="stroke:#000000;stroke-width:0.8;" x="129.024" xlink:href="#m3afab8964a" y="307.584"/>
      </g>
     </g>
     <g id="text_2">
      <!-- 0.2 -->
      <defs>
       <path d="M 19.1875 8.296875 
L 53.609375 8.296875 
L 53.609375 0 
L 7.328125 0 
L 7.328125 8.296875 
Q 12.9375 14.109375 22.625 23.890625 
Q 32.328125 33.6875 34.8125 36.53125 
Q 39.546875 41.84375 41.421875 45.53125 
Q 43.3125 49.21875 43.3125 52.78125 
Q 43.3125 58.59375 39.234375 62.25 
Q 35.15625 65.921875 28.609375 65.921875 
Q 23.96875 65.921875 18.8125 64.3125 
Q 13.671875 62.703125 7.8125 59.421875 
L 7.8125 69.390625 
Q 13.765625 71.78125 18.9375 73 
Q 24.125 74.21875 28.421875 74.21875 
Q 39.75 74.21875 46.484375 68.546875 
Q 53.21875 62.890625 53.21875 53.421875 
Q 53.21875 48.921875 51.53125 44.890625 
Q 49.859375 40.875 45.40625 35.40625 
Q 44.1875 33.984375 37.640625 27.21875 
Q 31.109375 20.453125 19.1875 8.296875 
z
" id="DejaVuSans-50"/>
      </defs>
      <g transform="translate(121.072438 322.182437)scale(0.1 -0.1)">
       <use xlink:href="#DejaVuSans-48"/>
       <use x="63.623047" xlink:href="#DejaVuSans-46"/>
       <use x="95.410156" xlink:href="#DejaVuSans-50"/>
      </g>
     </g>
    </g>
    <g id="xtick_3">
     <g id="line2d_3">
      <g>
       <use style="stroke:#000000;stroke-width:0.8;" x="200.448" xlink:href="#m3afab8964a" y="307.584"/>
      </g>
     </g>
     <g id="text_3">
      <!-- 0.4 -->
      <defs>
       <path d="M 37.796875 64.3125 
L 12.890625 25.390625 
L 37.796875 25.390625 
z
M 35.203125 72.90625 
L 47.609375 72.90625 
L 47.609375 25.390625 
L 58.015625 25.390625 
L 58.015625 17.1875 
L 47.609375 17.1875 
L 47.609375 0 
L 37.796875 0 
L 37.796875 17.1875 
L 4.890625 17.1875 
L 4.890625 26.703125 
z
" id="DejaVuSans-52"/>
      </defs>
      <g transform="translate(192.496438 322.182437)scale(0.1 -0.1)">
       <use xlink:href="#DejaVuSans-48"/>
       <use x="63.623047" xlink:href="#DejaVuSans-46"/>
       <use x="95.410156" xlink:href="#DejaVuSans-52"/>
      </g>
     </g>
    </g>
    <g id="xtick_4">
     <g id="line2d_4">
      <g>
       <use style="stroke:#000000;stroke-width:0.8;" x="271.872" xlink:href="#m3afab8964a" y="307.584"/>
      </g>
     </g>
     <g id="text_4">
      <!-- 0.6 -->
      <defs>
       <path d="M 33.015625 40.375 
Q 26.375 40.375 22.484375 35.828125 
Q 18.609375 31.296875 18.609375 23.390625 
Q 18.609375 15.53125 22.484375 10.953125 
Q 26.375 6.390625 33.015625 6.390625 
Q 39.65625 6.390625 43.53125 10.953125 
Q 47.40625 15.53125 47.40625 23.390625 
Q 47.40625 31.296875 43.53125 35.828125 
Q 39.65625 40.375 33.015625 40.375 
z
M 52.59375 71.296875 
L 52.59375 62.3125 
Q 48.875 64.0625 45.09375 64.984375 
Q 41.3125 65.921875 37.59375 65.921875 
Q 27.828125 65.921875 22.671875 59.328125 
Q 17.53125 52.734375 16.796875 39.40625 
Q 19.671875 43.65625 24.015625 45.921875 
Q 28.375 48.1875 33.59375 48.1875 
Q 44.578125 48.1875 50.953125 41.515625 
Q 57.328125 34.859375 57.328125 23.390625 
Q 57.328125 12.15625 50.6875 5.359375 
Q 44.046875 -1.421875 33.015625 -1.421875 
Q 20.359375 -1.421875 13.671875 8.265625 
Q 6.984375 17.96875 6.984375 36.375 
Q 6.984375 53.65625 15.1875 63.9375 
Q 23.390625 74.21875 37.203125 74.21875 
Q 40.921875 74.21875 44.703125 73.484375 
Q 48.484375 72.75 52.59375 71.296875 
z
" id="DejaVuSans-54"/>
      </defs>
      <g transform="translate(263.920438 322.182437)scale(0.1 -0.1)">
       <use xlink:href="#DejaVuSans-48"/>
       <use x="63.623047" xlink:href="#DejaVuSans-46"/>
       <use x="95.410156" xlink:href="#DejaVuSans-54"/>
      </g>
     </g>
    </g>
    <g id="xtick_5">
     <g id="line2d_5">
      <g>
       <use style="stroke:#000000;stroke-width:0.8;" x="343.296" xlink:href="#m3afab8964a" y="307.584"/>
      </g>
     </g>
     <g id="text_5">
      <!-- 0.8 -->
      <defs>
       <path d="M 31.78125 34.625 
Q 24.75 34.625 20.71875 30.859375 
Q 16.703125 27.09375 16.703125 20.515625 
Q 16.703125 13.921875 20.71875 10.15625 
Q 24.75 6.390625 31.78125 6.390625 
Q 38.8125 6.390625 42.859375 10.171875 
Q 46.921875 13.96875 46.921875 20.515625 
Q 46.921875 27.09375 42.890625 30.859375 
Q 38.875 34.625 31.78125 34.625 
z
M 21.921875 38.8125 
Q 15.578125 40.375 12.03125 44.71875 
Q 8.5 49.078125 8.5 55.328125 
Q 8.5 64.0625 14.71875 69.140625 
Q 20.953125 74.21875 31.78125 74.21875 
Q 42.671875 74.21875 48.875 69.140625 
Q 55.078125 64.0625 55.078125 55.328125 
Q 55.078125 49.078125 51.53125 44.71875 
Q 48 40.375 41.703125 38.8125 
Q 48.828125 37.15625 52.796875 32.3125 
Q 56.78125 27.484375 56.78125 20.515625 
Q 56.78125 9.90625 50.3125 4.234375 
Q 43.84375 -1.421875 31.78125 -1.421875 
Q 19.734375 -1.421875 13.25 4.234375 
Q 6.78125 9.90625 6.78125 20.515625 
Q 6.78125 27.484375 10.78125 32.3125 
Q 14.796875 37.15625 21.921875 38.8125 
z
M 18.3125 54.390625 
Q 18.3125 48.734375 21.84375 45.5625 
Q 25.390625 42.390625 31.78125 42.390625 
Q 38.140625 42.390625 41.71875 45.5625 
Q 45.3125 48.734375 45.3125 54.390625 
Q 45.3125 60.0625 41.71875 63.234375 
Q 38.140625 66.40625 31.78125 66.40625 
Q 25.390625 66.40625 21.84375 63.234375 
Q 18.3125 60.0625 18.3125 54.390625 
z
" id="DejaVuSans-56"/>
      </defs>
      <g transform="translate(335.344438 322.182437)scale(0.1 -0.1)">
       <use xlink:href="#DejaVuSans-48"/>
       <use x="63.623047" xlink:href="#DejaVuSans-46"/>
       <use x="95.410156" xlink:href="#DejaVuSans-56"/>
      </g>
     </g>
    </g>
    <g id="xtick_6">
     <g id="line2d_6">
      <g>
       <use style="stroke:#000000;stroke-width:0.8;" x="414.72" xlink:href="#m3afab8964a" y="307.584"/>
      </g>
     </g>
     <g id="text_6">
      <!-- 1.0 -->
      <defs>
       <path d="M 12.40625 8.296875 
L 28.515625 8.296875 
L 28.515625 63.921875 
L 10.984375 60.40625 
L 10.984375 69.390625 
L 28.421875 72.90625 
L 38.28125 72.90625 
L 38.28125 8.296875 
L 54.390625 8.296875 
L 54.390625 0 
L 12.40625 0 
z
" id="DejaVuSans-49"/>
      </defs>
      <g transform="translate(406.768438 322.182437)scale(0.1 -0.1)">
       <use xlink:href="#DejaVuSans-49"/>
       <use x="63.623047" xlink:href="#DejaVuSans-46"/>
       <use x="95.410156" xlink:href="#DejaVuSans-48"/>
      </g>
     </g>
    </g>
    <g id="text_7">
     <!-- Recall -->
     <defs>
      <path d="M 44.390625 34.1875 
Q 47.5625 33.109375 50.5625 29.59375 
Q 53.5625 26.078125 56.59375 19.921875 
L 66.609375 0 
L 56 0 
L 46.6875 18.703125 
Q 43.0625 26.03125 39.671875 28.421875 
Q 36.28125 30.8125 30.421875 30.8125 
L 19.671875 30.8125 
L 19.671875 0 
L 9.8125 0 
L 9.8125 72.90625 
L 32.078125 72.90625 
Q 44.578125 72.90625 50.734375 67.671875 
Q 56.890625 62.453125 56.890625 51.90625 
Q 56.890625 45.015625 53.6875 40.46875 
Q 50.484375 35.9375 44.390625 34.1875 
z
M 19.671875 64.796875 
L 19.671875 38.921875 
L 32.078125 38.921875 
Q 39.203125 38.921875 42.84375 42.21875 
Q 46.484375 45.515625 46.484375 51.90625 
Q 46.484375 58.296875 42.84375 61.546875 
Q 39.203125 64.796875 32.078125 64.796875 
z
" id="DejaVuSans-82"/>
      <path d="M 56.203125 29.59375 
L 56.203125 25.203125 
L 14.890625 25.203125 
Q 15.484375 15.921875 20.484375 11.0625 
Q 25.484375 6.203125 34.421875 6.203125 
Q 39.59375 6.203125 44.453125 7.46875 
Q 49.3125 8.734375 54.109375 11.28125 
L 54.109375 2.78125 
Q 49.265625 0.734375 44.1875 -0.34375 
Q 39.109375 -1.421875 33.890625 -1.421875 
Q 20.796875 -1.421875 13.15625 6.1875 
Q 5.515625 13.8125 5.515625 26.8125 
Q 5.515625 40.234375 12.765625 48.109375 
Q 20.015625 56 32.328125 56 
Q 43.359375 56 49.78125 48.890625 
Q 56.203125 41.796875 56.203125 29.59375 
z
M 47.21875 32.234375 
Q 47.125 39.59375 43.09375 43.984375 
Q 39.0625 48.390625 32.421875 48.390625 
Q 24.90625 48.390625 20.390625 44.140625 
Q 15.875 39.890625 15.1875 32.171875 
z
" id="DejaVuSans-101"/>
      <path d="M 48.78125 52.59375 
L 48.78125 44.1875 
Q 44.96875 46.296875 41.140625 47.34375 
Q 37.3125 48.390625 33.40625 48.390625 
Q 24.65625 48.390625 19.8125 42.84375 
Q 14.984375 37.3125 14.984375 27.296875 
Q 14.984375 17.28125 19.8125 11.734375 
Q 24.65625 6.203125 33.40625 6.203125 
Q 37.3125 6.203125 41.140625 7.25 
Q 44.96875 8.296875 48.78125 10.40625 
L 48.78125 2.09375 
Q 45.015625 0.34375 40.984375 -0.53125 
Q 36.96875 -1.421875 32.421875 -1.421875 
Q 20.0625 -1.421875 12.78125 6.34375 
Q 5.515625 14.109375 5.515625 27.296875 
Q 5.515625 40.671875 12.859375 48.328125 
Q 20.21875 56 33.015625 56 
Q 37.15625 56 41.109375 55.140625 
Q 45.0625 54.296875 48.78125 52.59375 
z
" id="DejaVuSans-99"/>
      <path d="M 34.28125 27.484375 
Q 23.390625 27.484375 19.1875 25 
Q 14.984375 22.515625 14.984375 16.5 
Q 14.984375 11.71875 18.140625 8.90625 
Q 21.296875 6.109375 26.703125 6.109375 
Q 34.1875 6.109375 38.703125 11.40625 
Q 43.21875 16.703125 43.21875 25.484375 
L 43.21875 27.484375 
z
M 52.203125 31.203125 
L 52.203125 0 
L 43.21875 0 
L 43.21875 8.296875 
Q 40.140625 3.328125 35.546875 0.953125 
Q 30.953125 -1.421875 24.3125 -1.421875 
Q 15.921875 -1.421875 10.953125 3.296875 
Q 6 8.015625 6 15.921875 
Q 6 25.140625 12.171875 29.828125 
Q 18.359375 34.515625 30.609375 34.515625 
L 43.21875 34.515625 
L 43.21875 35.40625 
Q 43.21875 41.609375 39.140625 45 
Q 35.0625 48.390625 27.6875 48.390625 
Q 23 48.390625 18.546875 47.265625 
Q 14.109375 46.140625 10.015625 43.890625 
L 10.015625 52.203125 
Q 14.9375 54.109375 19.578125 55.046875 
Q 24.21875 56 28.609375 56 
Q 40.484375 56 46.34375 49.84375 
Q 52.203125 43.703125 52.203125 31.203125 
z
" id="DejaVuSans-97"/>
      <path d="M 9.421875 75.984375 
L 18.40625 75.984375 
L 18.40625 0 
L 9.421875 0 
z
" id="DejaVuSans-108"/>
     </defs>
     <g transform="translate(221.020938 335.860562)scale(0.1 -0.1)">
      <use xlink:href="#DejaVuSans-82"/>
      <use x="69.419922" xlink:href="#DejaVuSans-101"/>
      <use x="130.943359" xlink:href="#DejaVuSans-99"/>
      <use x="185.923828" xlink:href="#DejaVuSans-97"/>
      <use x="247.203125" xlink:href="#DejaVuSans-108"/>
      <use x="274.986328" xlink:href="#DejaVuSans-108"/>
     </g>
    </g>
   </g>
   <g id="matplotlib.axis_2">
    <g id="ytick_1">
     <g id="line2d_7">
      <defs>
       <path d="M 0 0 
L -3.5 0 
" id="m55a5932941" style="stroke:#000000;stroke-width:0.8;"/>
      </defs>
      <g>
       <use style="stroke:#000000;stroke-width:0.8;" x="57.6" xlink:href="#m55a5932941" y="307.584"/>
      </g>
     </g>
     <g id="text_8">
      <!-- 0.0 -->
      <g transform="translate(34.696875 311.383219)scale(0.1 -0.1)">
       <use xlink:href="#DejaVuSans-48"/>
       <use x="63.623047" xlink:href="#DejaVuSans-46"/>
       <use x="95.410156" xlink:href="#DejaVuSans-48"/>
      </g>
     </g>
    </g>
    <g id="ytick_2">
     <g id="line2d_8">
      <g>
       <use style="stroke:#000000;stroke-width:0.8;" x="57.6" xlink:href="#m55a5932941" y="256.896"/>
      </g>
     </g>
     <g id="text_9">
      <!-- 0.2 -->
      <g transform="translate(34.696875 260.695219)scale(0.1 -0.1)">
       <use xlink:href="#DejaVuSans-48"/>
       <use x="63.623047" xlink:href="#DejaVuSans-46"/>
       <use x="95.410156" xlink:href="#DejaVuSans-50"/>
      </g>
     </g>
    </g>
    <g id="ytick_3">
     <g id="line2d_9">
      <g>
       <use style="stroke:#000000;stroke-width:0.8;" x="57.6" xlink:href="#m55a5932941" y="206.208"/>
      </g>
     </g>
     <g id="text_10">
      <!-- 0.4 -->
      <g transform="translate(34.696875 210.007219)scale(0.1 -0.1)">
       <use xlink:href="#DejaVuSans-48"/>
       <use x="63.623047" xlink:href="#DejaVuSans-46"/>
       <use x="95.410156" xlink:href="#DejaVuSans-52"/>
      </g>
     </g>
    </g>
    <g id="ytick_4">
     <g id="line2d_10">
      <g>
       <use style="stroke:#000000;stroke-width:0.8;" x="57.6" xlink:href="#m55a5932941" y="155.52"/>
      </g>
     </g>
     <g id="text_11">
      <!-- 0.6 -->
      <g transform="translate(34.696875 159.319219)scale(0.1 -0.1)">
       <use xlink:href="#DejaVuSans-48"/>
       <use x="63.623047" xlink:href="#DejaVuSans-46"/>
       <use x="95.410156" xlink:href="#DejaVuSans-54"/>
      </g>
     </g>
    </g>
    <g id="ytick_5">
     <g id="line2d_11">
      <g>
       <use style="stroke:#000000;stroke-width:0.8;" x="57.6" xlink:href="#m55a5932941" y="104.832"/>
      </g>
     </g>
     <g id="text_12">
      <!-- 0.8 -->
      <g transform="translate(34.696875 108.631219)scale(0.1 -0.1)">
       <use xlink:href="#DejaVuSans-48"/>
       <use x="63.623047" xlink:href="#DejaVuSans-46"/>
       <use x="95.410156" xlink:href="#DejaVuSans-56"/>
      </g>
     </g>
    </g>
    <g id="ytick_6">
     <g id="line2d_12">
      <g>
       <use style="stroke:#000000;stroke-width:0.8;" x="57.6" xlink:href="#m55a5932941" y="54.144"/>
      </g>
     </g>
     <g id="text_13">
      <!-- 1.0 -->
      <g transform="translate(34.696875 57.943219)scale(0.1 -0.1)">
       <use xlink:href="#DejaVuSans-49"/>
       <use x="63.623047" xlink:href="#DejaVuSans-46"/>
       <use x="95.410156" xlink:href="#DejaVuSans-48"/>
      </g>
     </g>
    </g>
    <g id="text_14">
     <!-- Precision -->
     <defs>
      <path d="M 19.671875 64.796875 
L 19.671875 37.40625 
L 32.078125 37.40625 
Q 38.96875 37.40625 42.71875 40.96875 
Q 46.484375 44.53125 46.484375 51.125 
Q 46.484375 57.671875 42.71875 61.234375 
Q 38.96875 64.796875 32.078125 64.796875 
z
M 9.8125 72.90625 
L 32.078125 72.90625 
Q 44.34375 72.90625 50.609375 67.359375 
Q 56.890625 61.8125 56.890625 51.125 
Q 56.890625 40.328125 50.609375 34.8125 
Q 44.34375 29.296875 32.078125 29.296875 
L 19.671875 29.296875 
L 19.671875 0 
L 9.8125 0 
z
" id="DejaVuSans-80"/>
      <path d="M 41.109375 46.296875 
Q 39.59375 47.171875 37.8125 47.578125 
Q 36.03125 48 33.890625 48 
Q 26.265625 48 22.1875 43.046875 
Q 18.109375 38.09375 18.109375 28.8125 
L 18.109375 0 
L 9.078125 0 
L 9.078125 54.6875 
L 18.109375 54.6875 
L 18.109375 46.1875 
Q 20.953125 51.171875 25.484375 53.578125 
Q 30.03125 56 36.53125 56 
Q 37.453125 56 38.578125 55.875 
Q 39.703125 55.765625 41.0625 55.515625 
z
" id="DejaVuSans-114"/>
      <path d="M 9.421875 54.6875 
L 18.40625 54.6875 
L 18.40625 0 
L 9.421875 0 
z
M 9.421875 75.984375 
L 18.40625 75.984375 
L 18.40625 64.59375 
L 9.421875 64.59375 
z
" id="DejaVuSans-105"/>
      <path d="M 44.28125 53.078125 
L 44.28125 44.578125 
Q 40.484375 46.53125 36.375 47.5 
Q 32.28125 48.484375 27.875 48.484375 
Q 21.1875 48.484375 17.84375 46.4375 
Q 14.5 44.390625 14.5 40.28125 
Q 14.5 37.15625 16.890625 35.375 
Q 19.28125 33.59375 26.515625 31.984375 
L 29.59375 31.296875 
Q 39.15625 29.25 43.1875 25.515625 
Q 47.21875 21.78125 47.21875 15.09375 
Q 47.21875 7.46875 41.1875 3.015625 
Q 35.15625 -1.421875 24.609375 -1.421875 
Q 20.21875 -1.421875 15.453125 -0.5625 
Q 10.6875 0.296875 5.421875 2 
L 5.421875 11.28125 
Q 10.40625 8.6875 15.234375 7.390625 
Q 20.0625 6.109375 24.8125 6.109375 
Q 31.15625 6.109375 34.5625 8.28125 
Q 37.984375 10.453125 37.984375 14.40625 
Q 37.984375 18.0625 35.515625 20.015625 
Q 33.0625 21.96875 24.703125 23.78125 
L 21.578125 24.515625 
Q 13.234375 26.265625 9.515625 29.90625 
Q 5.8125 33.546875 5.8125 39.890625 
Q 5.8125 47.609375 11.28125 51.796875 
Q 16.75 56 26.8125 56 
Q 31.78125 56 36.171875 55.265625 
Q 40.578125 54.546875 44.28125 53.078125 
z
" id="DejaVuSans-115"/>
      <path d="M 30.609375 48.390625 
Q 23.390625 48.390625 19.1875 42.75 
Q 14.984375 37.109375 14.984375 27.296875 
Q 14.984375 17.484375 19.15625 11.84375 
Q 23.34375 6.203125 30.609375 6.203125 
Q 37.796875 6.203125 41.984375 11.859375 
Q 46.1875 17.53125 46.1875 27.296875 
Q 46.1875 37.015625 41.984375 42.703125 
Q 37.796875 48.390625 30.609375 48.390625 
z
M 30.609375 56 
Q 42.328125 56 49.015625 48.375 
Q 55.71875 40.765625 55.71875 27.296875 
Q 55.71875 13.875 49.015625 6.21875 
Q 42.328125 -1.421875 30.609375 -1.421875 
Q 18.84375 -1.421875 12.171875 6.21875 
Q 5.515625 13.875 5.515625 27.296875 
Q 5.515625 40.765625 12.171875 48.375 
Q 18.84375 56 30.609375 56 
z
" id="DejaVuSans-111"/>
      <path d="M 54.890625 33.015625 
L 54.890625 0 
L 45.90625 0 
L 45.90625 32.71875 
Q 45.90625 40.484375 42.875 44.328125 
Q 39.84375 48.1875 33.796875 48.1875 
Q 26.515625 48.1875 22.3125 43.546875 
Q 18.109375 38.921875 18.109375 30.90625 
L 18.109375 0 
L 9.078125 0 
L 9.078125 54.6875 
L 18.109375 54.6875 
L 18.109375 46.1875 
Q 21.34375 51.125 25.703125 53.5625 
Q 30.078125 56 35.796875 56 
Q 45.21875 56 50.046875 50.171875 
Q 54.890625 44.34375 54.890625 33.015625 
z
" id="DejaVuSans-110"/>
     </defs>
     <g transform="translate(28.617187 197.032688)rotate(-90)scale(0.1 -0.1)">
      <use xlink:href="#DejaVuSans-80"/>
      <use x="60.287109" xlink:href="#DejaVuSans-114"/>
      <use x="101.369141" xlink:href="#DejaVuSans-101"/>
      <use x="162.892578" xlink:href="#DejaVuSans-99"/>
      <use x="217.873047" xlink:href="#DejaVuSans-105"/>
      <use x="245.65625" xlink:href="#DejaVuSans-115"/>
      <use x="297.755859" xlink:href="#DejaVuSans-105"/>
      <use x="325.539062" xlink:href="#DejaVuSans-111"/>
      <use x="386.720703" xlink:href="#DejaVuSans-110"/>
     </g>
    </g>
   </g>
   <g id="line2d_13">
    <path clip-path="url(#p10c1b6dc3d)" d="M 414.72 251.21836 
L 409.101728 251.121448 
L 409.040494 241.311195 
L 407.586173 241.311195 
L 407.586173 241.138142 
L 406.897284 241.038106 
L 406.897284 240.474709 
L 403.728395 240.474709 
L 403.728395 240.586708 
L 395.431111 240.586708 
L 395.431111 238.902828 
L 391.466173 238.902828 
L 391.466173 239.214387 
L 384.669136 239.214387 
L 384.669136 237.879109 
L 383.873086 237.879109 
L 383.873086 237.537488 
L 373.631605 237.537488 
L 373.631605 236.125952 
L 373.46321 236.125952 
L 373.46321 235.906562 
L 366.788642 235.920744 
L 366.788642 236.693386 
L 363.282963 236.693386 
L 363.282963 236.825902 
L 353.653827 236.825902 
L 353.653827 230.347463 
L 333.936296 230.347463 
L 333.936296 232.755817 
L 323.434568 232.755817 
L 323.434568 232.349619 
L 313.330864 232.349619 
L 313.330864 229.139739 
L 309.059753 229.139739 
L 309.059753 228.749652 
L 306.441975 228.657427 
L 306.441975 228.546585 
L 293.016296 228.586746 
L 293.016296 214.384891 
L 291.546667 214.384891 
L 291.546667 213.89127 
L 268.06321 213.89127 
L 268.06321 215.282399 
L 267.205926 215.282399 
L 267.205926 215.49737 
L 262.950123 215.49737 
L 262.950123 215.983953 
L 262.950123 215.922209 
L 260.225185 215.922209 
L 260.225185 214.562763 
L 259.551605 214.562763 
L 259.551605 213.689918 
L 250.825679 213.689918 
L 250.825679 202.62568 
L 250.13679 202.62568 
L 250.13679 200.372171 
L 248.391605 200.420794 
L 248.391605 200.48663 
L 240.813827 200.590906 
L 240.813827 201.968557 
L 239.038025 201.968557 
L 239.038025 199.007427 
L 234.322963 199.007427 
L 234.322963 200.293254 
L 231.154074 200.293254 
L 231.154074 200.696262 
L 231.000988 200.696262 
L 231.000988 200.415789 
L 229.148642 200.415789 
L 229.148642 200.738936 
L 227.893333 200.738936 
L 227.893333 199.121469 
L 225.382716 199.121469 
L 225.382716 196.413649 
L 224.341728 196.413649 
L 224.341728 196.103971 
L 219.060247 196.117571 
L 219.060247 191.314679 
L 211.191605 191.314679 
L 211.191605 187.879475 
L 208.083951 187.879475 
L 208.083951 183.359856 
L 201.424691 183.359856 
L 201.424691 184.416775 
L 199.924444 184.416775 
L 199.924444 184.889161 
L 196.357531 184.889161 
L 196.357531 185.47151 
L 196.112593 185.47151 
L 196.112593 185.088 
L 195.255309 185.088 
L 195.255309 182.909101 
L 183.437037 182.909101 
L 183.437037 187.717671 
L 178.247407 187.717671 
L 178.247407 176.446147 
L 178.170864 176.486309 
L 176.150123 176.486309 
L 176.150123 171.554103 
L 175.262222 171.554103 
L 175.262222 166.877568 
L 169.980741 166.877568 
L 169.980741 164.424332 
L 154.21284 164.424332 
L 154.21284 171.204409 
L 153.324938 171.204409 
L 153.324938 171.354281 
L 152.957531 171.354281 
L 152.957531 170.795354 
L 146.436049 170.795354 
L 146.436049 165.896879 
L 142.716049 165.896879 
L 142.716049 166.275697 
L 142.011852 166.275697 
L 142.011852 166.439857 
L 141.705679 166.439857 
L 141.705679 164.509672 
L 138.184691 164.509672 
L 138.184691 163.262477 
L 137.847901 163.262477 
L 137.847901 162.958213 
L 136.699753 162.958213 
L 136.699753 163.379124 
L 124.973333 163.379124 
L 124.973333 170.507751 
L 121.467654 170.507751 
L 121.467654 120.309526 
L 121.06963 120.309526 
L 121.008395 119.759974 
L 119.584691 119.798246 
L 119.584691 119.914183 
L 119.26321 119.914183 
L 119.26321 120.06447 
L 113.62963 120.06447 
L 113.62963 118.009015 
L 107.046914 118.009015 
L 107.046914 120.984684 
L 105.883457 120.984684 
L 105.883457 120.426482 
L 105.439506 120.426482 
L 105.362963 116.585739 
L 105.026173 116.585739 
L 105.026173 116.733947 
L 105.026173 115.988802 
L 102.852346 115.967718 
L 102.852346 115.784553 
L 102.117531 115.784553 
L 102.117531 116.551465 
L 93.636543 116.551465 
L 93.636543 119.856574 
L 57.6 119.856574 
L 57.6 54.144 
L 57.6 54.144 
" style="fill:none;stroke:#0000ff;stroke-linecap:square;stroke-opacity:0.2;stroke-width:1.5;"/>
   </g>
   <g id="patch_3">
    <path d="M 57.6 307.584 
L 57.6 41.472 
" style="fill:none;stroke:#000000;stroke-linecap:square;stroke-linejoin:miter;stroke-width:0.8;"/>
   </g>
   <g id="patch_4">
    <path d="M 414.72 307.584 
L 414.72 41.472 
" style="fill:none;stroke:#000000;stroke-linecap:square;stroke-linejoin:miter;stroke-width:0.8;"/>
   </g>
   <g id="patch_5">
    <path d="M 57.6 307.584 
L 414.72 307.584 
" style="fill:none;stroke:#000000;stroke-linecap:square;stroke-linejoin:miter;stroke-width:0.8;"/>
   </g>
   <g id="patch_6">
    <path d="M 57.6 41.472 
L 414.72 41.472 
" style="fill:none;stroke:#000000;stroke-linecap:square;stroke-linejoin:miter;stroke-width:0.8;"/>
   </g>
   <g id="text_15">
    <!-- 2-class Precision-Recall curve -->
    <defs>
     <path d="M 4.890625 31.390625 
L 31.203125 31.390625 
L 31.203125 23.390625 
L 4.890625 23.390625 
z
" id="DejaVuSans-45"/>
     <path id="DejaVuSans-32"/>
     <path d="M 8.5 21.578125 
L 8.5 54.6875 
L 17.484375 54.6875 
L 17.484375 21.921875 
Q 17.484375 14.15625 20.5 10.265625 
Q 23.53125 6.390625 29.59375 6.390625 
Q 36.859375 6.390625 41.078125 11.03125 
Q 45.3125 15.671875 45.3125 23.6875 
L 45.3125 54.6875 
L 54.296875 54.6875 
L 54.296875 0 
L 45.3125 0 
L 45.3125 8.40625 
Q 42.046875 3.421875 37.71875 1 
Q 33.40625 -1.421875 27.6875 -1.421875 
Q 18.265625 -1.421875 13.375 4.4375 
Q 8.5 10.296875 8.5 21.578125 
z
M 31.109375 56 
z
" id="DejaVuSans-117"/>
     <path d="M 2.984375 54.6875 
L 12.5 54.6875 
L 29.59375 8.796875 
L 46.6875 54.6875 
L 56.203125 54.6875 
L 35.6875 0 
L 23.484375 0 
z
" id="DejaVuSans-118"/>
    </defs>
    <g transform="translate(147.321562 35.472)scale(0.12 -0.12)">
     <use xlink:href="#DejaVuSans-50"/>
     <use x="63.623047" xlink:href="#DejaVuSans-45"/>
     <use x="99.707031" xlink:href="#DejaVuSans-99"/>
     <use x="154.6875" xlink:href="#DejaVuSans-108"/>
     <use x="182.470703" xlink:href="#DejaVuSans-97"/>
     <use x="243.75" xlink:href="#DejaVuSans-115"/>
     <use x="295.849609" xlink:href="#DejaVuSans-115"/>
     <use x="347.949219" xlink:href="#DejaVuSans-32"/>
     <use x="379.736328" xlink:href="#DejaVuSans-80"/>
     <use x="440.023438" xlink:href="#DejaVuSans-114"/>
     <use x="481.105469" xlink:href="#DejaVuSans-101"/>
     <use x="542.628906" xlink:href="#DejaVuSans-99"/>
     <use x="597.609375" xlink:href="#DejaVuSans-105"/>
     <use x="625.392578" xlink:href="#DejaVuSans-115"/>
     <use x="677.492188" xlink:href="#DejaVuSans-105"/>
     <use x="705.275391" xlink:href="#DejaVuSans-111"/>
     <use x="766.457031" xlink:href="#DejaVuSans-110"/>
     <use x="829.835938" xlink:href="#DejaVuSans-45"/>
     <use x="865.919922" xlink:href="#DejaVuSans-82"/>
     <use x="935.339844" xlink:href="#DejaVuSans-101"/>
     <use x="996.863281" xlink:href="#DejaVuSans-99"/>
     <use x="1051.84375" xlink:href="#DejaVuSans-97"/>
     <use x="1113.123047" xlink:href="#DejaVuSans-108"/>
     <use x="1140.90625" xlink:href="#DejaVuSans-108"/>
     <use x="1168.689453" xlink:href="#DejaVuSans-32"/>
     <use x="1200.476562" xlink:href="#DejaVuSans-99"/>
     <use x="1255.457031" xlink:href="#DejaVuSans-117"/>
     <use x="1318.835938" xlink:href="#DejaVuSans-114"/>
     <use x="1359.949219" xlink:href="#DejaVuSans-118"/>
     <use x="1419.128906" xlink:href="#DejaVuSans-101"/>
    </g>
   </g>
  </g>
 </g>
 <defs>
  <clipPath id="p10c1b6dc3d">
   <rect height="266.112" width="357.12" x="57.6" y="41.472"/>
  </clipPath>
 </defs>
</svg>
