<?xml version="1.0" encoding="utf-8" standalone="no"?>
<!DOCTYPE svg PUBLIC "-//W3C//DTD SVG 1.1//EN"
  "http://www.w3.org/Graphics/SVG/1.1/DTD/svg11.dtd">
<!-- Created with matplotlib (https://matplotlib.org/) -->
<svg height="345.6pt" version="1.1" viewBox="0 0 460.8 345.6" width="460.8pt" xmlns="http://www.w3.org/2000/svg" xmlns:xlink="http://www.w3.org/1999/xlink">
 <defs>
  <style type="text/css">
*{stroke-linecap:butt;stroke-linejoin:round;}
  </style>
 </defs>
 <g id="figure_1">
  <g id="patch_1">
   <path d="M 0 345.6 
L 460.8 345.6 
L 460.8 0 
L 0 0 
z
" style="fill:#ffffff;"/>
  </g>
  <g id="axes_1">
   <g id="patch_2">
    <path d="M 57.6 307.584 
L 414.72 307.584 
L 414.72 41.472 
L 57.6 41.472 
z
" style="fill:#ffffff;"/>
   </g>
   <g id="PolyCollection_1">
    <defs>
     <path d="M 414.72 -38.016 
L 414.72 -94.252614 
L 398.027763 -224.8513 
L 398.003693 -225.096495 
L 397.991659 -225.207126 
L 397.967589 -225.419004 
L 397.967589 -225.639749 
L 397.91945 -225.947725 
L 397.871311 -226.246911 
L 397.847241 -226.401847 
L 397.606546 -226.506454 
L 397.582476 -226.647046 
L 397.570441 -226.714942 
L 397.546372 -226.830972 
L 397.498233 -227.013595 
L 397.462128 -227.11335 
L 397.36585 -227.520412 
L 397.221433 -227.983245 
L 397.137189 -228.143173 
L 397.064981 -228.37607 
L 397.040911 -228.392989 
L 396.956668 -228.548716 
L 396.908529 -228.719978 
L 396.824285 -228.942697 
L 396.752077 -229.147252 
L 396.728007 -229.225793 
L 396.547485 -229.719394 
L 396.427138 -230.001948 
L 396.210512 -230.625471 
L 396.162372 -230.75948 
L 395.873538 -231.195616 
L 395.813364 -231.381486 
L 395.271799 -232.945263 
L 395.079242 -233.25155 
L 394.994999 -233.455153 
L 394.850582 -233.780743 
L 394.814477 -233.862354 
L 394.742269 -234.015011 
L 394.152565 -235.09215 
L 394.11646 -235.164202 
L 393.923904 -235.523926 
L 393.887799 -235.590878 
L 393.803556 -235.74549 
L 393.56286 -236.096269 
L 393.346234 -236.485309 
L 391.408635 -239.745425 
L 391.336427 -239.869772 
L 391.228114 -240.024731 
L 391.107766 -240.225118 
L 390.999453 -240.404179 
L 390.61434 -240.913183 
L 390.433818 -241.208829 
L 389.771905 -242.136147 
L 389.687662 -242.269143 
L 389.591384 -242.353157 
L 389.242375 -242.796709 
L 389.182201 -242.87368 
L 389.085923 -243.012663 
L 388.97761 -243.168587 
L 386.823385 -246.111106 
L 386.53455 -246.460333 
L 386.390133 -246.632475 
L 386.293855 -246.829336 
L 386.149437 -247.002378 
L 386.00502 -247.137911 
L 385.571768 -247.559002 
L 385.487524 -247.657825 
L 385.19869 -248.079036 
L 385.018168 -248.27699 
L 384.741368 -248.561507 
L 384.548812 -248.811226 
L 384.464568 -248.860194 
L 384.356255 -248.971254 
L 376.942832 -256.609545 
L 376.822484 -256.733335 
L 376.329058 -257.344333 
L 376.244815 -257.408234 
L 376.040224 -257.583232 
L 375.70325 -257.919689 
L 375.474589 -258.101176 
L 375.197789 -258.329644 
L 374.030416 -259.313088 
L 373.922103 -259.40644 
L 371.575321 -261.681387 
L 371.491078 -261.750036 
L 371.430904 -261.798036 
L 371.238347 -262.100812 
L 370.744921 -262.464072 
L 370.26353 -262.899746 
L 370.155217 -262.975508 
L 369.746035 -263.266087 
L 369.601618 -263.362641 
L 369.517374 -263.417754 
L 369.324818 -263.541728 
L 352.969554 -273.218977 
L 352.764963 -273.349716 
L 352.440024 -273.54542 
L 352.091016 -273.668878 
L 351.910494 -273.757326 
L 350.755155 -274.35108 
L 350.081208 -274.677505 
L 349.214704 -275.041923 
L 348.913834 -275.392901 
L 346.482809 -276.475304 
L 346.061592 -276.651424 
L 345.929209 -276.71069 
L 345.832931 -276.752991 
L 345.411714 -276.911495 
L 345.07474 -277.046334 
L 344.677593 -277.122065 
L 344.497071 -277.189277 
L 336.915161 -279.987655 
L 336.650396 -280.076933 
L 336.108831 -280.225725 
L 335.591335 -280.366164 
L 335.422848 -280.419977 
L 335.278431 -280.464738 
L 333.930536 -281.132471 
L 333.737979 -281.186561 
L 333.497284 -281.239041 
L 332.450258 -281.467639 
L 328.454712 -282.483711 
L 328.141808 -282.557643 
L 327.901112 -282.613044 
L 326.974434 -282.773627 
L 324.266609 -283.244101 
L 323.713009 -283.345654 
L 322.846505 -283.492493 
L 322.184593 -283.5922 
L 321.582854 -283.683347 
L 321.005184 -283.753885 
L 320.523793 -283.80566 
L 320.355306 -283.82274 
L 319.897985 -283.875474 
L 319.597115 -283.899899 
L 319.488802 -283.907829 
L 319.236072 -283.911729 
L 318.983342 -283.926622 
L 318.477881 -283.94549 
L 318.104803 -283.957103 
L 317.876142 -283.961745 
L 317.154055 -283.974713 
L 316.504177 -283.967584 
L 57.6 -291.456 
L 57.6 -38.016 
L 57.6 -38.016 
L 316.504177 -38.016 
L 317.154055 -38.016 
L 317.876142 -38.016 
L 318.104803 -38.016 
L 318.477881 -38.016 
L 318.983342 -38.016 
L 319.236072 -38.016 
L 319.488802 -38.016 
L 319.597115 -38.016 
L 319.897985 -38.016 
L 320.355306 -38.016 
L 320.523793 -38.016 
L 321.005184 -38.016 
L 321.582854 -38.016 
L 322.184593 -38.016 
L 322.846505 -38.016 
L 323.713009 -38.016 
L 324.266609 -38.016 
L 326.974434 -38.016 
L 327.901112 -38.016 
L 328.141808 -38.016 
L 328.454712 -38.016 
L 332.450258 -38.016 
L 333.497284 -38.016 
L 333.737979 -38.016 
L 333.930536 -38.016 
L 335.278431 -38.016 
L 335.422848 -38.016 
L 335.591335 -38.016 
L 336.108831 -38.016 
L 336.650396 -38.016 
L 336.915161 -38.016 
L 344.497071 -38.016 
L 344.677593 -38.016 
L 345.07474 -38.016 
L 345.411714 -38.016 
L 345.832931 -38.016 
L 345.929209 -38.016 
L 346.061592 -38.016 
L 346.482809 -38.016 
L 348.913834 -38.016 
L 349.214704 -38.016 
L 350.081208 -38.016 
L 350.755155 -38.016 
L 351.910494 -38.016 
L 352.091016 -38.016 
L 352.440024 -38.016 
L 352.764963 -38.016 
L 352.969554 -38.016 
L 369.324818 -38.016 
L 369.517374 -38.016 
L 369.601618 -38.016 
L 369.746035 -38.016 
L 370.155217 -38.016 
L 370.26353 -38.016 
L 370.744921 -38.016 
L 371.238347 -38.016 
L 371.430904 -38.016 
L 371.491078 -38.016 
L 371.575321 -38.016 
L 373.922103 -38.016 
L 374.030416 -38.016 
L 375.197789 -38.016 
L 375.474589 -38.016 
L 375.70325 -38.016 
L 376.040224 -38.016 
L 376.244815 -38.016 
L 376.329058 -38.016 
L 376.822484 -38.016 
L 376.942832 -38.016 
L 384.356255 -38.016 
L 384.464568 -38.016 
L 384.548812 -38.016 
L 384.741368 -38.016 
L 385.018168 -38.016 
L 385.19869 -38.016 
L 385.487524 -38.016 
L 385.571768 -38.016 
L 386.00502 -38.016 
L 386.149437 -38.016 
L 386.293855 -38.016 
L 386.390133 -38.016 
L 386.53455 -38.016 
L 386.823385 -38.016 
L 388.97761 -38.016 
L 389.085923 -38.016 
L 389.182201 -38.016 
L 389.242375 -38.016 
L 389.591384 -38.016 
L 389.687662 -38.016 
L 389.771905 -38.016 
L 390.433818 -38.016 
L 390.61434 -38.016 
L 390.999453 -38.016 
L 391.107766 -38.016 
L 391.228114 -38.016 
L 391.336427 -38.016 
L 391.408635 -38.016 
L 393.346234 -38.016 
L 393.56286 -38.016 
L 393.803556 -38.016 
L 393.887799 -38.016 
L 393.923904 -38.016 
L 394.11646 -38.016 
L 394.152565 -38.016 
L 394.742269 -38.016 
L 394.814477 -38.016 
L 394.850582 -38.016 
L 394.994999 -38.016 
L 395.079242 -38.016 
L 395.271799 -38.016 
L 395.813364 -38.016 
L 395.873538 -38.016 
L 396.162372 -38.016 
L 396.210512 -38.016 
L 396.427138 -38.016 
L 396.547485 -38.016 
L 396.728007 -38.016 
L 396.752077 -38.016 
L 396.824285 -38.016 
L 396.908529 -38.016 
L 396.956668 -38.016 
L 397.040911 -38.016 
L 397.064981 -38.016 
L 397.137189 -38.016 
L 397.221433 -38.016 
L 397.36585 -38.016 
L 397.462128 -38.016 
L 397.498233 -38.016 
L 397.546372 -38.016 
L 397.570441 -38.016 
L 397.582476 -38.016 
L 397.606546 -38.016 
L 397.847241 -38.016 
L 397.871311 -38.016 
L 397.91945 -38.016 
L 397.967589 -38.016 
L 397.967589 -38.016 
L 397.991659 -38.016 
L 398.003693 -38.016 
L 398.027763 -38.016 
L 414.72 -38.016 
z
" id="m4e039903bd" style="stroke:#0000ff;stroke-opacity:0.2;"/>
    </defs>
    <g clip-path="url(#pb8de7a4155)">
     <use style="fill:#0000ff;fill-opacity:0.2;stroke:#0000ff;stroke-opacity:0.2;" x="0" xlink:href="#m4e039903bd" y="345.6"/>
    </g>
   </g>
   <g id="matplotlib.axis_1">
    <g id="xtick_1">
     <g id="line2d_1">
      <defs>
       <path d="M 0 0 
L 0 3.5 
" id="me42339b2db" style="stroke:#000000;stroke-width:0.8;"/>
      </defs>
      <g>
       <use style="stroke:#000000;stroke-width:0.8;" x="57.6" xlink:href="#me42339b2db" y="307.584"/>
      </g>
     </g>
     <g id="text_1">
      <!-- 0.0 -->
      <defs>
       <path d="M 31.78125 66.40625 
Q 24.171875 66.40625 20.328125 58.90625 
Q 16.5 51.421875 16.5 36.375 
Q 16.5 21.390625 20.328125 13.890625 
Q 24.171875 6.390625 31.78125 6.390625 
Q 39.453125 6.390625 43.28125 13.890625 
Q 47.125 21.390625 47.125 36.375 
Q 47.125 51.421875 43.28125 58.90625 
Q 39.453125 66.40625 31.78125 66.40625 
z
M 31.78125 74.21875 
Q 44.046875 74.21875 50.515625 64.515625 
Q 56.984375 54.828125 56.984375 36.375 
Q 56.984375 17.96875 50.515625 8.265625 
Q 44.046875 -1.421875 31.78125 -1.421875 
Q 19.53125 -1.421875 13.0625 8.265625 
Q 6.59375 17.96875 6.59375 36.375 
Q 6.59375 54.828125 13.0625 64.515625 
Q 19.53125 74.21875 31.78125 74.21875 
z
" id="DejaVuSans-48"/>
       <path d="M 10.6875 12.40625 
L 21 12.40625 
L 21 0 
L 10.6875 0 
z
" id="DejaVuSans-46"/>
      </defs>
      <g transform="translate(49.648438 322.182437)scale(0.1 -0.1)">
       <use xlink:href="#DejaVuSans-48"/>
       <use x="63.623047" xlink:href="#DejaVuSans-46"/>
       <use x="95.410156" xlink:href="#DejaVuSans-48"/>
      </g>
     </g>
    </g>
    <g id="xtick_2">
     <g id="line2d_2">
      <g>
       <use style="stroke:#000000;stroke-width:0.8;" x="129.024" xlink:href="#me42339b2db" y="307.584"/>
      </g>
     </g>
     <g id="text_2">
      <!-- 0.2 -->
      <defs>
       <path d="M 19.1875 8.296875 
L 53.609375 8.296875 
L 53.609375 0 
L 7.328125 0 
L 7.328125 8.296875 
Q 12.9375 14.109375 22.625 23.890625 
Q 32.328125 33.6875 34.8125 36.53125 
Q 39.546875 41.84375 41.421875 45.53125 
Q 43.3125 49.21875 43.3125 52.78125 
Q 43.3125 58.59375 39.234375 62.25 
Q 35.15625 65.921875 28.609375 65.921875 
Q 23.96875 65.921875 18.8125 64.3125 
Q 13.671875 62.703125 7.8125 59.421875 
L 7.8125 69.390625 
Q 13.765625 71.78125 18.9375 73 
Q 24.125 74.21875 28.421875 74.21875 
Q 39.75 74.21875 46.484375 68.546875 
Q 53.21875 62.890625 53.21875 53.421875 
Q 53.21875 48.921875 51.53125 44.890625 
Q 49.859375 40.875 45.40625 35.40625 
Q 44.1875 33.984375 37.640625 27.21875 
Q 31.109375 20.453125 19.1875 8.296875 
z
" id="DejaVuSans-50"/>
      </defs>
      <g transform="translate(121.072438 322.182437)scale(0.1 -0.1)">
       <use xlink:href="#DejaVuSans-48"/>
       <use x="63.623047" xlink:href="#DejaVuSans-46"/>
       <use x="95.410156" xlink:href="#DejaVuSans-50"/>
      </g>
     </g>
    </g>
    <g id="xtick_3">
     <g id="line2d_3">
      <g>
       <use style="stroke:#000000;stroke-width:0.8;" x="200.448" xlink:href="#me42339b2db" y="307.584"/>
      </g>
     </g>
     <g id="text_3">
      <!-- 0.4 -->
      <defs>
       <path d="M 37.796875 64.3125 
L 12.890625 25.390625 
L 37.796875 25.390625 
z
M 35.203125 72.90625 
L 47.609375 72.90625 
L 47.609375 25.390625 
L 58.015625 25.390625 
L 58.015625 17.1875 
L 47.609375 17.1875 
L 47.609375 0 
L 37.796875 0 
L 37.796875 17.1875 
L 4.890625 17.1875 
L 4.890625 26.703125 
z
" id="DejaVuSans-52"/>
      </defs>
      <g transform="translate(192.496438 322.182437)scale(0.1 -0.1)">
       <use xlink:href="#DejaVuSans-48"/>
       <use x="63.623047" xlink:href="#DejaVuSans-46"/>
       <use x="95.410156" xlink:href="#DejaVuSans-52"/>
      </g>
     </g>
    </g>
    <g id="xtick_4">
     <g id="line2d_4">
      <g>
       <use style="stroke:#000000;stroke-width:0.8;" x="271.872" xlink:href="#me42339b2db" y="307.584"/>
      </g>
     </g>
     <g id="text_4">
      <!-- 0.6 -->
      <defs>
       <path d="M 33.015625 40.375 
Q 26.375 40.375 22.484375 35.828125 
Q 18.609375 31.296875 18.609375 23.390625 
Q 18.609375 15.53125 22.484375 10.953125 
Q 26.375 6.390625 33.015625 6.390625 
Q 39.65625 6.390625 43.53125 10.953125 
Q 47.40625 15.53125 47.40625 23.390625 
Q 47.40625 31.296875 43.53125 35.828125 
Q 39.65625 40.375 33.015625 40.375 
z
M 52.59375 71.296875 
L 52.59375 62.3125 
Q 48.875 64.0625 45.09375 64.984375 
Q 41.3125 65.921875 37.59375 65.921875 
Q 27.828125 65.921875 22.671875 59.328125 
Q 17.53125 52.734375 16.796875 39.40625 
Q 19.671875 43.65625 24.015625 45.921875 
Q 28.375 48.1875 33.59375 48.1875 
Q 44.578125 48.1875 50.953125 41.515625 
Q 57.328125 34.859375 57.328125 23.390625 
Q 57.328125 12.15625 50.6875 5.359375 
Q 44.046875 -1.421875 33.015625 -1.421875 
Q 20.359375 -1.421875 13.671875 8.265625 
Q 6.984375 17.96875 6.984375 36.375 
Q 6.984375 53.65625 15.1875 63.9375 
Q 23.390625 74.21875 37.203125 74.21875 
Q 40.921875 74.21875 44.703125 73.484375 
Q 48.484375 72.75 52.59375 71.296875 
z
" id="DejaVuSans-54"/>
      </defs>
      <g transform="translate(263.920438 322.182437)scale(0.1 -0.1)">
       <use xlink:href="#DejaVuSans-48"/>
       <use x="63.623047" xlink:href="#DejaVuSans-46"/>
       <use x="95.410156" xlink:href="#DejaVuSans-54"/>
      </g>
     </g>
    </g>
    <g id="xtick_5">
     <g id="line2d_5">
      <g>
       <use style="stroke:#000000;stroke-width:0.8;" x="343.296" xlink:href="#me42339b2db" y="307.584"/>
      </g>
     </g>
     <g id="text_5">
      <!-- 0.8 -->
      <defs>
       <path d="M 31.78125 34.625 
Q 24.75 34.625 20.71875 30.859375 
Q 16.703125 27.09375 16.703125 20.515625 
Q 16.703125 13.921875 20.71875 10.15625 
Q 24.75 6.390625 31.78125 6.390625 
Q 38.8125 6.390625 42.859375 10.171875 
Q 46.921875 13.96875 46.921875 20.515625 
Q 46.921875 27.09375 42.890625 30.859375 
Q 38.875 34.625 31.78125 34.625 
z
M 21.921875 38.8125 
Q 15.578125 40.375 12.03125 44.71875 
Q 8.5 49.078125 8.5 55.328125 
Q 8.5 64.0625 14.71875 69.140625 
Q 20.953125 74.21875 31.78125 74.21875 
Q 42.671875 74.21875 48.875 69.140625 
Q 55.078125 64.0625 55.078125 55.328125 
Q 55.078125 49.078125 51.53125 44.71875 
Q 48 40.375 41.703125 38.8125 
Q 48.828125 37.15625 52.796875 32.3125 
Q 56.78125 27.484375 56.78125 20.515625 
Q 56.78125 9.90625 50.3125 4.234375 
Q 43.84375 -1.421875 31.78125 -1.421875 
Q 19.734375 -1.421875 13.25 4.234375 
Q 6.78125 9.90625 6.78125 20.515625 
Q 6.78125 27.484375 10.78125 32.3125 
Q 14.796875 37.15625 21.921875 38.8125 
z
M 18.3125 54.390625 
Q 18.3125 48.734375 21.84375 45.5625 
Q 25.390625 42.390625 31.78125 42.390625 
Q 38.140625 42.390625 41.71875 45.5625 
Q 45.3125 48.734375 45.3125 54.390625 
Q 45.3125 60.0625 41.71875 63.234375 
Q 38.140625 66.40625 31.78125 66.40625 
Q 25.390625 66.40625 21.84375 63.234375 
Q 18.3125 60.0625 18.3125 54.390625 
z
" id="DejaVuSans-56"/>
      </defs>
      <g transform="translate(335.344438 322.182437)scale(0.1 -0.1)">
       <use xlink:href="#DejaVuSans-48"/>
       <use x="63.623047" xlink:href="#DejaVuSans-46"/>
       <use x="95.410156" xlink:href="#DejaVuSans-56"/>
      </g>
     </g>
    </g>
    <g id="xtick_6">
     <g id="line2d_6">
      <g>
       <use style="stroke:#000000;stroke-width:0.8;" x="414.72" xlink:href="#me42339b2db" y="307.584"/>
      </g>
     </g>
     <g id="text_6">
      <!-- 1.0 -->
      <defs>
       <path d="M 12.40625 8.296875 
L 28.515625 8.296875 
L 28.515625 63.921875 
L 10.984375 60.40625 
L 10.984375 69.390625 
L 28.421875 72.90625 
L 38.28125 72.90625 
L 38.28125 8.296875 
L 54.390625 8.296875 
L 54.390625 0 
L 12.40625 0 
z
" id="DejaVuSans-49"/>
      </defs>
      <g transform="translate(406.768438 322.182437)scale(0.1 -0.1)">
       <use xlink:href="#DejaVuSans-49"/>
       <use x="63.623047" xlink:href="#DejaVuSans-46"/>
       <use x="95.410156" xlink:href="#DejaVuSans-48"/>
      </g>
     </g>
    </g>
    <g id="text_7">
     <!-- Recall -->
     <defs>
      <path d="M 44.390625 34.1875 
Q 47.5625 33.109375 50.5625 29.59375 
Q 53.5625 26.078125 56.59375 19.921875 
L 66.609375 0 
L 56 0 
L 46.6875 18.703125 
Q 43.0625 26.03125 39.671875 28.421875 
Q 36.28125 30.8125 30.421875 30.8125 
L 19.671875 30.8125 
L 19.671875 0 
L 9.8125 0 
L 9.8125 72.90625 
L 32.078125 72.90625 
Q 44.578125 72.90625 50.734375 67.671875 
Q 56.890625 62.453125 56.890625 51.90625 
Q 56.890625 45.015625 53.6875 40.46875 
Q 50.484375 35.9375 44.390625 34.1875 
z
M 19.671875 64.796875 
L 19.671875 38.921875 
L 32.078125 38.921875 
Q 39.203125 38.921875 42.84375 42.21875 
Q 46.484375 45.515625 46.484375 51.90625 
Q 46.484375 58.296875 42.84375 61.546875 
Q 39.203125 64.796875 32.078125 64.796875 
z
" id="DejaVuSans-82"/>
      <path d="M 56.203125 29.59375 
L 56.203125 25.203125 
L 14.890625 25.203125 
Q 15.484375 15.921875 20.484375 11.0625 
Q 25.484375 6.203125 34.421875 6.203125 
Q 39.59375 6.203125 44.453125 7.46875 
Q 49.3125 8.734375 54.109375 11.28125 
L 54.109375 2.78125 
Q 49.265625 0.734375 44.1875 -0.34375 
Q 39.109375 -1.421875 33.890625 -1.421875 
Q 20.796875 -1.421875 13.15625 6.1875 
Q 5.515625 13.8125 5.515625 26.8125 
Q 5.515625 40.234375 12.765625 48.109375 
Q 20.015625 56 32.328125 56 
Q 43.359375 56 49.78125 48.890625 
Q 56.203125 41.796875 56.203125 29.59375 
z
M 47.21875 32.234375 
Q 47.125 39.59375 43.09375 43.984375 
Q 39.0625 48.390625 32.421875 48.390625 
Q 24.90625 48.390625 20.390625 44.140625 
Q 15.875 39.890625 15.1875 32.171875 
z
" id="DejaVuSans-101"/>
      <path d="M 48.78125 52.59375 
L 48.78125 44.1875 
Q 44.96875 46.296875 41.140625 47.34375 
Q 37.3125 48.390625 33.40625 48.390625 
Q 24.65625 48.390625 19.8125 42.84375 
Q 14.984375 37.3125 14.984375 27.296875 
Q 14.984375 17.28125 19.8125 11.734375 
Q 24.65625 6.203125 33.40625 6.203125 
Q 37.3125 6.203125 41.140625 7.25 
Q 44.96875 8.296875 48.78125 10.40625 
L 48.78125 2.09375 
Q 45.015625 0.34375 40.984375 -0.53125 
Q 36.96875 -1.421875 32.421875 -1.421875 
Q 20.0625 -1.421875 12.78125 6.34375 
Q 5.515625 14.109375 5.515625 27.296875 
Q 5.515625 40.671875 12.859375 48.328125 
Q 20.21875 56 33.015625 56 
Q 37.15625 56 41.109375 55.140625 
Q 45.0625 54.296875 48.78125 52.59375 
z
" id="DejaVuSans-99"/>
      <path d="M 34.28125 27.484375 
Q 23.390625 27.484375 19.1875 25 
Q 14.984375 22.515625 14.984375 16.5 
Q 14.984375 11.71875 18.140625 8.90625 
Q 21.296875 6.109375 26.703125 6.109375 
Q 34.1875 6.109375 38.703125 11.40625 
Q 43.21875 16.703125 43.21875 25.484375 
L 43.21875 27.484375 
z
M 52.203125 31.203125 
L 52.203125 0 
L 43.21875 0 
L 43.21875 8.296875 
Q 40.140625 3.328125 35.546875 0.953125 
Q 30.953125 -1.421875 24.3125 -1.421875 
Q 15.921875 -1.421875 10.953125 3.296875 
Q 6 8.015625 6 15.921875 
Q 6 25.140625 12.171875 29.828125 
Q 18.359375 34.515625 30.609375 34.515625 
L 43.21875 34.515625 
L 43.21875 35.40625 
Q 43.21875 41.609375 39.140625 45 
Q 35.0625 48.390625 27.6875 48.390625 
Q 23 48.390625 18.546875 47.265625 
Q 14.109375 46.140625 10.015625 43.890625 
L 10.015625 52.203125 
Q 14.9375 54.109375 19.578125 55.046875 
Q 24.21875 56 28.609375 56 
Q 40.484375 56 46.34375 49.84375 
Q 52.203125 43.703125 52.203125 31.203125 
z
" id="DejaVuSans-97"/>
      <path d="M 9.421875 75.984375 
L 18.40625 75.984375 
L 18.40625 0 
L 9.421875 0 
z
" id="DejaVuSans-108"/>
     </defs>
     <g transform="translate(221.020938 335.860562)scale(0.1 -0.1)">
      <use xlink:href="#DejaVuSans-82"/>
      <use x="69.419922" xlink:href="#DejaVuSans-101"/>
      <use x="130.943359" xlink:href="#DejaVuSans-99"/>
      <use x="185.923828" xlink:href="#DejaVuSans-97"/>
      <use x="247.203125" xlink:href="#DejaVuSans-108"/>
      <use x="274.986328" xlink:href="#DejaVuSans-108"/>
     </g>
    </g>
   </g>
   <g id="matplotlib.axis_2">
    <g id="ytick_1">
     <g id="line2d_7">
      <defs>
       <path d="M 0 0 
L -3.5 0 
" id="m75b6d14c24" style="stroke:#000000;stroke-width:0.8;"/>
      </defs>
      <g>
       <use style="stroke:#000000;stroke-width:0.8;" x="57.6" xlink:href="#m75b6d14c24" y="307.584"/>
      </g>
     </g>
     <g id="text_8">
      <!-- 0.0 -->
      <g transform="translate(34.696875 311.383219)scale(0.1 -0.1)">
       <use xlink:href="#DejaVuSans-48"/>
       <use x="63.623047" xlink:href="#DejaVuSans-46"/>
       <use x="95.410156" xlink:href="#DejaVuSans-48"/>
      </g>
     </g>
    </g>
    <g id="ytick_2">
     <g id="line2d_8">
      <g>
       <use style="stroke:#000000;stroke-width:0.8;" x="57.6" xlink:href="#m75b6d14c24" y="256.896"/>
      </g>
     </g>
     <g id="text_9">
      <!-- 0.2 -->
      <g transform="translate(34.696875 260.695219)scale(0.1 -0.1)">
       <use xlink:href="#DejaVuSans-48"/>
       <use x="63.623047" xlink:href="#DejaVuSans-46"/>
       <use x="95.410156" xlink:href="#DejaVuSans-50"/>
      </g>
     </g>
    </g>
    <g id="ytick_3">
     <g id="line2d_9">
      <g>
       <use style="stroke:#000000;stroke-width:0.8;" x="57.6" xlink:href="#m75b6d14c24" y="206.208"/>
      </g>
     </g>
     <g id="text_10">
      <!-- 0.4 -->
      <g transform="translate(34.696875 210.007219)scale(0.1 -0.1)">
       <use xlink:href="#DejaVuSans-48"/>
       <use x="63.623047" xlink:href="#DejaVuSans-46"/>
       <use x="95.410156" xlink:href="#DejaVuSans-52"/>
      </g>
     </g>
    </g>
    <g id="ytick_4">
     <g id="line2d_10">
      <g>
       <use style="stroke:#000000;stroke-width:0.8;" x="57.6" xlink:href="#m75b6d14c24" y="155.52"/>
      </g>
     </g>
     <g id="text_11">
      <!-- 0.6 -->
      <g transform="translate(34.696875 159.319219)scale(0.1 -0.1)">
       <use xlink:href="#DejaVuSans-48"/>
       <use x="63.623047" xlink:href="#DejaVuSans-46"/>
       <use x="95.410156" xlink:href="#DejaVuSans-54"/>
      </g>
     </g>
    </g>
    <g id="ytick_5">
     <g id="line2d_11">
      <g>
       <use style="stroke:#000000;stroke-width:0.8;" x="57.6" xlink:href="#m75b6d14c24" y="104.832"/>
      </g>
     </g>
     <g id="text_12">
      <!-- 0.8 -->
      <g transform="translate(34.696875 108.631219)scale(0.1 -0.1)">
       <use xlink:href="#DejaVuSans-48"/>
       <use x="63.623047" xlink:href="#DejaVuSans-46"/>
       <use x="95.410156" xlink:href="#DejaVuSans-56"/>
      </g>
     </g>
    </g>
    <g id="ytick_6">
     <g id="line2d_12">
      <g>
       <use style="stroke:#000000;stroke-width:0.8;" x="57.6" xlink:href="#m75b6d14c24" y="54.144"/>
      </g>
     </g>
     <g id="text_13">
      <!-- 1.0 -->
      <g transform="translate(34.696875 57.943219)scale(0.1 -0.1)">
       <use xlink:href="#DejaVuSans-49"/>
       <use x="63.623047" xlink:href="#DejaVuSans-46"/>
       <use x="95.410156" xlink:href="#DejaVuSans-48"/>
      </g>
     </g>
    </g>
    <g id="text_14">
     <!-- Precision -->
     <defs>
      <path d="M 19.671875 64.796875 
L 19.671875 37.40625 
L 32.078125 37.40625 
Q 38.96875 37.40625 42.71875 40.96875 
Q 46.484375 44.53125 46.484375 51.125 
Q 46.484375 57.671875 42.71875 61.234375 
Q 38.96875 64.796875 32.078125 64.796875 
z
M 9.8125 72.90625 
L 32.078125 72.90625 
Q 44.34375 72.90625 50.609375 67.359375 
Q 56.890625 61.8125 56.890625 51.125 
Q 56.890625 40.328125 50.609375 34.8125 
Q 44.34375 29.296875 32.078125 29.296875 
L 19.671875 29.296875 
L 19.671875 0 
L 9.8125 0 
z
" id="DejaVuSans-80"/>
      <path d="M 41.109375 46.296875 
Q 39.59375 47.171875 37.8125 47.578125 
Q 36.03125 48 33.890625 48 
Q 26.265625 48 22.1875 43.046875 
Q 18.109375 38.09375 18.109375 28.8125 
L 18.109375 0 
L 9.078125 0 
L 9.078125 54.6875 
L 18.109375 54.6875 
L 18.109375 46.1875 
Q 20.953125 51.171875 25.484375 53.578125 
Q 30.03125 56 36.53125 56 
Q 37.453125 56 38.578125 55.875 
Q 39.703125 55.765625 41.0625 55.515625 
z
" id="DejaVuSans-114"/>
      <path d="M 9.421875 54.6875 
L 18.40625 54.6875 
L 18.40625 0 
L 9.421875 0 
z
M 9.421875 75.984375 
L 18.40625 75.984375 
L 18.40625 64.59375 
L 9.421875 64.59375 
z
" id="DejaVuSans-105"/>
      <path d="M 44.28125 53.078125 
L 44.28125 44.578125 
Q 40.484375 46.53125 36.375 47.5 
Q 32.28125 48.484375 27.875 48.484375 
Q 21.1875 48.484375 17.84375 46.4375 
Q 14.5 44.390625 14.5 40.28125 
Q 14.5 37.15625 16.890625 35.375 
Q 19.28125 33.59375 26.515625 31.984375 
L 29.59375 31.296875 
Q 39.15625 29.25 43.1875 25.515625 
Q 47.21875 21.78125 47.21875 15.09375 
Q 47.21875 7.46875 41.1875 3.015625 
Q 35.15625 -1.421875 24.609375 -1.421875 
Q 20.21875 -1.421875 15.453125 -0.5625 
Q 10.6875 0.296875 5.421875 2 
L 5.421875 11.28125 
Q 10.40625 8.6875 15.234375 7.390625 
Q 20.0625 6.109375 24.8125 6.109375 
Q 31.15625 6.109375 34.5625 8.28125 
Q 37.984375 10.453125 37.984375 14.40625 
Q 37.984375 18.0625 35.515625 20.015625 
Q 33.0625 21.96875 24.703125 23.78125 
L 21.578125 24.515625 
Q 13.234375 26.265625 9.515625 29.90625 
Q 5.8125 33.546875 5.8125 39.890625 
Q 5.8125 47.609375 11.28125 51.796875 
Q 16.75 56 26.8125 56 
Q 31.78125 56 36.171875 55.265625 
Q 40.578125 54.546875 44.28125 53.078125 
z
" id="DejaVuSans-115"/>
      <path d="M 30.609375 48.390625 
Q 23.390625 48.390625 19.1875 42.75 
Q 14.984375 37.109375 14.984375 27.296875 
Q 14.984375 17.484375 19.15625 11.84375 
Q 23.34375 6.203125 30.609375 6.203125 
Q 37.796875 6.203125 41.984375 11.859375 
Q 46.1875 17.53125 46.1875 27.296875 
Q 46.1875 37.015625 41.984375 42.703125 
Q 37.796875 48.390625 30.609375 48.390625 
z
M 30.609375 56 
Q 42.328125 56 49.015625 48.375 
Q 55.71875 40.765625 55.71875 27.296875 
Q 55.71875 13.875 49.015625 6.21875 
Q 42.328125 -1.421875 30.609375 -1.421875 
Q 18.84375 -1.421875 12.171875 6.21875 
Q 5.515625 13.875 5.515625 27.296875 
Q 5.515625 40.765625 12.171875 48.375 
Q 18.84375 56 30.609375 56 
z
" id="DejaVuSans-111"/>
      <path d="M 54.890625 33.015625 
L 54.890625 0 
L 45.90625 0 
L 45.90625 32.71875 
Q 45.90625 40.484375 42.875 44.328125 
Q 39.84375 48.1875 33.796875 48.1875 
Q 26.515625 48.1875 22.3125 43.546875 
Q 18.109375 38.921875 18.109375 30.90625 
L 18.109375 0 
L 9.078125 0 
L 9.078125 54.6875 
L 18.109375 54.6875 
L 18.109375 46.1875 
Q 21.34375 51.125 25.703125 53.5625 
Q 30.078125 56 35.796875 56 
Q 45.21875 56 50.046875 50.171875 
Q 54.890625 44.34375 54.890625 33.015625 
z
" id="DejaVuSans-110"/>
     </defs>
     <g transform="translate(28.617187 197.032688)rotate(-90)scale(0.1 -0.1)">
      <use xlink:href="#DejaVuSans-80"/>
      <use x="60.287109" xlink:href="#DejaVuSans-114"/>
      <use x="101.369141" xlink:href="#DejaVuSans-101"/>
      <use x="162.892578" xlink:href="#DejaVuSans-99"/>
      <use x="217.873047" xlink:href="#DejaVuSans-105"/>
      <use x="245.65625" xlink:href="#DejaVuSans-115"/>
      <use x="297.755859" xlink:href="#DejaVuSans-105"/>
      <use x="325.539062" xlink:href="#DejaVuSans-111"/>
      <use x="386.720703" xlink:href="#DejaVuSans-110"/>
     </g>
    </g>
   </g>
   <g id="line2d_13">
    <path clip-path="url(#pb8de7a4155)" d="M 414.72 251.347386 
L 398.027763 251.347386 
L 397.91945 119.652275 
L 397.871311 119.652275 
L 397.847241 119.198153 
L 397.582476 119.093546 
L 397.498233 118.586405 
L 397.36585 118.48665 
L 397.36585 118.079588 
L 397.221433 118.079588 
L 397.137189 117.456827 
L 397.064981 117.456827 
L 396.956668 117.051284 
L 396.908529 117.051284 
L 396.824285 116.657303 
L 396.752077 116.657303 
L 396.728007 116.374207 
L 396.547485 116.374207 
L 396.547485 115.880606 
L 396.427138 115.880606 
L 396.427138 115.598052 
L 396.210512 115.598052 
L 396.162372 114.84052 
L 395.873538 114.84052 
L 395.813364 114.218514 
L 395.271799 114.218514 
L 395.271799 112.654737 
L 395.079242 112.654737 
L 394.994999 112.144847 
L 394.850582 112.144847 
L 394.742269 111.584989 
L 394.152565 111.584989 
L 394.11646 110.435798 
L 393.923904 110.435798 
L 393.887799 110.009122 
L 393.803556 110.009122 
L 393.803556 109.85451 
L 393.56286 109.85451 
L 393.56286 109.503731 
L 393.346234 109.503731 
L 393.346234 109.114691 
L 391.408635 109.114691 
L 391.336427 105.730228 
L 391.228114 105.730228 
L 391.228114 105.575269 
L 391.107766 105.575269 
L 390.999453 105.195821 
L 390.61434 105.195821 
L 390.61434 104.686817 
L 390.433818 104.686817 
L 390.433818 104.391171 
L 389.771905 104.391171 
L 389.687662 103.330857 
L 389.242375 103.246843 
L 389.182201 102.72632 
L 389.085923 102.72632 
L 388.97761 102.431413 
L 386.823385 102.431413 
L 386.823385 99.488894 
L 386.53455 99.488894 
L 386.53455 99.139667 
L 386.390133 99.139667 
L 386.293855 98.770664 
L 386.149437 98.770664 
L 386.149437 98.597622 
L 386.00502 98.597622 
L 386.00502 98.462089 
L 385.571768 98.462089 
L 385.487524 97.942175 
L 385.19869 97.942175 
L 385.19869 97.520964 
L 385.018168 97.520964 
L 385.018168 97.32301 
L 384.741368 97.32301 
L 384.741368 97.038493 
L 384.548812 97.038493 
L 384.464568 96.739806 
L 376.942832 96.628746 
L 376.942832 88.990455 
L 376.822484 88.990455 
L 376.822484 88.866665 
L 376.329058 88.866665 
L 376.244815 88.191766 
L 376.040224 88.191766 
L 376.040224 88.016768 
L 375.70325 88.016768 
L 375.70325 87.680311 
L 375.474589 87.680311 
L 375.474589 87.498824 
L 375.197789 87.498824 
L 375.197789 87.270356 
L 374.030416 87.270356 
L 373.922103 86.19356 
L 371.575321 86.19356 
L 371.491078 83.849964 
L 371.238347 83.801964 
L 371.238347 83.499188 
L 370.744921 83.499188 
L 370.744921 83.135928 
L 370.26353 83.135928 
L 370.155217 82.624492 
L 369.746035 82.624492 
L 369.746035 82.333913 
L 369.517374 82.237359 
L 369.517374 82.182246 
L 369.324818 82.182246 
L 369.324818 82.058272 
L 352.969554 82.058272 
L 352.969554 72.381023 
L 352.764963 72.381023 
L 352.764963 72.250284 
L 352.440024 72.250284 
L 352.440024 72.05458 
L 352.091016 72.05458 
L 352.091016 71.931122 
L 350.755155 71.842674 
L 350.755155 71.24892 
L 350.081208 71.24892 
L 350.081208 70.922495 
L 349.214704 70.922495 
L 349.214704 70.558077 
L 348.913834 70.558077 
L 348.913834 70.207099 
L 346.482809 70.207099 
L 346.482809 69.124696 
L 346.061592 69.124696 
L 346.061592 68.948576 
L 345.411714 68.847009 
L 345.411714 68.688505 
L 345.07474 68.688505 
L 345.07474 68.553666 
L 344.497071 68.477935 
L 344.497071 68.410723 
L 336.915161 68.410723 
L 336.915161 65.612345 
L 336.108831 65.523067 
L 336.108831 65.374275 
L 335.591335 65.374275 
L 335.591335 65.233836 
L 333.930536 65.135262 
L 333.930536 64.467529 
L 332.450258 64.360959 
L 332.450258 64.132361 
L 328.454712 64.132361 
L 328.454712 63.116289 
L 327.901112 63.042357 
L 327.901112 62.986956 
L 326.974434 62.986956 
L 326.974434 62.826373 
L 324.266609 62.826373 
L 324.266609 62.355899 
L 322.846505 62.254346 
L 322.846505 62.107507 
L 321.582854 62.0078 
L 321.582854 61.916653 
L 320.523793 61.846115 
L 320.523793 61.79434 
L 318.983342 61.688271 
L 318.983342 61.673378 
L 57.6 61.632416 
L 57.6 54.144 
L 57.6 54.144 
" style="fill:none;stroke:#0000ff;stroke-linecap:square;stroke-opacity:0.2;stroke-width:1.5;"/>
   </g>
   <g id="patch_3">
    <path d="M 57.6 307.584 
L 57.6 41.472 
" style="fill:none;stroke:#000000;stroke-linecap:square;stroke-linejoin:miter;stroke-width:0.8;"/>
   </g>
   <g id="patch_4">
    <path d="M 414.72 307.584 
L 414.72 41.472 
" style="fill:none;stroke:#000000;stroke-linecap:square;stroke-linejoin:miter;stroke-width:0.8;"/>
   </g>
   <g id="patch_5">
    <path d="M 57.6 307.584 
L 414.72 307.584 
" style="fill:none;stroke:#000000;stroke-linecap:square;stroke-linejoin:miter;stroke-width:0.8;"/>
   </g>
   <g id="patch_6">
    <path d="M 57.6 41.472 
L 414.72 41.472 
" style="fill:none;stroke:#000000;stroke-linecap:square;stroke-linejoin:miter;stroke-width:0.8;"/>
   </g>
   <g id="text_15">
    <!-- 2-class Precision-Recall curve -->
    <defs>
     <path d="M 4.890625 31.390625 
L 31.203125 31.390625 
L 31.203125 23.390625 
L 4.890625 23.390625 
z
" id="DejaVuSans-45"/>
     <path id="DejaVuSans-32"/>
     <path d="M 8.5 21.578125 
L 8.5 54.6875 
L 17.484375 54.6875 
L 17.484375 21.921875 
Q 17.484375 14.15625 20.5 10.265625 
Q 23.53125 6.390625 29.59375 6.390625 
Q 36.859375 6.390625 41.078125 11.03125 
Q 45.3125 15.671875 45.3125 23.6875 
L 45.3125 54.6875 
L 54.296875 54.6875 
L 54.296875 0 
L 45.3125 0 
L 45.3125 8.40625 
Q 42.046875 3.421875 37.71875 1 
Q 33.40625 -1.421875 27.6875 -1.421875 
Q 18.265625 -1.421875 13.375 4.4375 
Q 8.5 10.296875 8.5 21.578125 
z
M 31.109375 56 
z
" id="DejaVuSans-117"/>
     <path d="M 2.984375 54.6875 
L 12.5 54.6875 
L 29.59375 8.796875 
L 46.6875 54.6875 
L 56.203125 54.6875 
L 35.6875 0 
L 23.484375 0 
z
" id="DejaVuSans-118"/>
    </defs>
    <g transform="translate(147.321562 35.472)scale(0.12 -0.12)">
     <use xlink:href="#DejaVuSans-50"/>
     <use x="63.623047" xlink:href="#DejaVuSans-45"/>
     <use x="99.707031" xlink:href="#DejaVuSans-99"/>
     <use x="154.6875" xlink:href="#DejaVuSans-108"/>
     <use x="182.470703" xlink:href="#DejaVuSans-97"/>
     <use x="243.75" xlink:href="#DejaVuSans-115"/>
     <use x="295.849609" xlink:href="#DejaVuSans-115"/>
     <use x="347.949219" xlink:href="#DejaVuSans-32"/>
     <use x="379.736328" xlink:href="#DejaVuSans-80"/>
     <use x="440.023438" xlink:href="#DejaVuSans-114"/>
     <use x="481.105469" xlink:href="#DejaVuSans-101"/>
     <use x="542.628906" xlink:href="#DejaVuSans-99"/>
     <use x="597.609375" xlink:href="#DejaVuSans-105"/>
     <use x="625.392578" xlink:href="#DejaVuSans-115"/>
     <use x="677.492188" xlink:href="#DejaVuSans-105"/>
     <use x="705.275391" xlink:href="#DejaVuSans-111"/>
     <use x="766.457031" xlink:href="#DejaVuSans-110"/>
     <use x="829.835938" xlink:href="#DejaVuSans-45"/>
     <use x="865.919922" xlink:href="#DejaVuSans-82"/>
     <use x="935.339844" xlink:href="#DejaVuSans-101"/>
     <use x="996.863281" xlink:href="#DejaVuSans-99"/>
     <use x="1051.84375" xlink:href="#DejaVuSans-97"/>
     <use x="1113.123047" xlink:href="#DejaVuSans-108"/>
     <use x="1140.90625" xlink:href="#DejaVuSans-108"/>
     <use x="1168.689453" xlink:href="#DejaVuSans-32"/>
     <use x="1200.476562" xlink:href="#DejaVuSans-99"/>
     <use x="1255.457031" xlink:href="#DejaVuSans-117"/>
     <use x="1318.835938" xlink:href="#DejaVuSans-114"/>
     <use x="1359.949219" xlink:href="#DejaVuSans-118"/>
     <use x="1419.128906" xlink:href="#DejaVuSans-101"/>
    </g>
   </g>
  </g>
 </g>
 <defs>
  <clipPath id="pb8de7a4155">
   <rect height="266.112" width="357.12" x="57.6" y="41.472"/>
  </clipPath>
 </defs>
</svg>
